SplineFontDB: 3.0
FontName: FiraSlav-Regular
FullName: Fira Slav Regular
FamilyName: Fira Slav
Weight: Regular
Copyright: Copyright 2019 Aleksandr Andreev. Slavonic Computing Initiative. Digitized data copyright \\(c\\) 2012-2015, The Mozilla Foundation and Telefonica S.A.
Version: 003.5
ItalicAngle: 0
UnderlinePosition: -100
UnderlineWidth: 50
Ascent: 800
Descent: 200
InvalidEm: 0
sfntRevision: 0x00037fbe
LayerCount: 2
Layer: 0 0 "Back" 1
Layer: 1 0 "Fore" 0
XUID: [1021 16 -658691101 954425]
StyleMap: 0x0040
FSType: 0
OS2Version: 3
OS2_WeightWidthSlopeOnly: 0
OS2_UseTypoMetrics: 0
CreationTime: 1441835615
ModificationTime: 1551014497
PfmFamily: 17
TTFWeight: 400
TTFWidth: 5
LineGap: 0
VLineGap: 0
Panose: 2 11 5 9 5 0 0 2 0 4
OS2TypoAscent: 935
OS2TypoAOffset: 0
OS2TypoDescent: -265
OS2TypoDOffset: 0
OS2TypoLinegap: 0
OS2WinAscent: 935
OS2WinAOffset: 0
OS2WinDescent: 265
OS2WinDOffset: 0
HheadAscent: 935
HheadAOffset: 0
HheadDescent: -265
HheadDOffset: 0
OS2SubXSize: 650
OS2SubYSize: 600
OS2SubXOff: 0
OS2SubYOff: 75
OS2SupXSize: 650
OS2SupYSize: 600
OS2SupXOff: 0
OS2SupYOff: 350
OS2StrikeYSize: 50
OS2StrikeYPos: 316
OS2CapHeight: 689
OS2XHeight: 527
OS2Vendor: 'CTDB'
OS2CodePages: 6000009f.00000000
OS2UnicodeRanges: 40000287.02003801.00000000.00000000
Lookup: 1 0 0 "'ccmp' Map Combining Glyphs" { "'ss01' Style Set 1-1"  } ['ccmp' ('DFLT' <'dflt' > 'cyrl' <'ABK ' 'BEL ' 'BGR ' 'BOS ' 'CHE ' 'CHK ' 'CHU ' 'CSL ' 'KAZ ' 'RUS ' 'SRB ' 'UKR ' 'dflt' > 'grek' <' ELL' 'ELL ' 'dflt' > 'latn' <'AFK ' 'AZE ' 'CAT ' 'CRT ' 'KAZ ' 'MOL ' 'PLK ' 'ROM ' 'TAT ' 'TRK ' 'dflt' > ) ]
Lookup: 1 0 0 "'aalt' Access All Alternates in Latin lookup 0" { "'aalt' Access All Alternates in Latin lookup 0 subtable"  } ['aalt' ('DFLT' <'dflt' > 'latn' <'AFK ' 'AZE ' 'CAT ' 'CRT ' 'KAZ ' 'MOL ' 'PLK ' 'ROM ' 'TAT ' 'TRK ' 'dflt' > ) ]

StartChar: .notdef
Encoding: 1114112 -1 0
Width: 600
Flags: MW
HStem: -350 52<145 456 145 510> 48 72<272 292> 403 48<276.5 312> 998 52<145 456 145 145>
VStem: 90 55<-298 998 -298 1050 -298 1050> 247 70<74.5 95> 257 50<173 218 165.5 257> 348 54<307.5 353.5> 456 54<-298 998 998 998>
LayerCount: 2
Fore
SplineSet
90 1050 m 1xbb80
 510 1050 l 1
 510 -350 l 1
 90 -350 l 1
 90 1050 l 1xbb80
456 -298 m 1
 456 998 l 1
 145 998 l 1
 145 -298 l 1
 456 -298 l 1
307 173 m 2
 307 158 294 149 282 149 c 0
 269 149 257 158 257 173 c 2
 257 257 l 1
 329 261 348 281 348 334 c 0
 348 373 337 403 287 403 c 0
 266 403 252 400 235 392 c 0
 230 390 226 389 222 389 c 0
 207 389 198 399 198 412 c 0
 198 439 252 451 291 451 c 0
 377 451 402 396 402 336 c 0
 402 266 374 228 307 218 c 1
 307 173 l 2
247 85 m 0xfd80
 247 105 262 120 282 120 c 0
 302 120 317 105 317 85 c 0
 317 64 302 48 282 48 c 0
 262 48 247 64 247 85 c 0xfd80
EndSplineSet
Validated: 1
EndChar

StartChar: A
Encoding: 65 65 2
Width: 600
GlyphClass: 2
Flags: MW
HStem: 0 21G<20 106 20 20 489 489 489 579> 176 72<184 411 184 434 161 411> 615 74<298 298> 669 20G<245 355 355 355>
VStem: 20 559<0 0>
AnchorPoint: "Anchor-5" 300 689 basechar 0
AnchorPoint: "Anchor-4" 298 0 basechar 0
LayerCount: 2
Fore
SplineSet
434 176 m 1xd8
 161 176 l 1
 106 0 l 1
 20 0 l 1
 245 689 l 1
 355 689 l 1
 579 0 l 1
 489 0 l 1
 434 176 l 1xd8
184 248 m 1
 411 248 l 1
 298 615 l 1xe8
 184 248 l 1
EndSplineSet
Validated: 1
Substitution2: "Single Substitution lookup 29 subtable" ordfeminine
Substitution2: "'aalt' Access All Alternates in Latin lookup 0 subtable" ordfeminine
EndChar

StartChar: Aacute
Encoding: 193 193 3
Width: 600
GlyphClass: 2
Flags: MW
HStem: 0 21G<20 106 20 20 489 489 489 579> 176 72<184 411 184 434 161 411> 615 74<298 298> 669 20G<245 355 355 355>
VStem: 20 559<0 0>
AnchorPoint: "Anchor-5" 300 689 basechar 0
AnchorPoint: "Anchor-4" 298 0 basechar 0
LayerCount: 2
Fore
SplineSet
383 906 m 1xd8
 420 834 l 1
 207 755 l 1
 185 801 l 1
 383 906 l 1xd8
434 176 m 1
 161 176 l 1
 106 0 l 1
 20 0 l 1
 245 689 l 1
 355 689 l 1
 579 0 l 1
 489 0 l 1
 434 176 l 1
184 248 m 1
 411 248 l 1
 298 615 l 1xe8
 184 248 l 1
EndSplineSet
Validated: 1
EndChar

StartChar: Abreve
Encoding: 258 258 4
Width: 600
GlyphClass: 2
Flags: MW
HStem: 0 21G<20 106 20 20 489 489 489 579> 176 72<184 411 184 434 161 411> 615 74<298 298> 669 20G<245 355 355 355> 759 65<274.5 321.5 274.5 336.5>
VStem: 20 559<0 0>
AnchorPoint: "Anchor-5" 300 689 basechar 0
AnchorPoint: "Anchor-4" 298 0 basechar 0
LayerCount: 2
Fore
SplineSet
298 759 m 0xdc
 222 759 158 805 151 878 c 1
 208 891 l 1
 223 851 251 824 298 824 c 0
 345 824 377 851 391 891 c 1
 449 878 l 1
 441 805 375 759 298 759 c 0xdc
434 176 m 1
 161 176 l 1
 106 0 l 1
 20 0 l 1
 245 689 l 1
 355 689 l 1
 579 0 l 1
 489 0 l 1
 434 176 l 1
184 248 m 1
 411 248 l 1
 298 615 l 1xec
 184 248 l 1
EndSplineSet
Validated: 1
EndChar

StartChar: Acircumflex
Encoding: 194 194 5
Width: 600
GlyphClass: 2
Flags: MW
HStem: 0 21G<20 106 20 20 489 489 489 579> 176 72<184 411 184 434 161 411> 615 74<298 298> 669 20G<245 355 355 355>
VStem: 20 559<0 0>
AnchorPoint: "Anchor-5" 300 689 basechar 0
AnchorPoint: "Anchor-4" 298 0 basechar 0
LayerCount: 2
Fore
SplineSet
329 910 m 1xd8
 463 803 l 1
 426 760 l 1
 300 841 l 1
 175 760 l 1
 137 803 l 1
 272 910 l 1
 329 910 l 1xd8
434 176 m 1
 161 176 l 1
 106 0 l 1
 20 0 l 1
 245 689 l 1
 355 689 l 1
 579 0 l 1
 489 0 l 1
 434 176 l 1
184 248 m 1
 411 248 l 1
 298 615 l 1xe8
 184 248 l 1
EndSplineSet
Validated: 1
EndChar

StartChar: Adieresis
Encoding: 196 196 6
Width: 600
GlyphClass: 2
Flags: MW
HStem: 0 21G<20 106 20 20 489 489 489 579> 176 72<184 411 184 434 161 411> 615 74<298 298> 669 20G<245 355 355 355> 767 108<180.5 211.5 387.5 418.5>
VStem: 141 109<805 836> 349 109<805 836>
AnchorPoint: "Anchor-5" 300 820 basechar 0
AnchorPoint: "Anchor-4" 298 0 basechar 0
LayerCount: 2
Fore
SplineSet
196 767 m 0xde
 165 767 141 790 141 820 c 0
 141 852 165 875 196 875 c 0
 227 875 250 852 250 820 c 0
 250 790 227 767 196 767 c 0xde
403 767 m 0
 372 767 349 790 349 820 c 0
 349 852 372 875 403 875 c 0
 434 875 458 852 458 820 c 0
 458 790 434 767 403 767 c 0
434 176 m 1
 161 176 l 1
 106 0 l 1
 20 0 l 1
 245 689 l 1
 355 689 l 1
 579 0 l 1
 489 0 l 1
 434 176 l 1
184 248 m 1
 411 248 l 1
 298 615 l 1xee
 184 248 l 1
EndSplineSet
Validated: 1
EndChar

StartChar: Agrave
Encoding: 192 192 7
Width: 600
GlyphClass: 2
Flags: MW
HStem: 0 21G<20 106 20 20 489 489 489 579> 176 72<184 411 184 434 161 411> 615 74<298 298> 669 20G<245 355 355 355>
VStem: 20 559<0 0>
AnchorPoint: "Anchor-5" 300 689 basechar 0
AnchorPoint: "Anchor-4" 298 0 basechar 0
LayerCount: 2
Fore
SplineSet
231 909 m 1xd8
 416 801 l 1
 390 755 l 1
 185 837 l 1
 231 909 l 1xd8
434 176 m 1
 161 176 l 1
 106 0 l 1
 20 0 l 1
 245 689 l 1
 355 689 l 1
 579 0 l 1
 489 0 l 1
 434 176 l 1
184 248 m 1
 411 248 l 1
 298 615 l 1xe8
 184 248 l 1
EndSplineSet
Validated: 1
EndChar

StartChar: Amacron
Encoding: 256 256 8
Width: 600
GlyphClass: 2
Flags: MW
HStem: 0 21G<20 106 20 20 489 489 489 579> 176 72<184 411 184 434 161 411> 615 74<298 298> 669 20G<245 355 355 355> 795 64<165 434 165 434>
VStem: 165 269<795 859>
AnchorPoint: "Anchor-5" 300 689 basechar 0
AnchorPoint: "Anchor-4" 298 0 basechar 0
LayerCount: 2
Fore
SplineSet
434 795 m 1xdc
 165 795 l 1
 165 859 l 1
 434 859 l 1
 434 795 l 1xdc
434 176 m 1
 161 176 l 1
 106 0 l 1
 20 0 l 1
 245 689 l 1
 355 689 l 1
 579 0 l 1
 489 0 l 1
 434 176 l 1
184 248 m 1
 411 248 l 1
 298 615 l 1xec
 184 248 l 1
EndSplineSet
Validated: 1
EndChar

StartChar: Aogonek
Encoding: 260 260 9
Width: 600
GlyphClass: 2
Flags: MW
HStem: -229 67<450 473.5> 0 21G<20 106 20 20 539 579 539 539> 176 72<184 411 184 434 161 411> 615 74<298 298> 669 20G<245 355 355 355>
VStem: 338 77<-129 -100>
AnchorPoint: "Anchor-5" 300 689 basechar 0
AnchorPoint: "Anchor-4" 298 0 basechar 0
LayerCount: 2
Fore
SplineSet
539 0 m 1xec
 436 -45 415 -79 415 -114 c 0
 415 -144 429 -162 471 -162 c 0
 492 -162 508 -160 532 -155 c 1
 524 -223 l 1
 503 -226 487 -229 460 -229 c 0
 384 -229 338 -187 338 -131 c 0
 338 -69 383 -20 483 17 c 1
 434 176 l 1
 161 176 l 1
 106 0 l 1
 20 0 l 1
 245 689 l 1
 355 689 l 1
 579 0 l 1
 539 0 l 1xec
184 248 m 1
 411 248 l 1
 298 615 l 1xf4
 184 248 l 1
EndSplineSet
Validated: 1
EndChar

StartChar: Aring
Encoding: 197 197 10
Width: 600
GlyphClass: 2
Flags: MW
HStem: 0 21G<20 106 20 20 489 489 489 579> 176 72<184 411 184 434 161 411> 615 74<298 298> 669 20G<245 355 355 355> 738 45<283.5 317 283.5 332.5> 896 47<283.5 317>
VStem: 189 57<822 857.5 822 868.5> 354 57<822 857.5>
AnchorPoint: "Anchor-5" 300 689 basechar 0
AnchorPoint: "Anchor-4" 298 0 basechar 0
LayerCount: 2
Fore
SplineSet
300 943 m 0xdf
 365 943 411 897 411 840 c 0
 411 783 365 738 300 738 c 0
 235 738 189 783 189 840 c 0
 189 897 235 943 300 943 c 0xdf
300 896 m 0
 267 896 246 875 246 840 c 0
 246 804 267 783 300 783 c 0
 334 783 354 804 354 840 c 0
 354 875 334 896 300 896 c 0
434 176 m 1
 161 176 l 1
 106 0 l 1
 20 0 l 1
 245 689 l 1
 355 689 l 1
 579 0 l 1
 489 0 l 1
 434 176 l 1
184 248 m 1
 411 248 l 1
 298 615 l 1xef
 184 248 l 1
EndSplineSet
Validated: 1
EndChar

StartChar: Atilde
Encoding: 195 195 11
Width: 600
GlyphClass: 2
Flags: MW
HStem: 0 21G<20 106 20 20 489 489 489 579> 176 72<184 411 184 434 161 411> 615 74<298 298> 669 20G<245 355 355 355> 778 64<339.5 368 339.5 379.5> 826 65<230.5 260>
VStem: 20 559<0 0>
AnchorPoint: "Anchor-5" 300 689 basechar 0
AnchorPoint: "Anchor-4" 298 0 basechar 0
LayerCount: 2
Fore
SplineSet
358 778 m 0xda
 306 778 278 826 242 826 c 0
 219 826 205 810 189 780 c 1
 136 806 l 1
 159 854 194 891 242 891 c 0xd6
 298 891 321 842 358 842 c 0
 378 842 393 856 411 887 c 1
 465 860 l 1
 439 804 401 778 358 778 c 0xda
434 176 m 1xd6
 161 176 l 1
 106 0 l 1
 20 0 l 1
 245 689 l 1
 355 689 l 1
 579 0 l 1
 489 0 l 1
 434 176 l 1xd6
184 248 m 1
 411 248 l 1
 298 615 l 1xe6
 184 248 l 1
EndSplineSet
Validated: 1
EndChar

StartChar: AE
Encoding: 198 198 12
Width: 600
GlyphClass: 2
Flags: MW
HStem: 0 71<366 607 436 607 436 607> 175 73<148 314 148 330 126 314> 314 71<384 557 384 384> 618 71<320 556 320 320>
VStem: -12 619<0 71>
AnchorPoint: "Anchor-5" 361 689 basechar 0
AnchorPoint: "Anchor-4" 300 0 basechar 0
LayerCount: 2
Fore
SplineSet
330 175 m 5
 126 175 l 5
 77 0 l 5
 -12 0 l 5
 190 689 l 5
 566 689 l 5
 556 618 l 5
 320 618 l 5
 371 385 l 5
 557 385 l 5
 557 314 l 5
 384 314 l 5
 436 71 l 5
 607 71 l 5
 607 0 l 5
 366 0 l 5
 330 175 l 5
148 248 m 5
 314 248 l 5
 241 620 l 5
 148 248 l 5
EndSplineSet
Validated: 1
EndChar

StartChar: AEacute
Encoding: 508 508 13
Width: 600
GlyphClass: 2
Flags: MW
HStem: 0 71<366 607 436 607 436 607> 175 73<148 314 148 330 126 314> 314 71<384 557 384 384> 618 71<320 556 320 320>
VStem: -12 619<0 71>
AnchorPoint: "Anchor-5" 361 689 basechar 0
AnchorPoint: "Anchor-4" 300 0 basechar 0
LayerCount: 2
Fore
SplineSet
444 906 m 1
 481 834 l 1
 268 755 l 1
 246 801 l 1
 444 906 l 1
330 175 m 1
 126 175 l 1
 77 0 l 1
 -12 0 l 1
 190 689 l 1
 566 689 l 1
 556 618 l 1
 320 618 l 1
 371 385 l 1
 557 385 l 1
 557 314 l 1
 384 314 l 1
 436 71 l 1
 607 71 l 1
 607 0 l 1
 366 0 l 1
 330 175 l 1
148 248 m 1
 314 248 l 1
 241 620 l 1
 148 248 l 1
EndSplineSet
Validated: 1
EndChar

StartChar: B
Encoding: 66 66 14
Width: 600
GlyphClass: 2
Flags: MW
HStem: 0 72<183 282> 324 72<183 294 294 300 183 294> 618 71<183 266 266 286 183 183>
VStem: 96 87<72 324 396 618> 421 89<470.5 549.5> 448 92<142 245.5>
AnchorPoint: "Anchor-5" 300 689 basechar 0
AnchorPoint: "Anchor-4" 300 0 basechar 0
LayerCount: 2
Fore
SplineSet
540 196 m 0xf4
 540 46 408 0 282 0 c 2
 96 0 l 1
 96 689 l 1
 266 689 l 2
 387 689 510 650 510 515 c 0xf8
 510 426 447 380 381 365 c 1
 458 352 540 313 540 196 c 0xf4
421 510 m 0xf8
 421 589 369 618 286 618 c 2
 183 618 l 1
 183 396 l 1
 294 396 l 2
 375 396 421 430 421 510 c 0xf8
448 193 m 0xf4
 448 298 381 324 300 324 c 2
 183 324 l 1
 183 72 l 1
 297 72 l 2
 364 72 448 91 448 193 c 0xf4
EndSplineSet
Validated: 1
EndChar

StartChar: C
Encoding: 67 67 15
Width: 600
GlyphClass: 2
Flags: MW
HStem: -11 74<304 401.5 304 411> 627 73<308 390.5>
VStem: 63 91<242.5 450 242.5 461>
AnchorPoint: "Anchor-5" 365 689 basechar 0
AnchorPoint: "Anchor-4" 350 0 basechar 0
LayerCount: 2
Fore
SplineSet
358 700 m 0
 448 700 503 676 558 633 c 1
 509 576 l 1
 465 613 417 627 364 627 c 0
 252 627 154 555 154 345 c 0
 154 140 245 63 363 63 c 0
 440 63 486 91 523 120 c 1
 568 64 l 1
 526 23 460 -11 362 -11 c 0
 194 -11 63 113 63 345 c 0
 63 577 199 700 358 700 c 0
EndSplineSet
Validated: 1
EndChar

StartChar: Cacute
Encoding: 262 262 16
Width: 600
GlyphClass: 2
Flags: MW
HStem: -11 74<304 401.5 304 411> 627 73<308 390.5>
VStem: 63 91<242.5 450 242.5 461>
AnchorPoint: "Anchor-5" 365 689 basechar 0
AnchorPoint: "Anchor-4" 350 0 basechar 0
LayerCount: 2
Fore
SplineSet
448 906 m 1
 485 834 l 1
 272 755 l 1
 250 801 l 1
 448 906 l 1
358 700 m 0
 448 700 503 676 558 633 c 1
 509 576 l 1
 465 613 417 627 364 627 c 0
 252 627 154 555 154 345 c 0
 154 140 245 63 363 63 c 0
 440 63 486 91 523 120 c 1
 568 64 l 1
 526 23 460 -11 362 -11 c 0
 194 -11 63 113 63 345 c 0
 63 577 199 700 358 700 c 0
EndSplineSet
Validated: 1
Substitution2: "'locl' Localized Forms in Latin lookup 7 subtable" Cacute.loclPLK
Substitution2: "'aalt' Access All Alternates in Latin lookup 0 subtable" Cacute.loclPLK
EndChar

StartChar: Ccaron
Encoding: 268 268 17
Width: 600
GlyphClass: 2
Flags: MW
HStem: -11 74<304 401.5 304 411> 627 73<308 390.5>
VStem: 63 91<242.5 450 242.5 461>
AnchorPoint: "Anchor-5" 365 689 basechar 0
AnchorPoint: "Anchor-4" 350 0 basechar 0
LayerCount: 2
Fore
SplineSet
491 905 m 1
 528 862 l 1
 394 754 l 1
 337 754 l 1
 202 862 l 1
 240 905 l 1
 365 824 l 1
 491 905 l 1
358 700 m 0
 448 700 503 676 558 633 c 1
 509 576 l 1
 465 613 417 627 364 627 c 0
 252 627 154 555 154 345 c 0
 154 140 245 63 363 63 c 0
 440 63 486 91 523 120 c 1
 568 64 l 1
 526 23 460 -11 362 -11 c 0
 194 -11 63 113 63 345 c 0
 63 577 199 700 358 700 c 0
EndSplineSet
Validated: 1
EndChar

StartChar: Ccedilla
Encoding: 199 199 18
Width: 600
GlyphClass: 2
Flags: MW
HStem: -238 56<321 348 319 373> -97 40<304 370> -11 74<370 370> -7 21G<310 310> 627 73<308 390.5>
VStem: 63 91<242.5 450 242.5 461> 307 63 390 73<-155.5 -122.5>
AnchorPoint: "Anchor-5" 365 689 basechar 0
AnchorPoint: "Anchor-4" 350 0 basechar 0
LayerCount: 2
Fore
SplineSet
370 -57 m 1xee
 435 -63 463 -101 463 -140 c 0
 463 -206 405 -238 341 -238 c 0
 301 -238 262 -229 236 -214 c 1
 263 -166 l 1
 282 -176 308 -182 330 -182 c 0
 366 -182 390 -170 390 -141 c 0xef
 390 -104 357 -97 304 -97 c 1
 310 -7 l 1xde
 168 16 63 138 63 345 c 0
 63 577 199 700 358 700 c 0
 448 700 503 676 558 633 c 1
 509 576 l 1
 465 613 417 627 364 627 c 0
 252 627 154 555 154 345 c 0
 154 140 245 63 363 63 c 0
 440 63 486 91 523 120 c 1
 568 64 l 1
 527 24 463 -9 370 -11 c 1
 370 -57 l 1xee
EndSplineSet
Validated: 1
EndChar

StartChar: Ccircumflex
Encoding: 264 264 19
Width: 600
GlyphClass: 2
Flags: MW
HStem: -11 74<304 401.5 304 411> 627 73<308 390.5>
VStem: 63 91<242.5 450 242.5 461>
AnchorPoint: "Anchor-5" 365 689 basechar 0
AnchorPoint: "Anchor-4" 350 0 basechar 0
LayerCount: 2
Fore
SplineSet
394 910 m 1
 528 803 l 1
 491 760 l 1
 365 841 l 1
 240 760 l 1
 202 803 l 1
 337 910 l 1
 394 910 l 1
358 700 m 0
 448 700 503 676 558 633 c 1
 509 576 l 1
 465 613 417 627 364 627 c 0
 252 627 154 555 154 345 c 0
 154 140 245 63 363 63 c 0
 440 63 486 91 523 120 c 1
 568 64 l 1
 526 23 460 -11 362 -11 c 0
 194 -11 63 113 63 345 c 0
 63 577 199 700 358 700 c 0
EndSplineSet
Validated: 1
EndChar

StartChar: Cdotaccent
Encoding: 266 266 20
Width: 600
GlyphClass: 2
Flags: MW
HStem: -11 74<304 401.5 304 411> 627 73<308 390.5> 774 118<346 382.5>
VStem: 63 91<242.5 450 242.5 461> 304 121<816 850>
AnchorPoint: "Anchor-5" 365 689 basechar 0
AnchorPoint: "Anchor-4" 350 0 basechar 0
LayerCount: 2
Fore
SplineSet
364 892 m 0
 401 892 425 867 425 833 c 0
 425 799 401 774 364 774 c 0
 328 774 304 799 304 833 c 0
 304 867 328 892 364 892 c 0
358 700 m 0
 448 700 503 676 558 633 c 1
 509 576 l 1
 465 613 417 627 364 627 c 0
 252 627 154 555 154 345 c 0
 154 140 245 63 363 63 c 0
 440 63 486 91 523 120 c 1
 568 64 l 1
 526 23 460 -11 362 -11 c 0
 194 -11 63 113 63 345 c 0
 63 577 199 700 358 700 c 0
EndSplineSet
Validated: 1
EndChar

StartChar: D
Encoding: 68 68 21
Width: 600
GlyphClass: 2
Flags: MW
HStem: 0 70<170 241> 618 71<170 230 230 251 170 170>
VStem: 83 87<70 618 70 689 70 689> 460 93<234 468>
AnchorPoint: "Anchor-5" 284 689 basechar 0
AnchorPoint: "Anchor-4" 300 0 basechar 0
LayerCount: 2
Fore
SplineSet
553 348 m 0
 553 59 384 0 241 0 c 2
 83 0 l 1
 83 689 l 1
 230 689 l 2
 392 689 553 634 553 348 c 0
460 348 m 0
 460 588 346 618 251 618 c 2
 170 618 l 1
 170 70 l 1
 252 70 l 2
 351 70 460 120 460 348 c 0
EndSplineSet
Validated: 1
EndChar

StartChar: Eth
Encoding: 208 208 22
Width: 600
GlyphClass: 2
Flags: MW
HStem: 0 70<180 251> 320 66<20 93 20 93 180 338> 618 71<180 240 240 261 180 180>
VStem: 93 87<70 320 70 320 70 320 386 618> 470 92<234 468>
AnchorPoint: "Anchor-5" 293 689 basechar 0
AnchorPoint: "Anchor-4" 310 0 basechar 0
LayerCount: 2
Fore
SplineSet
240 689 m 2
 401 689 562 634 562 348 c 0
 562 59 394 0 251 0 c 2
 93 0 l 1
 93 320 l 1
 20 320 l 1
 20 386 l 1
 93 386 l 1
 93 689 l 1
 240 689 l 2
262 70 m 2
 361 70 470 120 470 348 c 0
 470 588 355 618 261 618 c 2
 180 618 l 1
 180 386 l 1
 338 386 l 1
 338 320 l 1
 180 320 l 1
 180 70 l 1
 262 70 l 2
EndSplineSet
Validated: 1
EndChar

StartChar: Dcaron
Encoding: 270 270 23
Width: 600
GlyphClass: 2
Flags: MW
HStem: 0 70<170 241> 618 71<170 230 230 251 170 170>
VStem: 83 87<70 618 70 689 70 689> 460 93<234 468>
AnchorPoint: "Anchor-5" 284 689 basechar 0
AnchorPoint: "Anchor-4" 300 0 basechar 0
LayerCount: 2
Fore
SplineSet
410 905 m 1
 447 862 l 1
 313 754 l 1
 256 754 l 1
 121 862 l 1
 159 905 l 1
 284 824 l 1
 410 905 l 1
553 348 m 0
 553 59 384 0 241 0 c 2
 83 0 l 1
 83 689 l 1
 230 689 l 2
 392 689 553 634 553 348 c 0
460 348 m 0
 460 588 346 618 251 618 c 2
 170 618 l 1
 170 70 l 1
 252 70 l 2
 351 70 460 120 460 348 c 0
EndSplineSet
Validated: 1
EndChar

StartChar: Dcroat
Encoding: 272 272 24
Width: 600
GlyphClass: 2
Flags: MW
HStem: 0 70<180 251> 320 66<20 93 20 93 180 338> 618 71<180 240 240 261 180 180>
VStem: 93 87<70 320 70 320 70 320 386 618> 470 92<234 468>
AnchorPoint: "Anchor-5" 293 689 basechar 0
AnchorPoint: "Anchor-4" 310 0 basechar 0
LayerCount: 2
Fore
SplineSet
240 689 m 2
 401 689 562 634 562 348 c 0
 562 59 394 0 251 0 c 2
 93 0 l 1
 93 320 l 1
 20 320 l 1
 20 386 l 1
 93 386 l 1
 93 689 l 1
 240 689 l 2
262 70 m 2
 361 70 470 120 470 348 c 0
 470 588 355 618 261 618 c 2
 180 618 l 1
 180 386 l 1
 338 386 l 1
 338 320 l 1
 180 320 l 1
 180 70 l 1
 262 70 l 2
EndSplineSet
Validated: 1
EndChar

StartChar: E
Encoding: 69 69 25
Width: 600
GlyphClass: 2
Flags: MW
HStem: 0 70<212 526 212 526> 314 71<212 468 212 468> 617 72<212 212 212 507>
VStem: 126 86<70 314 385 617>
AnchorPoint: "Anchor-5" 321 689 basechar 0
AnchorPoint: "Anchor-4" 326 0 basechar 0
LayerCount: 2
Fore
SplineSet
212 617 m 1
 212 385 l 1
 468 385 l 1
 468 314 l 1
 212 314 l 1
 212 70 l 1
 526 70 l 1
 526 0 l 1
 126 0 l 1
 126 689 l 1
 517 689 l 1
 507 617 l 1
 212 617 l 1
EndSplineSet
Validated: 1
EndChar

StartChar: Eacute
Encoding: 201 201 26
Width: 600
GlyphClass: 2
Flags: MW
HStem: 0 70<212 526 212 526> 314 71<212 468 212 468> 617 72<212 212 212 507>
VStem: 126 86<70 314 385 617>
AnchorPoint: "Anchor-5" 321 689 basechar 0
AnchorPoint: "Anchor-4" 326 0 basechar 0
LayerCount: 2
Fore
SplineSet
404 906 m 1
 441 834 l 1
 228 755 l 1
 206 801 l 1
 404 906 l 1
212 617 m 1
 212 385 l 1
 468 385 l 1
 468 314 l 1
 212 314 l 1
 212 70 l 1
 526 70 l 1
 526 0 l 1
 126 0 l 1
 126 689 l 1
 517 689 l 1
 507 617 l 1
 212 617 l 1
EndSplineSet
Validated: 1
EndChar

StartChar: Ebreve
Encoding: 276 276 27
Width: 600
GlyphClass: 2
Flags: MW
HStem: 0 70<212 526 212 526> 314 71<212 468 212 468> 617 72<212 212 212 507> 759 65<295.5 342.5 295.5 357.5>
VStem: 126 86<70 314 385 617>
AnchorPoint: "Anchor-5" 321 689 basechar 0
AnchorPoint: "Anchor-4" 326 0 basechar 0
LayerCount: 2
Fore
SplineSet
319 759 m 0
 243 759 179 805 172 878 c 1
 229 891 l 1
 244 851 272 824 319 824 c 0
 366 824 398 851 412 891 c 1
 470 878 l 1
 462 805 396 759 319 759 c 0
212 617 m 1
 212 385 l 1
 468 385 l 1
 468 314 l 1
 212 314 l 1
 212 70 l 1
 526 70 l 1
 526 0 l 1
 126 0 l 1
 126 689 l 1
 517 689 l 1
 507 617 l 1
 212 617 l 1
EndSplineSet
Validated: 1
EndChar

StartChar: Ecaron
Encoding: 282 282 28
Width: 600
GlyphClass: 2
Flags: MW
HStem: 0 70<212 526 212 526> 314 71<212 468 212 468> 617 72<212 212 212 507>
VStem: 126 86<70 314 385 617>
AnchorPoint: "Anchor-5" 321 689 basechar 0
AnchorPoint: "Anchor-4" 326 0 basechar 0
LayerCount: 2
Fore
SplineSet
447 905 m 1
 484 862 l 1
 350 754 l 1
 293 754 l 1
 158 862 l 1
 196 905 l 1
 321 824 l 1
 447 905 l 1
212 617 m 1
 212 385 l 1
 468 385 l 1
 468 314 l 1
 212 314 l 1
 212 70 l 1
 526 70 l 1
 526 0 l 1
 126 0 l 1
 126 689 l 1
 517 689 l 1
 507 617 l 1
 212 617 l 1
EndSplineSet
Validated: 1
EndChar

StartChar: Ecircumflex
Encoding: 202 202 29
Width: 600
GlyphClass: 2
Flags: MW
HStem: 0 70<212 526 212 526> 314 71<212 468 212 468> 617 72<212 212 212 507>
VStem: 126 86<70 314 385 617>
AnchorPoint: "Anchor-5" 321 689 basechar 0
AnchorPoint: "Anchor-4" 326 0 basechar 0
LayerCount: 2
Fore
SplineSet
350 910 m 1
 484 803 l 1
 447 760 l 1
 321 841 l 1
 196 760 l 1
 158 803 l 1
 293 910 l 1
 350 910 l 1
212 617 m 1
 212 385 l 1
 468 385 l 1
 468 314 l 1
 212 314 l 1
 212 70 l 1
 526 70 l 1
 526 0 l 1
 126 0 l 1
 126 689 l 1
 517 689 l 1
 507 617 l 1
 212 617 l 1
EndSplineSet
Validated: 1
EndChar

StartChar: Edieresis
Encoding: 203 203 30
Width: 600
GlyphClass: 2
Flags: MW
HStem: 0 70<212 526 212 526> 314 71<212 468 212 468> 617 72<212 212 212 507> 767 108<201.5 232.5 408.5 439.5>
VStem: 126 86<70 314 385 617> 162 109<805 836> 370 109<805 836>
AnchorPoint: "Anchor-5" 321 820 basechar 0
AnchorPoint: "Anchor-4" 326 0 basechar 0
LayerCount: 2
Fore
SplineSet
217 767 m 0xf6
 186 767 162 790 162 820 c 0
 162 852 186 875 217 875 c 0
 248 875 271 852 271 820 c 0
 271 790 248 767 217 767 c 0xf6
424 767 m 0
 393 767 370 790 370 820 c 0
 370 852 393 875 424 875 c 0
 455 875 479 852 479 820 c 0
 479 790 455 767 424 767 c 0
212 617 m 1xe8
 212 385 l 1
 468 385 l 1
 468 314 l 1
 212 314 l 1
 212 70 l 1
 526 70 l 1
 526 0 l 1
 126 0 l 1
 126 689 l 1
 517 689 l 1
 507 617 l 1
 212 617 l 1xe8
EndSplineSet
Validated: 1
EndChar

StartChar: Edotaccent
Encoding: 278 278 31
Width: 600
GlyphClass: 2
Flags: MW
HStem: 0 70<212 526 212 526> 314 71<212 468 212 468> 617 72<212 212 212 507> 774 118<302 338.5>
VStem: 126 86<70 314 385 617> 260 121<816 850>
AnchorPoint: "Anchor-5" 321 689 basechar 0
AnchorPoint: "Anchor-4" 326 0 basechar 0
LayerCount: 2
Fore
SplineSet
320 892 m 0
 357 892 381 867 381 833 c 0
 381 799 357 774 320 774 c 0
 284 774 260 799 260 833 c 0
 260 867 284 892 320 892 c 0
212 617 m 1
 212 385 l 1
 468 385 l 1
 468 314 l 1
 212 314 l 1
 212 70 l 1
 526 70 l 1
 526 0 l 1
 126 0 l 1
 126 689 l 1
 517 689 l 1
 507 617 l 1
 212 617 l 1
EndSplineSet
Validated: 1
EndChar

StartChar: Egrave
Encoding: 200 200 32
Width: 600
GlyphClass: 2
Flags: MW
HStem: 0 70<212 526 212 526> 314 71<212 468 212 468> 617 72<212 212 212 507>
VStem: 126 86<70 314 385 617>
AnchorPoint: "Anchor-5" 321 689 basechar 0
AnchorPoint: "Anchor-4" 326 0 basechar 0
LayerCount: 2
Fore
SplineSet
252 909 m 1
 437 801 l 1
 411 755 l 1
 206 837 l 1
 252 909 l 1
212 617 m 1
 212 385 l 1
 468 385 l 1
 468 314 l 1
 212 314 l 1
 212 70 l 1
 526 70 l 1
 526 0 l 1
 126 0 l 1
 126 689 l 1
 517 689 l 1
 507 617 l 1
 212 617 l 1
EndSplineSet
Validated: 1
EndChar

StartChar: Emacron
Encoding: 274 274 33
Width: 600
GlyphClass: 2
Flags: MW
HStem: 0 70<212 526 212 526> 314 71<212 468 212 468> 617 72<212 212 212 507> 795 64<186 455 186 455>
VStem: 126 86<70 314 385 617> 186 269<795 859 795 859>
AnchorPoint: "Anchor-5" 321 689 basechar 0
AnchorPoint: "Anchor-4" 326 0 basechar 0
LayerCount: 2
Fore
SplineSet
455 795 m 1xf4
 186 795 l 1
 186 859 l 1
 455 859 l 1
 455 795 l 1xf4
212 617 m 1xf8
 212 385 l 1
 468 385 l 1
 468 314 l 1
 212 314 l 1
 212 70 l 1
 526 70 l 1
 526 0 l 1
 126 0 l 1
 126 689 l 1
 517 689 l 1
 507 617 l 1
 212 617 l 1xf8
EndSplineSet
Validated: 1
EndChar

StartChar: Eogonek
Encoding: 280 280 34
Width: 600
GlyphClass: 2
Flags: MW
HStem: -229 67<379 402.5> 0 70<212 372 468 526 468 468> 314 71<212 468 212 468> 617 72<212 507 212 212>
VStem: 126 86<70 70 70 314 385 617> 267 77<-129 -104.5>
AnchorPoint: "Anchor-5" 321 689 basechar 0
AnchorPoint: "Anchor-4" 326 0 basechar 0
LayerCount: 2
Fore
SplineSet
212 70 m 1
 526 70 l 1
 526 0 l 1
 468 0 l 1
 365 -45 344 -79 344 -114 c 0
 344 -144 358 -162 400 -162 c 0
 421 -162 437 -160 461 -155 c 1
 453 -223 l 1
 432 -226 416 -229 389 -229 c 0
 313 -229 267 -187 267 -131 c 0
 267 -78 300 -35 372 0 c 1
 126 0 l 1
 126 689 l 1
 517 689 l 1
 507 617 l 1
 212 617 l 1
 212 385 l 1
 468 385 l 1
 468 314 l 1
 212 314 l 1
 212 70 l 1
EndSplineSet
Validated: 1
EndChar

StartChar: F
Encoding: 70 70 35
Width: 600
GlyphClass: 2
Flags: MW
HStem: 0 21G<138 225 138 138> 306 70<225 495 225 495> 617 72<225 225 225 534>
VStem: 138 87<0 306 376 617>
AnchorPoint: "Anchor-5" 300 689 basechar 0
AnchorPoint: "Anchor-4" 300 0 basechar 0
LayerCount: 2
Fore
SplineSet
225 617 m 1
 225 376 l 1
 495 376 l 1
 495 306 l 1
 225 306 l 1
 225 0 l 1
 138 0 l 1
 138 689 l 1
 544 689 l 1
 534 617 l 1
 225 617 l 1
EndSplineSet
Validated: 1
EndChar

StartChar: G
Encoding: 71 71 36
Width: 600
GlyphClass: 2
Flags: MW
HStem: -11 73<261 345 261 362.5> 304 73<317 452 317 317> 627 73<284 362.5>
VStem: 45 93<245 451 245 463.5> 452 87<95 304 304 304>
AnchorPoint: "Anchor-5" 330 689 basechar 0
AnchorPoint: "Anchor-4" 330 0 basechar 0
LayerCount: 2
Fore
SplineSet
314 -11 m 0
 150 -11 45 107 45 345 c 0
 45 582 185 700 334 700 c 0
 424 700 476 674 530 624 c 1
 478 570 l 1
 436 609 391 627 334 627 c 0
 234 627 138 557 138 345 c 0
 138 145 201 62 321 62 c 0
 369 62 413 73 452 95 c 1
 452 304 l 1
 317 304 l 1
 307 377 l 1
 539 377 l 1
 539 49 l 1
 477 14 411 -11 314 -11 c 0
EndSplineSet
Validated: 1
EndChar

StartChar: Gbreve
Encoding: 286 286 37
Width: 600
GlyphClass: 2
Flags: MW
HStem: -11 73<261 345 261 362.5> 304 73<317 452 317 317> 627 73<284 362.5> 759 65<304.5 351.5 304.5 366.5>
VStem: 45 93<245 451 245 463.5> 452 87<95 304 304 304>
AnchorPoint: "Anchor-5" 330 689 basechar 0
AnchorPoint: "Anchor-4" 330 0 basechar 0
LayerCount: 2
Fore
SplineSet
328 759 m 0
 252 759 188 805 181 878 c 1
 238 891 l 1
 253 851 281 824 328 824 c 0
 375 824 407 851 421 891 c 1
 479 878 l 1
 471 805 405 759 328 759 c 0
314 -11 m 0
 150 -11 45 107 45 345 c 0
 45 582 185 700 334 700 c 0
 424 700 476 674 530 624 c 1
 478 570 l 1
 436 609 391 627 334 627 c 0
 234 627 138 557 138 345 c 0
 138 145 201 62 321 62 c 0
 369 62 413 73 452 95 c 1
 452 304 l 1
 317 304 l 1
 307 377 l 1
 539 377 l 1
 539 49 l 1
 477 14 411 -11 314 -11 c 0
EndSplineSet
Validated: 1
EndChar

StartChar: Gcircumflex
Encoding: 284 284 38
Width: 600
GlyphClass: 2
Flags: MW
HStem: -11 73<261 345 261 362.5> 304 73<317 452 317 317> 627 73<284 362.5>
VStem: 45 93<245 451 245 463.5> 452 87<95 304 304 304>
AnchorPoint: "Anchor-5" 330 689 basechar 0
AnchorPoint: "Anchor-4" 330 0 basechar 0
LayerCount: 2
Fore
SplineSet
359 910 m 1
 493 803 l 1
 456 760 l 1
 330 841 l 1
 205 760 l 1
 167 803 l 1
 302 910 l 1
 359 910 l 1
314 -11 m 0
 150 -11 45 107 45 345 c 0
 45 582 185 700 334 700 c 0
 424 700 476 674 530 624 c 1
 478 570 l 1
 436 609 391 627 334 627 c 0
 234 627 138 557 138 345 c 0
 138 145 201 62 321 62 c 0
 369 62 413 73 452 95 c 1
 452 304 l 1
 317 304 l 1
 307 377 l 1
 539 377 l 1
 539 49 l 1
 477 14 411 -11 314 -11 c 0
EndSplineSet
Validated: 1
EndChar

StartChar: Gcommaaccent
Encoding: 290 290 39
Width: 600
GlyphClass: 2
Flags: MW
HStem: -11 73<261 345 261 362.5> 304 73<317 452 317 317> 627 73<284 362.5>
VStem: 45 93<245 451 245 463.5> 279 109<-132.5 -109 -132.5 -108.5> 452 87<95 304 304 304>
AnchorPoint: "Anchor-5" 330 689 basechar 0
AnchorPoint: "Anchor-4" 330 0 basechar 0
LayerCount: 2
Fore
SplineSet
314 -11 m 0
 150 -11 45 107 45 345 c 0
 45 582 185 700 334 700 c 0
 424 700 476 674 530 624 c 1
 478 570 l 1
 436 609 391 627 334 627 c 0
 234 627 138 557 138 345 c 0
 138 145 201 62 321 62 c 0
 369 62 413 73 452 95 c 1
 452 304 l 1
 317 304 l 1
 307 377 l 1
 539 377 l 1
 539 49 l 1
 477 14 411 -11 314 -11 c 0
333 -71 m 0
 364 -71 388 -94 388 -124 c 0
 388 -141 383 -156 373 -179 c 2
 322 -286 l 1
 272 -286 l 1
 301 -169 l 1
 287 -158 279 -142 279 -124 c 0
 279 -93 303 -71 333 -71 c 0
EndSplineSet
Validated: 1
EndChar

StartChar: Gdotaccent
Encoding: 288 288 40
Width: 600
GlyphClass: 2
Flags: MW
HStem: -11 73<261 345 261 362.5> 304 73<317 452 317 317> 627 73<284 362.5> 774 118<311 347.5>
VStem: 45 93<245 451 245 463.5> 269 121<816 850> 452 87<95 304 304 304>
AnchorPoint: "Anchor-5" 330 689 basechar 0
AnchorPoint: "Anchor-4" 330 0 basechar 0
LayerCount: 2
Fore
SplineSet
329 892 m 0
 366 892 390 867 390 833 c 0
 390 799 366 774 329 774 c 0
 293 774 269 799 269 833 c 0
 269 867 293 892 329 892 c 0
314 -11 m 0
 150 -11 45 107 45 345 c 0
 45 582 185 700 334 700 c 0
 424 700 476 674 530 624 c 1
 478 570 l 1
 436 609 391 627 334 627 c 0
 234 627 138 557 138 345 c 0
 138 145 201 62 321 62 c 0
 369 62 413 73 452 95 c 1
 452 304 l 1
 317 304 l 1
 307 377 l 1
 539 377 l 1
 539 49 l 1
 477 14 411 -11 314 -11 c 0
EndSplineSet
Validated: 1
EndChar

StartChar: H
Encoding: 72 72 41
Width: 600
GlyphClass: 2
Flags: MW
HStem: 0 21G<83 170 83 83 430 517 430 430> 327 71<170 430 170 430> 669 20G<83 170 170 170 430 517 517 517>
VStem: 83 87<0 327 0 398 398 689> 430 87<0 327 327 327 398 689 0 689>
AnchorPoint: "Anchor-5" 300 689 basechar 0
AnchorPoint: "Anchor-4" 300 0 basechar 0
LayerCount: 2
Fore
SplineSet
430 0 m 1
 430 327 l 1
 170 327 l 1
 170 0 l 1
 83 0 l 1
 83 689 l 1
 170 689 l 1
 170 398 l 1
 430 398 l 1
 430 689 l 1
 517 689 l 1
 517 0 l 1
 430 0 l 1
EndSplineSet
Validated: 1
EndChar

StartChar: Hbar
Encoding: 294 294 42
Width: 600
GlyphClass: 2
Flags: MW
HStem: 0 21G<83 169 83 83 431 517 431 431> 326 72<169 431 169 431> 509 66<2 83 2 83 169 431 517 598> 509 180<2 169 2 169 83 169 83 431>
VStem: 83 86<0 326 0 398 398 509 575 689> 431 86<0 326 326 326 398 509 0 509 575 689>
LayerCount: 2
Fore
SplineSet
598 575 m 1xec
 598 509 l 1
 517 509 l 1
 517 0 l 1
 431 0 l 1
 431 326 l 1
 169 326 l 1
 169 0 l 1
 83 0 l 1
 83 509 l 1
 2 509 l 1xdc
 2 575 l 1
 83 575 l 1xec
 83 689 l 1
 169 689 l 1xdc
 169 575 l 1
 431 575 l 1xec
 431 689 l 1
 517 689 l 1xdc
 517 575 l 1
 598 575 l 1xec
431 398 m 1
 431 509 l 1
 169 509 l 1
 169 398 l 1
 431 398 l 1
EndSplineSet
Validated: 1
EndChar

StartChar: Hcircumflex
Encoding: 292 292 43
Width: 600
GlyphClass: 2
Flags: MW
HStem: 0 21G<83 170 83 83 430 517 430 430> 327 71<170 430 170 430> 669 20G<83 170 170 170 430 517 517 517>
VStem: 83 87<0 327 0 398 398 689> 430 87<0 327 327 327 398 689 0 689>
AnchorPoint: "Anchor-5" 300 689 basechar 0
AnchorPoint: "Anchor-4" 300 0 basechar 0
LayerCount: 2
Fore
SplineSet
329 910 m 1
 463 803 l 1
 426 760 l 1
 300 841 l 1
 175 760 l 1
 137 803 l 1
 272 910 l 1
 329 910 l 1
430 0 m 1
 430 327 l 1
 170 327 l 1
 170 0 l 1
 83 0 l 1
 83 689 l 1
 170 689 l 1
 170 398 l 1
 430 398 l 1
 430 689 l 1
 517 689 l 1
 517 0 l 1
 430 0 l 1
EndSplineSet
Validated: 1
EndChar

StartChar: I
Encoding: 73 73 44
Width: 600
GlyphClass: 2
Flags: MW
HStem: 0 69<103 256 344 497 103 256> 619 70<103 256 103 497 344 497 344 344>
VStem: 256 88<69 619 69 619>
AnchorPoint: "Anchor-5" 300 689 basechar 0
AnchorPoint: "Anchor-4" 300 0 basechar 0
LayerCount: 2
Fore
SplineSet
497 689 m 1
 497 619 l 1
 344 619 l 1
 344 69 l 1
 497 69 l 1
 497 0 l 1
 103 0 l 1
 103 69 l 1
 256 69 l 1
 256 619 l 1
 103 619 l 1
 103 689 l 1
 497 689 l 1
EndSplineSet
Validated: 1
EndChar

StartChar: IJ
Encoding: 306 306 45
Width: 600
GlyphClass: 2
Flags: MW
HStem: 0 72<11 111 201 281 11 111> 617 72<11 111 11 532 201 445 201 201>
VStem: 111 90<72 617 72 617> 445 87<193 617 617 617>
LayerCount: 2
Fore
SplineSet
194 -71 m 1
 398 -51 445 45 445 193 c 2
 445 617 l 1
 201 617 l 1
 201 72 l 1
 281 72 l 1
 281 0 l 1
 11 0 l 1
 11 72 l 1
 111 72 l 1
 111 617 l 1
 11 617 l 1
 11 689 l 1
 532 689 l 1
 532 188 l 2
 532 32 471 -112 204 -136 c 1
 194 -71 l 1
EndSplineSet
Validated: 1
EndChar

StartChar: Iacute
Encoding: 205 205 46
Width: 600
GlyphClass: 2
Flags: MW
HStem: 0 69<103 256 344 497 103 256> 619 70<103 256 103 497 344 497 344 344>
VStem: 256 88<69 619 69 619>
AnchorPoint: "Anchor-5" 300 689 basechar 0
AnchorPoint: "Anchor-4" 300 0 basechar 0
LayerCount: 2
Fore
SplineSet
383 906 m 1
 420 834 l 1
 207 755 l 1
 185 801 l 1
 383 906 l 1
497 689 m 1
 497 619 l 1
 344 619 l 1
 344 69 l 1
 497 69 l 1
 497 0 l 1
 103 0 l 1
 103 69 l 1
 256 69 l 1
 256 619 l 1
 103 619 l 1
 103 689 l 1
 497 689 l 1
EndSplineSet
Validated: 1
EndChar

StartChar: Ibreve
Encoding: 300 300 47
Width: 600
GlyphClass: 2
Flags: MW
HStem: 0 69<103 256 344 497 103 256> 619 70<103 256 103 497 344 497 344 344> 759 65<274.5 321.5 274.5 336.5>
VStem: 256 88<69 619 69 619>
AnchorPoint: "Anchor-5" 300 689 basechar 0
AnchorPoint: "Anchor-4" 300 0 basechar 0
LayerCount: 2
Fore
SplineSet
298 759 m 0
 222 759 158 805 151 878 c 1
 208 891 l 1
 223 851 251 824 298 824 c 0
 345 824 377 851 391 891 c 1
 449 878 l 1
 441 805 375 759 298 759 c 0
497 689 m 1
 497 619 l 1
 344 619 l 1
 344 69 l 1
 497 69 l 1
 497 0 l 1
 103 0 l 1
 103 69 l 1
 256 69 l 1
 256 619 l 1
 103 619 l 1
 103 689 l 1
 497 689 l 1
EndSplineSet
Validated: 1
EndChar

StartChar: Icircumflex
Encoding: 206 206 48
Width: 600
GlyphClass: 2
Flags: MW
HStem: 0 69<103 256 344 497 103 256> 619 70<103 256 103 497 344 497 344 344>
VStem: 256 88<69 619 69 619>
AnchorPoint: "Anchor-5" 300 689 basechar 0
AnchorPoint: "Anchor-4" 300 0 basechar 0
LayerCount: 2
Fore
SplineSet
329 910 m 1
 463 803 l 1
 426 760 l 1
 300 841 l 1
 175 760 l 1
 137 803 l 1
 272 910 l 1
 329 910 l 1
497 689 m 1
 497 619 l 1
 344 619 l 1
 344 69 l 1
 497 69 l 1
 497 0 l 1
 103 0 l 1
 103 69 l 1
 256 69 l 1
 256 619 l 1
 103 619 l 1
 103 689 l 1
 497 689 l 1
EndSplineSet
Validated: 1
EndChar

StartChar: Idieresis
Encoding: 207 207 49
Width: 600
GlyphClass: 2
Flags: MW
HStem: 0 69<103 256 344 497 103 256> 619 70<103 256 103 497 344 497 344 344> 767 108<180.5 211.5 387.5 418.5>
VStem: 141 109<805 836> 256 88<69 619 69 619> 349 109<805 836>
AnchorPoint: "Anchor-5" 300 820 basechar 0
AnchorPoint: "Anchor-4" 300 0 basechar 0
LayerCount: 2
Fore
SplineSet
196 767 m 0
 165 767 141 790 141 820 c 0
 141 852 165 875 196 875 c 0
 227 875 250 852 250 820 c 0
 250 790 227 767 196 767 c 0
403 767 m 0
 372 767 349 790 349 820 c 0
 349 852 372 875 403 875 c 0
 434 875 458 852 458 820 c 0
 458 790 434 767 403 767 c 0
497 689 m 1
 497 619 l 1
 344 619 l 1
 344 69 l 1
 497 69 l 1
 497 0 l 1
 103 0 l 1
 103 69 l 1
 256 69 l 1
 256 619 l 1xc8
 103 619 l 1
 103 689 l 1
 497 689 l 1
EndSplineSet
Validated: 1
EndChar

StartChar: Idotaccent
Encoding: 304 304 50
Width: 600
GlyphClass: 2
Flags: MW
HStem: 0 69<103 256 344 497 103 256> 619 70<103 256 103 497 344 497 344 344> 774 118<281 317.5>
VStem: 239 121<816 850> 256 88<69 619 69 619>
AnchorPoint: "Anchor-5" 300 689 basechar 0
AnchorPoint: "Anchor-4" 300 0 basechar 0
LayerCount: 2
Fore
SplineSet
299 892 m 0xf0
 336 892 360 867 360 833 c 0
 360 799 336 774 299 774 c 0
 263 774 239 799 239 833 c 0
 239 867 263 892 299 892 c 0xf0
497 689 m 1
 497 619 l 1
 344 619 l 1
 344 69 l 1
 497 69 l 1
 497 0 l 1
 103 0 l 1
 103 69 l 1
 256 69 l 1
 256 619 l 1xc8
 103 619 l 1
 103 689 l 1
 497 689 l 1
EndSplineSet
Validated: 1
EndChar

StartChar: Igrave
Encoding: 204 204 51
Width: 600
GlyphClass: 2
Flags: MW
HStem: 0 69<103 256 344 497 103 256> 619 70<103 256 103 497 344 497 344 344>
VStem: 256 88<69 619 69 619>
AnchorPoint: "Anchor-5" 300 689 basechar 0
AnchorPoint: "Anchor-4" 300 0 basechar 0
LayerCount: 2
Fore
SplineSet
231 909 m 1
 416 801 l 1
 390 755 l 1
 185 837 l 1
 231 909 l 1
497 689 m 1
 497 619 l 1
 344 619 l 1
 344 69 l 1
 497 69 l 1
 497 0 l 1
 103 0 l 1
 103 69 l 1
 256 69 l 1
 256 619 l 1
 103 619 l 1
 103 689 l 1
 497 689 l 1
EndSplineSet
Validated: 1
EndChar

StartChar: Imacron
Encoding: 298 298 52
Width: 600
GlyphClass: 2
Flags: MW
HStem: 0 69<103 256 344 497 103 256> 619 70<103 256 103 497 344 497 344 344> 795 64<165 434 165 434>
VStem: 165 269<795 859 795 859> 256 88<69 619 69 619>
AnchorPoint: "Anchor-5" 300 689 basechar 0
AnchorPoint: "Anchor-4" 300 0 basechar 0
LayerCount: 2
Fore
SplineSet
434 795 m 1xf0
 165 795 l 1
 165 859 l 1
 434 859 l 1
 434 795 l 1xf0
497 689 m 1
 497 619 l 1
 344 619 l 1
 344 69 l 1
 497 69 l 1
 497 0 l 1
 103 0 l 1
 103 69 l 1
 256 69 l 1
 256 619 l 1xe8
 103 619 l 1
 103 689 l 1
 497 689 l 1
EndSplineSet
Validated: 1
EndChar

StartChar: Iogonek
Encoding: 302 302 53
Width: 600
GlyphClass: 2
Flags: MW
HStem: -229 67<255 278.5> 0 69<103 248 103 256 344 497> 619 70<103 256 103 497 344 497 344 344>
VStem: 143 77<-129 -104.5> 256 88<69 619>
AnchorPoint: "Anchor-5" 300 689 basechar 0
AnchorPoint: "Anchor-4" 300 0 basechar 0
LayerCount: 2
Fore
SplineSet
497 619 m 1
 344 619 l 1
 344 69 l 1
 497 69 l 1
 497 0 l 1
 344 0 l 1
 241 -45 220 -79 220 -114 c 0
 220 -144 234 -162 276 -162 c 0
 297 -162 313 -160 337 -155 c 1
 329 -223 l 1
 308 -226 292 -229 265 -229 c 0
 189 -229 143 -187 143 -131 c 0
 143 -78 176 -35 248 0 c 1
 103 0 l 1
 103 69 l 1
 256 69 l 1
 256 619 l 1
 103 619 l 1
 103 689 l 1
 497 689 l 1
 497 619 l 1
EndSplineSet
Validated: 1
EndChar

StartChar: Itilde
Encoding: 296 296 54
Width: 600
GlyphClass: 2
Flags: MW
HStem: 0 69<103 256 344 497 103 256> 619 70<103 256 103 497 344 497 344 344> 778 64<339.5 368 339.5 379.5> 826 65<230.5 260>
VStem: 256 88<69 619 69 619>
AnchorPoint: "Anchor-5" 300 689 basechar 0
AnchorPoint: "Anchor-4" 300 0 basechar 0
LayerCount: 2
Fore
SplineSet
358 778 m 0xe8
 306 778 278 826 242 826 c 0
 219 826 205 810 189 780 c 1
 136 806 l 1
 159 854 194 891 242 891 c 0xd8
 298 891 321 842 358 842 c 0
 378 842 393 856 411 887 c 1
 465 860 l 1
 439 804 401 778 358 778 c 0xe8
497 689 m 1xd8
 497 619 l 1
 344 619 l 1
 344 69 l 1
 497 69 l 1
 497 0 l 1
 103 0 l 1
 103 69 l 1
 256 69 l 1
 256 619 l 1
 103 619 l 1
 103 689 l 1
 497 689 l 1xd8
EndSplineSet
Validated: 1
EndChar

StartChar: J
Encoding: 74 74 55
Width: 600
GlyphClass: 2
Flags: MW
HStem: -12 73<240 308 240 352> 618 71<206 410 206 497>
VStem: 410 87<233 618 618 618>
AnchorPoint: "Anchor-5" 350 689 basechar 0
AnchorPoint: "Anchor-4" 300 0 basechar 0
LayerCount: 2
Fore
SplineSet
497 689 m 1
 497 229 l 2
 497 114 443 -12 261 -12 c 0
 194 -12 127 10 73 51 c 1
 111 108 l 1
 170 71 220 61 260 61 c 0
 356 61 410 126 410 233 c 2
 410 618 l 1
 206 618 l 1
 206 689 l 1
 497 689 l 1
EndSplineSet
Validated: 1
EndChar

StartChar: Jcircumflex
Encoding: 308 308 56
Width: 600
GlyphClass: 2
Flags: MW
HStem: -12 73<240 308 240 352> 618 71<206 410 206 497>
VStem: 410 87<233 618 618 618>
AnchorPoint: "Anchor-5" 350 689 basechar 0
AnchorPoint: "Anchor-4" 300 0 basechar 0
LayerCount: 2
Fore
SplineSet
379 910 m 1
 513 803 l 1
 476 760 l 1
 350 841 l 1
 225 760 l 1
 187 803 l 1
 322 910 l 1
 379 910 l 1
497 689 m 1
 497 229 l 2
 497 114 443 -12 261 -12 c 0
 194 -12 127 10 73 51 c 1
 111 108 l 1
 170 71 220 61 260 61 c 0
 356 61 410 126 410 233 c 2
 410 618 l 1
 206 618 l 1
 206 689 l 1
 497 689 l 1
EndSplineSet
Validated: 1
EndChar

StartChar: K
Encoding: 75 75 57
Width: 600
GlyphClass: 2
Flags: MW
HStem: 0 21G<105 192 105 105 478 478 478 587> 669 20G<105 192 192 192 467 568 568 568>
VStem: 105 87<0 689>
AnchorPoint: "Anchor-5" 327 689 basechar 0
AnchorPoint: "Anchor-4" 322 0 basechar 0
LayerCount: 2
Fore
SplineSet
192 0 m 1
 105 0 l 1
 105 689 l 1
 192 689 l 1
 192 0 l 1
197 368 m 1
 467 689 l 1
 568 689 l 1
 299 373 l 1
 587 0 l 1
 478 0 l 1
 197 368 l 1
EndSplineSet
Validated: 1
EndChar

StartChar: Kcommaaccent
Encoding: 310 310 58
Width: 600
GlyphClass: 2
Flags: MW
HStem: 0 21G<105 192 105 105 478 478 478 587> 669 20G<105 192 192 192 467 568 568 568>
VStem: 105 87<0 689> 271 109<-132.5 -109 -132.5 -108.5>
AnchorPoint: "Anchor-5" 327 689 basechar 0
AnchorPoint: "Anchor-4" 322 0 basechar 0
LayerCount: 2
Fore
SplineSet
192 0 m 1
 105 0 l 1
 105 689 l 1
 192 689 l 1
 192 0 l 1
197 368 m 1
 467 689 l 1
 568 689 l 1
 299 373 l 1
 587 0 l 1
 478 0 l 1
 197 368 l 1
325 -71 m 0
 356 -71 380 -94 380 -124 c 0
 380 -141 375 -156 365 -179 c 2
 314 -286 l 1
 264 -286 l 1
 293 -169 l 1
 279 -158 271 -142 271 -124 c 0
 271 -93 295 -71 325 -71 c 0
EndSplineSet
Validated: 1
EndChar

StartChar: L
Encoding: 76 76 59
Width: 600
GlyphClass: 2
Flags: MW
HStem: 0 77<222 526> 669 20G<136 222 222 222>
VStem: 136 86<77 689 77 689 77 689>
AnchorPoint: "Anchor-5" 179 689 basechar 0
AnchorPoint: "Anchor-4" 332 0 basechar 0
LayerCount: 2
Fore
SplineSet
136 0 m 1
 136 689 l 1
 222 689 l 1
 222 77 l 1
 537 77 l 1
 526 0 l 1
 136 0 l 1
EndSplineSet
Validated: 1
EndChar

StartChar: Lacute
Encoding: 313 313 60
Width: 600
GlyphClass: 2
Flags: MW
HStem: 0 77<222 526> 669 20G<136 222 222 222>
VStem: 136 86<77 689 77 689 77 689>
AnchorPoint: "Anchor-5" 179 689 basechar 0
AnchorPoint: "Anchor-4" 332 0 basechar 0
LayerCount: 2
Fore
SplineSet
262 906 m 1
 299 834 l 1
 86 755 l 1
 64 801 l 1
 262 906 l 1
136 0 m 1
 136 689 l 1
 222 689 l 1
 222 77 l 1
 537 77 l 1
 526 0 l 1
 136 0 l 1
EndSplineSet
Validated: 1
EndChar

StartChar: Lcaron
Encoding: 317 317 61
Width: 600
GlyphClass: 2
Flags: MW
HStem: 0 77<222 526> 669 20G<136 222 222 222> 678 20G<308 308>
VStem: 136 86<77 689 77 689 77 689>
AnchorPoint: "Anchor-5" 179 689 basechar 0
AnchorPoint: "Anchor-4" 332 0 basechar 0
LayerCount: 2
Fore
SplineSet
308 698 m 1xb0
 384 688 l 1
 331 510 l 1
 283 517 l 1
 308 698 l 1xb0
136 0 m 1
 136 689 l 1
 222 689 l 1xd0
 222 77 l 1
 537 77 l 1
 526 0 l 1
 136 0 l 1
EndSplineSet
Validated: 1
EndChar

StartChar: Lcommaaccent
Encoding: 315 315 62
Width: 600
GlyphClass: 2
Flags: MW
HStem: 0 77<222 526> 669 20G<136 222 222 222>
VStem: 136 86<77 689 77 689 77 689> 281 109<-132.5 -109 -132.5 -108.5>
AnchorPoint: "Anchor-5" 179 689 basechar 0
AnchorPoint: "Anchor-4" 332 0 basechar 0
LayerCount: 2
Fore
SplineSet
136 0 m 1
 136 689 l 1
 222 689 l 1
 222 77 l 1
 537 77 l 1
 526 0 l 1
 136 0 l 1
335 -71 m 0
 366 -71 390 -94 390 -124 c 0
 390 -141 385 -156 375 -179 c 2
 324 -286 l 1
 274 -286 l 1
 303 -169 l 1
 289 -158 281 -142 281 -124 c 0
 281 -93 305 -71 335 -71 c 0
EndSplineSet
Validated: 1
EndChar

StartChar: Ldot
Encoding: 319 319 63
Width: 600
GlyphClass: 2
Flags: MW
HStem: 0 77<222 526> 319 118<454 490.5> 669 20G<136 222 222 222>
VStem: 136 86<77 689 77 689 77 689> 412 121<361 395>
AnchorPoint: "Anchor-5" 179 689 basechar 0
AnchorPoint: "Anchor-4" 332 0 basechar 0
LayerCount: 2
Fore
SplineSet
136 0 m 1
 136 689 l 1
 222 689 l 1
 222 77 l 1
 537 77 l 1
 526 0 l 1
 136 0 l 1
472 437 m 0
 509 437 533 412 533 378 c 0
 533 344 509 319 472 319 c 0
 436 319 412 344 412 378 c 0
 412 412 436 437 472 437 c 0
EndSplineSet
Validated: 1
Ligature2: "Ligature Substitution lookup 28 subtable" L periodcentered
EndChar

StartChar: Lslash
Encoding: 321 321 64
Width: 600
GlyphClass: 2
Flags: MW
HStem: 0 77<220 525> 669 20G<134 220 220 220>
VStem: 134 86<77 77 77 268 268 268 399 689>
AnchorPoint: "Anchor-5" 178 689 basechar 0
AnchorPoint: "Anchor-4" 330 0 basechar 0
LayerCount: 2
Fore
SplineSet
220 77 m 1
 535 77 l 1
 525 0 l 1
 134 0 l 1
 134 268 l 1
 77 232 l 1
 40 289 l 1
 134 346 l 1
 134 689 l 1
 220 689 l 1
 220 399 l 1
 385 502 l 1
 422 446 l 1
 220 321 l 1
 220 77 l 1
EndSplineSet
Validated: 1
EndChar

StartChar: M
Encoding: 77 77 65
Width: 600
GlyphClass: 2
Flags: MW
HStem: 0 21G<30 112 30 30 486 570 486 486> 609 80<132 132 459 459>
VStem: 30 540<0 0>
AnchorPoint: "Anchor-5" 300 689 basechar 0
AnchorPoint: "Anchor-4" 300 0 basechar 0
LayerCount: 2
Fore
SplineSet
531 689 m 1
 570 0 l 1
 486 0 l 1
 465 360 l 2
 459 455 459 575 459 609 c 1
 343 124 l 1
 256 124 l 1
 132 609 l 1
 134 571 135 446 130 360 c 2
 112 0 l 1
 30 0 l 1
 69 689 l 1
 190 689 l 1
 302 217 l 1
 409 689 l 1
 531 689 l 1
EndSplineSet
Validated: 33
EndChar

StartChar: N
Encoding: 78 78 66
Width: 600
GlyphClass: 2
Flags: MW
HStem: 0 21G<83 164 83 83 395 517 395 395> 0 81<448 448 448 517 395 448> 605 84<152 152> 669 20G<83 201 201 201 436 517 517 517>
VStem: 83 81<0 345 0 689> 436 81<344 689 0 689>
AnchorPoint: "Anchor-5" 299 689 basechar 0
AnchorPoint: "Anchor-4" 300 0 basechar 0
LayerCount: 2
Fore
SplineSet
395 0 m 1x9c
 152 605 l 1xac
 154 575 164 451 164 345 c 2
 164 0 l 1
 83 0 l 1
 83 689 l 1
 201 689 l 1
 448 81 l 1x5c
 447 109 436 220 436 344 c 2
 436 689 l 1
 517 689 l 1
 517 0 l 1
 395 0 l 1x9c
EndSplineSet
Validated: 1
EndChar

StartChar: Nacute
Encoding: 323 323 67
Width: 600
GlyphClass: 2
Flags: MW
HStem: 0 21G<83 164 83 83 395 517 395 395> 0 81<448 448 448 517 395 448> 605 84<152 152> 669 20G<83 201 201 201 436 517 517 517>
VStem: 83 81<0 345 0 689> 436 81<344 689 0 689>
AnchorPoint: "Anchor-5" 299 689 basechar 0
AnchorPoint: "Anchor-4" 300 0 basechar 0
LayerCount: 2
Fore
SplineSet
382 906 m 1x9c
 419 834 l 1
 206 755 l 1
 184 801 l 1
 382 906 l 1x9c
395 0 m 1
 152 605 l 1xac
 154 575 164 451 164 345 c 2
 164 0 l 1
 83 0 l 1
 83 689 l 1
 201 689 l 1
 448 81 l 1x5c
 447 109 436 220 436 344 c 2
 436 689 l 1
 517 689 l 1
 517 0 l 1
 395 0 l 1
EndSplineSet
Validated: 1
Substitution2: "'locl' Localized Forms in Latin lookup 7 subtable" Nacute.loclPLK
Substitution2: "'aalt' Access All Alternates in Latin lookup 0 subtable" Nacute.loclPLK
EndChar

StartChar: Ncaron
Encoding: 327 327 68
Width: 600
GlyphClass: 2
Flags: MW
HStem: 0 21G<83 164 83 83 395 517 395 395> 0 81<448 448 448 517 395 448> 605 84<152 152> 669 20G<83 201 201 201 436 517 517 517>
VStem: 83 81<0 345 0 689> 436 81<344 689 0 689>
AnchorPoint: "Anchor-5" 299 689 basechar 0
AnchorPoint: "Anchor-4" 300 0 basechar 0
LayerCount: 2
Fore
SplineSet
425 905 m 1x9c
 462 862 l 1
 328 754 l 1
 271 754 l 1
 136 862 l 1
 174 905 l 1
 299 824 l 1
 425 905 l 1x9c
395 0 m 1
 152 605 l 1xac
 154 575 164 451 164 345 c 2
 164 0 l 1
 83 0 l 1
 83 689 l 1
 201 689 l 1
 448 81 l 1x5c
 447 109 436 220 436 344 c 2
 436 689 l 1
 517 689 l 1
 517 0 l 1
 395 0 l 1
EndSplineSet
Validated: 1
EndChar

StartChar: Ncommaaccent
Encoding: 325 325 69
Width: 600
GlyphClass: 2
Flags: MW
HStem: 0 21G<83 164 83 83 395 517 395 395> 0 81<448 448 448 517 395 448> 605 84<152 152> 669 20G<83 201 201 201 436 517 517 517>
VStem: 83 81<0 345 0 689> 249 109<-132.5 -109 -132.5 -108.5> 436 81<344 689 0 689>
AnchorPoint: "Anchor-5" 299 689 basechar 0
AnchorPoint: "Anchor-4" 300 0 basechar 0
LayerCount: 2
Fore
SplineSet
395 0 m 1x9a
 152 605 l 1xae
 154 575 164 451 164 345 c 2
 164 0 l 1
 83 0 l 1
 83 689 l 1
 201 689 l 1
 448 81 l 1x5a
 447 109 436 220 436 344 c 2
 436 689 l 1
 517 689 l 1
 517 0 l 1
 395 0 l 1x9a
303 -71 m 0
 334 -71 358 -94 358 -124 c 0
 358 -141 353 -156 343 -179 c 2
 292 -286 l 1
 242 -286 l 1
 271 -169 l 1
 257 -158 249 -142 249 -124 c 0
 249 -93 273 -71 303 -71 c 0
EndSplineSet
Validated: 1
EndChar

StartChar: Eng
Encoding: 330 330 70
Width: 600
GlyphClass: 2
Flags: MW
HStem: -212 70<351 388 351 416> 0 21G<83 164 83 83 395 430 395 395> 605 84<152 152> 669 20G<83 201 201 201 436 517 517 517>
VStem: 83 81<0 345 0 689> 436 81<344 689>
AnchorPoint: "Anchor-5" 299 689 basechar 0
AnchorPoint: "Anchor-4" 300 0 basechar 0
LayerCount: 2
Fore
SplineSet
517 -62 m 2xdc
 517 -162 460 -212 372 -212 c 0
 320 -212 283 -193 259 -175 c 1
 293 -118 l 1
 316 -133 334 -142 368 -142 c 0
 408 -142 430 -118 430 -67 c 2
 430 0 l 1
 395 0 l 1
 152 605 l 1xec
 154 575 164 451 164 345 c 2
 164 0 l 1
 83 0 l 1
 83 689 l 1
 201 689 l 1
 448 81 l 1
 447 109 436 220 436 344 c 2
 436 689 l 1
 517 689 l 1
 517 -62 l 2xdc
EndSplineSet
Validated: 1
EndChar

StartChar: Ntilde
Encoding: 209 209 71
Width: 600
GlyphClass: 2
Flags: MW
HStem: 0 21G<83 164 83 83 395 517 395 395> 0 81<448 448 448 517 395 448> 605 84<152 152> 669 20G<83 201 201 201 436 517 517 517> 778 64<337.5 366 337.5 377.5> 826 65<228.5 258>
VStem: 83 81<0 345 0 689> 436 81<344 689 0 689>
AnchorPoint: "Anchor-5" 299 689 basechar 0
AnchorPoint: "Anchor-4" 300 0 basechar 0
LayerCount: 2
Fore
SplineSet
356 778 m 0x9b
 304 778 276 826 240 826 c 0
 217 826 203 810 187 780 c 1
 134 806 l 1
 157 854 192 891 240 891 c 0x97
 296 891 319 842 356 842 c 0
 376 842 391 856 409 887 c 1
 463 860 l 1
 437 804 399 778 356 778 c 0x9b
395 0 m 1x97
 152 605 l 1xa7
 154 575 164 451 164 345 c 2
 164 0 l 1
 83 0 l 1
 83 689 l 1
 201 689 l 1
 448 81 l 1x57
 447 109 436 220 436 344 c 2
 436 689 l 1
 517 689 l 1
 517 0 l 1
 395 0 l 1x97
EndSplineSet
Validated: 1
EndChar

StartChar: O
Encoding: 79 79 72
Width: 600
GlyphClass: 2
Flags: MW
HStem: -11 73<243.5 358 243.5 383.5> 627 73<242 358>
VStem: 47 90<251 434.5 251 447> 463 90<252 435.5>
AnchorPoint: "Anchor-5" 300 689 basechar 0
AnchorPoint: "Anchor-4" 300 0 basechar 0
LayerCount: 2
Fore
SplineSet
553 344 m 0
 553 135 467 -11 300 -11 c 0
 133 -11 47 130 47 343 c 0
 47 551 133 700 300 700 c 0
 467 700 553 556 553 344 c 0
463 344 m 0
 463 527 416 627 300 627 c 0
 184 627 137 526 137 343 c 0
 137 159 187 62 300 62 c 0
 416 62 463 160 463 344 c 0
EndSplineSet
Validated: 1
Substitution2: "Single Substitution lookup 29 subtable" ordmasculine
Substitution2: "'aalt' Access All Alternates in Latin lookup 0 subtable" ordmasculine
EndChar

StartChar: Oacute
Encoding: 211 211 73
Width: 600
GlyphClass: 2
Flags: MW
HStem: -11 73<243.5 358 243.5 383.5> 627 73<242 358>
VStem: 47 90<251 434.5 251 447> 463 90<252 435.5>
AnchorPoint: "Anchor-5" 300 689 basechar 0
AnchorPoint: "Anchor-4" 300 0 basechar 0
LayerCount: 2
Fore
SplineSet
383 906 m 1
 420 834 l 1
 207 755 l 1
 185 801 l 1
 383 906 l 1
553 344 m 0
 553 135 467 -11 300 -11 c 0
 133 -11 47 130 47 343 c 0
 47 551 133 700 300 700 c 0
 467 700 553 556 553 344 c 0
463 344 m 0
 463 527 416 627 300 627 c 0
 184 627 137 526 137 343 c 0
 137 159 187 62 300 62 c 0
 416 62 463 160 463 344 c 0
EndSplineSet
Validated: 1
Substitution2: "'locl' Localized Forms in Latin lookup 7 subtable" Oacute.loclPLK
Substitution2: "'aalt' Access All Alternates in Latin lookup 0 subtable" Oacute.loclPLK
EndChar

StartChar: Obreve
Encoding: 334 334 74
Width: 600
GlyphClass: 2
Flags: MW
HStem: -11 73<243.5 358 243.5 383.5> 627 73<242 358> 759 65<274.5 321.5 274.5 336.5>
VStem: 47 90<251 434.5 251 447> 463 90<252 435.5>
AnchorPoint: "Anchor-5" 300 689 basechar 0
AnchorPoint: "Anchor-4" 300 0 basechar 0
LayerCount: 2
Fore
SplineSet
298 759 m 0
 222 759 158 805 151 878 c 1
 208 891 l 1
 223 851 251 824 298 824 c 0
 345 824 377 851 391 891 c 1
 449 878 l 1
 441 805 375 759 298 759 c 0
553 344 m 0
 553 135 467 -11 300 -11 c 0
 133 -11 47 130 47 343 c 0
 47 551 133 700 300 700 c 0
 467 700 553 556 553 344 c 0
463 344 m 0
 463 527 416 627 300 627 c 0
 184 627 137 526 137 343 c 0
 137 159 187 62 300 62 c 0
 416 62 463 160 463 344 c 0
EndSplineSet
Validated: 1
EndChar

StartChar: Ocircumflex
Encoding: 212 212 75
Width: 600
GlyphClass: 2
Flags: MW
HStem: -11 73<243.5 358 243.5 383.5> 627 73<242 358>
VStem: 47 90<251 434.5 251 447> 463 90<252 435.5>
AnchorPoint: "Anchor-5" 300 689 basechar 0
AnchorPoint: "Anchor-4" 300 0 basechar 0
LayerCount: 2
Fore
SplineSet
329 910 m 1
 463 803 l 1
 426 760 l 1
 300 841 l 1
 175 760 l 1
 137 803 l 1
 272 910 l 1
 329 910 l 1
553 344 m 0
 553 135 467 -11 300 -11 c 0
 133 -11 47 130 47 343 c 0
 47 551 133 700 300 700 c 0
 467 700 553 556 553 344 c 0
463 344 m 0
 463 527 416 627 300 627 c 0
 184 627 137 526 137 343 c 0
 137 159 187 62 300 62 c 0
 416 62 463 160 463 344 c 0
EndSplineSet
Validated: 1
EndChar

StartChar: Odieresis
Encoding: 214 214 76
Width: 600
GlyphClass: 2
Flags: MW
HStem: -11 73<243.5 358 243.5 383.5> 627 73<242 358> 767 108<180.5 211.5 387.5 418.5>
VStem: 47 90<251 434.5 251 447> 141 109<805 836> 349 109<805 836> 463 90<252 435.5>
AnchorPoint: "Anchor-5" 300 820 basechar 0
AnchorPoint: "Anchor-4" 300 0 basechar 0
LayerCount: 2
Fore
SplineSet
196 767 m 0
 165 767 141 790 141 820 c 0
 141 852 165 875 196 875 c 0
 227 875 250 852 250 820 c 0
 250 790 227 767 196 767 c 0
403 767 m 0
 372 767 349 790 349 820 c 0
 349 852 372 875 403 875 c 0
 434 875 458 852 458 820 c 0
 458 790 434 767 403 767 c 0
553 344 m 0xd2
 553 135 467 -11 300 -11 c 0
 133 -11 47 130 47 343 c 0
 47 551 133 700 300 700 c 0
 467 700 553 556 553 344 c 0xd2
463 344 m 0
 463 527 416 627 300 627 c 0
 184 627 137 526 137 343 c 0
 137 159 187 62 300 62 c 0
 416 62 463 160 463 344 c 0
EndSplineSet
Validated: 1
EndChar

StartChar: Ograve
Encoding: 210 210 77
Width: 600
GlyphClass: 2
Flags: MW
HStem: -11 73<243.5 358 243.5 383.5> 627 73<242 358>
VStem: 47 90<251 434.5 251 447> 463 90<252 435.5>
AnchorPoint: "Anchor-5" 300 689 basechar 0
AnchorPoint: "Anchor-4" 300 0 basechar 0
LayerCount: 2
Fore
SplineSet
231 909 m 1
 416 801 l 1
 390 755 l 1
 185 837 l 1
 231 909 l 1
553 344 m 0
 553 135 467 -11 300 -11 c 0
 133 -11 47 130 47 343 c 0
 47 551 133 700 300 700 c 0
 467 700 553 556 553 344 c 0
463 344 m 0
 463 527 416 627 300 627 c 0
 184 627 137 526 137 343 c 0
 137 159 187 62 300 62 c 0
 416 62 463 160 463 344 c 0
EndSplineSet
Validated: 1
EndChar

StartChar: Ohungarumlaut
Encoding: 336 336 78
Width: 600
GlyphClass: 2
Flags: MW
HStem: -11 73<243.5 358 243.5 383.5> 627 73<242 358>
VStem: 47 90<251 434.5 251 447> 463 90<252 435.5>
AnchorPoint: "Anchor-5" 300 689 basechar 0
AnchorPoint: "Anchor-4" 300 0 basechar 0
LayerCount: 2
Fore
SplineSet
182 781 m 1
 260 955 l 1
 335 919 l 1
 238 755 l 1
 182 781 l 1
347 781 m 1
 434 955 l 1
 508 916 l 1
 400 753 l 1
 347 781 l 1
553 344 m 0
 553 135 467 -11 300 -11 c 0
 133 -11 47 130 47 343 c 0
 47 551 133 700 300 700 c 0
 467 700 553 556 553 344 c 0
463 344 m 0
 463 527 416 627 300 627 c 0
 184 627 137 526 137 343 c 0
 137 159 187 62 300 62 c 0
 416 62 463 160 463 344 c 0
EndSplineSet
Validated: 1
EndChar

StartChar: Omacron
Encoding: 332 332 79
Width: 600
GlyphClass: 2
Flags: MW
HStem: -11 73<243.5 358 243.5 383.5> 627 73<242 358> 795 64<165 434 165 434>
VStem: 47 90<251 434.5 251 447> 165 269<795 859 795 859> 463 90<252 435.5>
AnchorPoint: "Anchor-5" 300 689 basechar 0
AnchorPoint: "Anchor-4" 300 0 basechar 0
LayerCount: 2
Fore
SplineSet
434 795 m 1
 165 795 l 1
 165 859 l 1
 434 859 l 1
 434 795 l 1
553 344 m 0xf4
 553 135 467 -11 300 -11 c 0
 133 -11 47 130 47 343 c 0
 47 551 133 700 300 700 c 0
 467 700 553 556 553 344 c 0xf4
463 344 m 0
 463 527 416 627 300 627 c 0
 184 627 137 526 137 343 c 0
 137 159 187 62 300 62 c 0
 416 62 463 160 463 344 c 0
EndSplineSet
Validated: 1
EndChar

StartChar: Oslash
Encoding: 216 216 80
Width: 600
GlyphClass: 2
Flags: MW
HStem: -11 73<291 357.5 291 383.5> -4 21G<237 237> 627 73<242 309> 672 20G<365 365>
VStem: 47 91<279.5 434.5 279.5 447> 462 91<252 408>
AnchorPoint: "Anchor-5" 300 689 basechar 0
AnchorPoint: "Anchor-4" 300 0 basechar 0
LayerCount: 2
Fore
SplineSet
434 659 m 1xac
 513 602 553 489 553 344 c 0
 553 135 467 -11 300 -11 c 0xac
 277 -11 256 -9 237 -4 c 1
 204 -110 l 1
 129 -91 l 1
 167 28 l 1
 87 85 47 197 47 343 c 0
 47 551 133 700 300 700 c 0x6c
 323 700 345 697 365 692 c 1x9c
 397 803 l 1
 472 783 l 1
 434 659 l 1xac
138 343 m 0
 138 216 157 139 198 98 c 1
 349 621 l 1
 334 625 318 627 300 627 c 0
 184 627 138 526 138 343 c 0
300 62 m 0
 415 62 462 160 462 344 c 0
 462 472 444 550 402 591 c 1
 251 68 l 1
 266 64 282 62 300 62 c 0
EndSplineSet
Validated: 1
EndChar

StartChar: Oslashacute
Encoding: 510 510 81
Width: 600
GlyphClass: 2
Flags: MW
HStem: -11 73<291 357.5 291 383.5> -4 21G<237 237> 627 73<242 309> 672 20G<365 365>
VStem: 47 91<279.5 434.5 279.5 447> 462 91<252 408>
AnchorPoint: "Anchor-5" 300 689 basechar 0
AnchorPoint: "Anchor-4" 300 0 basechar 0
LayerCount: 2
Fore
SplineSet
420 834 m 1xac
 207 755 l 1
 185 801 l 1
 383 906 l 1
 420 834 l 1xac
434 659 m 1
 513 602 553 489 553 344 c 0
 553 135 467 -11 300 -11 c 0xac
 277 -11 256 -9 237 -4 c 1
 204 -110 l 1
 129 -91 l 1
 167 28 l 1
 87 85 47 197 47 343 c 0
 47 551 133 700 300 700 c 0x6c
 323 700 345 697 365 692 c 1x9c
 397 803 l 1
 472 783 l 1
 434 659 l 1
138 343 m 0
 138 216 157 139 198 98 c 1
 349 621 l 1
 334 625 318 627 300 627 c 0
 184 627 138 526 138 343 c 0
300 62 m 0
 415 62 462 160 462 344 c 0
 462 472 444 550 402 591 c 1
 251 68 l 1
 266 64 282 62 300 62 c 0
EndSplineSet
Validated: 1
EndChar

StartChar: Otilde
Encoding: 213 213 82
Width: 600
GlyphClass: 2
Flags: MW
HStem: -11 73<243.5 358 243.5 383.5> 627 73<242 358> 778 64<339.5 368 339.5 379.5> 826 65<230.5 260>
VStem: 47 90<251 434.5 251 447> 463 90<252 435.5>
AnchorPoint: "Anchor-5" 300 689 basechar 0
AnchorPoint: "Anchor-4" 300 0 basechar 0
LayerCount: 2
Fore
SplineSet
358 778 m 0xec
 306 778 278 826 242 826 c 0
 219 826 205 810 189 780 c 1
 136 806 l 1
 159 854 194 891 242 891 c 0xdc
 298 891 321 842 358 842 c 0
 378 842 393 856 411 887 c 1
 465 860 l 1
 439 804 401 778 358 778 c 0xec
553 344 m 0xdc
 553 135 467 -11 300 -11 c 0
 133 -11 47 130 47 343 c 0
 47 551 133 700 300 700 c 0
 467 700 553 556 553 344 c 0xdc
463 344 m 0
 463 527 416 627 300 627 c 0
 184 627 137 526 137 343 c 0
 137 159 187 62 300 62 c 0
 416 62 463 160 463 344 c 0
EndSplineSet
Validated: 1
EndChar

StartChar: OE
Encoding: 338 338 83
Width: 600
GlyphClass: 2
Flags: MW
HStem: -11 70<172 224> 0 59<172 617 172 280> 0 71<350 617 350 617 280 617> 314 71<419 573 419 573> 618 71<354 598 354 354> 628 61<170.5 608> 628 72<170.5 224 141 254>
VStem: -1 93<240.5 445 240.5 458> 333 86<314 314 314 385 314 445.5>
AnchorPoint: "Anchor-5" 300 689 basechar 0
AnchorPoint: "Anchor-4" 300 0 basechar 0
LayerCount: 2
Fore
SplineSet
212 700 m 0x9380
 236 700 259 696 283 689 c 1
 608 689 l 1
 598 618 l 1
 354 618 l 1
 391 574 414 499 419 385 c 1
 573 385 l 1
 573 314 l 1
 419 314 l 1
 416 196 391 118 350 71 c 1
 617 71 l 1
 617 0 l 1
 280 0 l 1x3980
 258 -7 236 -11 212 -11 c 0
 69 -11 -1 108 -1 343 c 0
 -1 573 70 700 212 700 c 0x9380
211 628 m 0x5580
 130 628 92 547 92 343 c 0
 92 138 133 59 211 59 c 0
 295 59 333 139 333 344 c 0
 333 547 297 628 211 628 c 0x5580
EndSplineSet
Validated: 1
EndChar

StartChar: P
Encoding: 80 80 84
Width: 600
GlyphClass: 2
Flags: MW
HStem: 0 21G<116 202 116 116> 256 69<202 291 202 299> 620 69<202 291 291 302 202 202>
VStem: 116 86<0 256 0 325 325 620> 464 93<417 529>
AnchorPoint: "Anchor-5" 300 689 basechar 0
AnchorPoint: "Anchor-4" 300 0 basechar 0
LayerCount: 2
Fore
SplineSet
557 477 m 0
 557 316 446 256 291 256 c 2
 202 256 l 1
 202 0 l 1
 116 0 l 1
 116 689 l 1
 291 689 l 2
 456 689 557 621 557 477 c 0
464 476 m 0
 464 582 395 620 302 620 c 2
 202 620 l 1
 202 325 l 1
 299 325 l 2
 394 325 464 358 464 476 c 0
EndSplineSet
Validated: 1
EndChar

StartChar: Thorn
Encoding: 222 222 85
Width: 600
GlyphClass: 2
Flags: MW
HStem: 0 21G<107 194 107 107> 128 70<194 292 194 303> 503 69<194 292 292 303 194 292> 503 186<107 303 107 194>
VStem: 107 87<0 128 0 198 198 503 572 689> 464 92<292.5 406.5>
AnchorPoint: "Anchor-5" 300 689 basechar 0
AnchorPoint: "Anchor-4" 300 0 basechar 0
LayerCount: 2
Fore
SplineSet
194 689 m 1xdc
 194 572 l 1
 292 572 l 2xec
 458 572 556 504 556 355 c 0
 556 194 446 128 292 128 c 2
 194 128 l 1
 194 0 l 1
 107 0 l 1
 107 689 l 1
 194 689 l 1xdc
303 503 m 2
 194 503 l 1
 194 198 l 1
 303 198 l 2
 398 198 464 232 464 353 c 0
 464 460 399 503 303 503 c 2
EndSplineSet
Validated: 1
EndChar

StartChar: Q
Encoding: 81 81 86
Width: 600
GlyphClass: 2
Flags: MW
HStem: -10 72<243.5 349.5> 627 73<242 358>
VStem: 45 91<251 434.5 251 447> 463 91<271 435.5>
AnchorPoint: "Anchor-5" 300 689 basechar 0
AnchorPoint: "Anchor-4" 300 0 basechar 0
LayerCount: 2
Fore
SplineSet
554 344 m 0
 554 198 517 85 411 27 c 1
 508 7 559 -36 593 -137 c 1
 501 -173 l 1
 459 -67 409 -10 290 -10 c 0
 132 -10 45 130 45 343 c 0
 45 551 132 700 300 700 c 0
 467 700 554 556 554 344 c 0
463 344 m 0
 463 527 416 627 300 627 c 0
 184 627 136 526 136 343 c 0
 136 159 187 62 300 62 c 0
 416 62 463 160 463 344 c 0
EndSplineSet
Validated: 1
EndChar

StartChar: R
Encoding: 82 82 87
Width: 600
GlyphClass: 2
Flags: MW
HStem: 0 21G<102 188 102 102 470 574 470 470> 295 68<188 281 188 289> 619 70<188 278 278 288 188 188>
VStem: 102 86<0 295 0 363 363 619> 445 92<447.5 539.5>
AnchorPoint: "Anchor-5" 300 689 basechar 0
AnchorPoint: "Anchor-4" 299 0 basechar 0
LayerCount: 2
Fore
SplineSet
537 495 m 0
 537 392 464 329 369 305 c 1
 574 0 l 1
 470 0 l 1
 281 295 l 1
 188 295 l 1
 188 0 l 1
 102 0 l 1
 102 689 l 1
 278 689 l 2
 448 689 537 623 537 495 c 0
445 495 m 0
 445 584 394 619 288 619 c 2
 188 619 l 1
 188 363 l 1
 289 363 l 2
 388 363 445 400 445 495 c 0
EndSplineSet
Validated: 1
EndChar

StartChar: Racute
Encoding: 340 340 88
Width: 600
GlyphClass: 2
Flags: MW
HStem: 0 21G<102 188 102 102 470 574 470 470> 295 68<188 281 188 289> 619 70<188 278 278 288 188 188>
VStem: 102 86<0 295 0 363 363 619> 445 92<447.5 539.5>
AnchorPoint: "Anchor-5" 300 689 basechar 0
AnchorPoint: "Anchor-4" 299 0 basechar 0
LayerCount: 2
Fore
SplineSet
383 906 m 1
 420 834 l 1
 207 755 l 1
 185 801 l 1
 383 906 l 1
537 495 m 0
 537 392 464 329 369 305 c 1
 574 0 l 1
 470 0 l 1
 281 295 l 1
 188 295 l 1
 188 0 l 1
 102 0 l 1
 102 689 l 1
 278 689 l 2
 448 689 537 623 537 495 c 0
445 495 m 0
 445 584 394 619 288 619 c 2
 188 619 l 1
 188 363 l 1
 289 363 l 2
 388 363 445 400 445 495 c 0
EndSplineSet
Validated: 1
EndChar

StartChar: Rcaron
Encoding: 344 344 89
Width: 600
GlyphClass: 2
Flags: MW
HStem: 0 21G<102 188 102 102 470 574 470 470> 295 68<188 281 188 289> 619 70<188 278 278 288 188 188>
VStem: 102 86<0 295 0 363 363 619> 445 92<447.5 539.5>
AnchorPoint: "Anchor-5" 300 689 basechar 0
AnchorPoint: "Anchor-4" 299 0 basechar 0
LayerCount: 2
Fore
SplineSet
426 905 m 1
 463 862 l 1
 329 754 l 1
 272 754 l 1
 137 862 l 1
 175 905 l 1
 300 824 l 1
 426 905 l 1
537 495 m 0
 537 392 464 329 369 305 c 1
 574 0 l 1
 470 0 l 1
 281 295 l 1
 188 295 l 1
 188 0 l 1
 102 0 l 1
 102 689 l 1
 278 689 l 2
 448 689 537 623 537 495 c 0
445 495 m 0
 445 584 394 619 288 619 c 2
 188 619 l 1
 188 363 l 1
 289 363 l 2
 388 363 445 400 445 495 c 0
EndSplineSet
Validated: 1
EndChar

StartChar: Rcommaaccent
Encoding: 342 342 90
Width: 600
GlyphClass: 2
Flags: MW
HStem: 0 21G<102 188 102 102 470 574 470 470> 295 68<188 281 188 289> 619 70<188 278 278 288 188 188>
VStem: 102 86<0 295 0 363 363 619> 248 109<-132.5 -109 -132.5 -108.5> 445 92<447.5 539.5>
AnchorPoint: "Anchor-5" 300 689 basechar 0
AnchorPoint: "Anchor-4" 299 0 basechar 0
LayerCount: 2
Fore
SplineSet
537 495 m 0
 537 392 464 329 369 305 c 1
 574 0 l 1
 470 0 l 1
 281 295 l 1
 188 295 l 1
 188 0 l 1
 102 0 l 1
 102 689 l 1
 278 689 l 2
 448 689 537 623 537 495 c 0
445 495 m 0
 445 584 394 619 288 619 c 2
 188 619 l 1
 188 363 l 1
 289 363 l 2
 388 363 445 400 445 495 c 0
302 -71 m 0
 333 -71 357 -94 357 -124 c 0
 357 -141 352 -156 342 -179 c 2
 291 -286 l 1
 241 -286 l 1
 270 -169 l 1
 256 -158 248 -142 248 -124 c 0
 248 -93 272 -71 302 -71 c 0
EndSplineSet
Validated: 1
EndChar

StartChar: S
Encoding: 83 83 91
Width: 600
GlyphClass: 2
Flags: MW
HStem: -11 72<244 328 244 365> 627 73<262 329>
VStem: 74 88<495.5 559.5 495.5 574> 446 91<145.5 222.5>
AnchorPoint: "Anchor-5" 306 689 basechar 0
AnchorPoint: "Anchor-4" 297 0 basechar 0
LayerCount: 2
Fore
SplineSet
537 191 m 0
 537 72 445 -11 285 -11 c 0
 184 -11 101 20 43 76 c 1
 95 135 l 1
 143 90 202 61 286 61 c 0
 370 61 446 102 446 189 c 0
 446 256 414 289 296 323 c 0
 159 363 74 413 74 522 c 0
 74 626 165 700 297 700 c 0
 391 700 459 671 517 621 c 1
 465 565 l 1
 416 608 358 627 300 627 c 0
 224 627 162 594 162 525 c 0
 162 466 204 436 335 398 c 0
 443 367 537 322 537 191 c 0
EndSplineSet
Validated: 1
EndChar

StartChar: Sacute
Encoding: 346 346 92
Width: 600
GlyphClass: 2
Flags: MW
HStem: -11 72<244 328 244 365> 627 73<262 329>
VStem: 74 88<495.5 559.5 495.5 574> 446 91<145.5 222.5>
AnchorPoint: "Anchor-5" 306 689 basechar 0
AnchorPoint: "Anchor-4" 297 0 basechar 0
LayerCount: 2
Fore
SplineSet
388 906 m 1
 425 834 l 1
 212 755 l 1
 190 801 l 1
 388 906 l 1
537 191 m 0
 537 72 445 -11 285 -11 c 0
 184 -11 101 20 43 76 c 1
 95 135 l 1
 143 90 202 61 286 61 c 0
 370 61 446 102 446 189 c 0
 446 256 414 289 296 323 c 0
 159 363 74 413 74 522 c 0
 74 626 165 700 297 700 c 0
 391 700 459 671 517 621 c 1
 465 565 l 1
 416 608 358 627 300 627 c 0
 224 627 162 594 162 525 c 0
 162 466 204 436 335 398 c 0
 443 367 537 322 537 191 c 0
EndSplineSet
Validated: 1
Substitution2: "'locl' Localized Forms in Latin lookup 7 subtable" Sacute.loclPLK
Substitution2: "'aalt' Access All Alternates in Latin lookup 0 subtable" Sacute.loclPLK
EndChar

StartChar: Scaron
Encoding: 352 352 93
Width: 600
GlyphClass: 2
Flags: MW
HStem: -11 72<244 328 244 365> 627 73<262 329>
VStem: 74 88<495.5 559.5 495.5 574> 446 91<145.5 222.5>
AnchorPoint: "Anchor-5" 306 689 basechar 0
AnchorPoint: "Anchor-4" 297 0 basechar 0
LayerCount: 2
Fore
SplineSet
432 905 m 1
 469 862 l 1
 335 754 l 1
 278 754 l 1
 143 862 l 1
 181 905 l 1
 306 824 l 1
 432 905 l 1
537 191 m 0
 537 72 445 -11 285 -11 c 0
 184 -11 101 20 43 76 c 1
 95 135 l 1
 143 90 202 61 286 61 c 0
 370 61 446 102 446 189 c 0
 446 256 414 289 296 323 c 0
 159 363 74 413 74 522 c 0
 74 626 165 700 297 700 c 0
 391 700 459 671 517 621 c 1
 465 565 l 1
 416 608 358 627 300 627 c 0
 224 627 162 594 162 525 c 0
 162 466 204 436 335 398 c 0
 443 367 537 322 537 191 c 0
EndSplineSet
Validated: 1
EndChar

StartChar: Scedilla
Encoding: 350 350 94
Width: 600
GlyphClass: 2
Flags: MW
HStem: -238 56<268 295 266 320> -97 40<251 317> -11 72<257 257> -10 71<317 317> 627 73<262 329>
VStem: 74 88<495.5 559.5 495.5 574> 254 63 337 73<-155.5 -122.5> 446 91<145.5 222.5>
AnchorPoint: "Anchor-5" 306 689 basechar 0
AnchorPoint: "Anchor-4" 297 0 basechar 0
LayerCount: 2
Fore
SplineSet
537 191 m 0xde80
 537 80 457 0 317 -10 c 1
 317 -57 l 1xde80
 382 -63 410 -101 410 -140 c 0
 410 -206 352 -238 288 -238 c 0
 248 -238 209 -229 183 -214 c 1
 210 -166 l 1
 229 -176 255 -182 277 -182 c 0
 313 -182 337 -170 337 -141 c 0xef80
 337 -104 304 -97 251 -97 c 1
 257 -11 l 1
 169 -5 96 26 43 76 c 1
 95 135 l 1
 143 90 202 61 286 61 c 0xee80
 370 61 446 102 446 189 c 0
 446 256 414 289 296 323 c 0
 159 363 74 413 74 522 c 0
 74 626 165 700 297 700 c 0
 391 700 459 671 517 621 c 1
 465 565 l 1
 416 608 358 627 300 627 c 0
 224 627 162 594 162 525 c 0
 162 466 204 436 335 398 c 0
 443 367 537 322 537 191 c 0xde80
EndSplineSet
Validated: 1
Substitution2: "'locl' Localized Forms in Latin lookup 5 subtable" Scommaaccent
Substitution2: "'locl' Localized Forms in Latin lookup 4 subtable" Scommaaccent
Substitution2: "'aalt' Access All Alternates in Latin lookup 0 subtable" Scommaaccent
EndChar

StartChar: Scircumflex
Encoding: 348 348 95
Width: 600
GlyphClass: 2
Flags: MW
HStem: -11 72<244 328 244 365> 627 73<262 329>
VStem: 74 88<495.5 559.5 495.5 574> 446 91<145.5 222.5>
AnchorPoint: "Anchor-5" 306 689 basechar 0
AnchorPoint: "Anchor-4" 297 0 basechar 0
LayerCount: 2
Fore
SplineSet
335 910 m 1
 469 803 l 1
 432 760 l 1
 306 841 l 1
 181 760 l 1
 143 803 l 1
 278 910 l 1
 335 910 l 1
537 191 m 0
 537 72 445 -11 285 -11 c 0
 184 -11 101 20 43 76 c 1
 95 135 l 1
 143 90 202 61 286 61 c 0
 370 61 446 102 446 189 c 0
 446 256 414 289 296 323 c 0
 159 363 74 413 74 522 c 0
 74 626 165 700 297 700 c 0
 391 700 459 671 517 621 c 1
 465 565 l 1
 416 608 358 627 300 627 c 0
 224 627 162 594 162 525 c 0
 162 466 204 436 335 398 c 0
 443 367 537 322 537 191 c 0
EndSplineSet
Validated: 1
EndChar

StartChar: Scommaaccent
Encoding: 536 536 96
Width: 600
GlyphClass: 2
Flags: MW
HStem: -11 72<244 328 244 365> 627 73<262 329>
VStem: 74 88<495.5 559.5 495.5 574> 246 109<-132.5 -109 -132.5 -108.5> 446 91<145.5 222.5>
AnchorPoint: "Anchor-5" 306 689 basechar 0
AnchorPoint: "Anchor-4" 297 0 basechar 0
LayerCount: 2
Fore
SplineSet
537 191 m 0
 537 72 445 -11 285 -11 c 0
 184 -11 101 20 43 76 c 1
 95 135 l 1
 143 90 202 61 286 61 c 0
 370 61 446 102 446 189 c 0
 446 256 414 289 296 323 c 0
 159 363 74 413 74 522 c 0
 74 626 165 700 297 700 c 0
 391 700 459 671 517 621 c 1
 465 565 l 1
 416 608 358 627 300 627 c 0
 224 627 162 594 162 525 c 0
 162 466 204 436 335 398 c 0
 443 367 537 322 537 191 c 0
300 -71 m 0
 331 -71 355 -94 355 -124 c 0
 355 -141 350 -156 340 -179 c 2
 289 -286 l 1
 239 -286 l 1
 268 -169 l 1
 254 -158 246 -142 246 -124 c 0
 246 -93 270 -71 300 -71 c 0
EndSplineSet
Validated: 1
EndChar

StartChar: T
Encoding: 84 84 97
Width: 600
GlyphClass: 2
Flags: MW
HStem: 0 21G<255 342 255 255> 614 75<40 255 40 559 342 550 342 342>
VStem: 255 87<0 614 0 614>
AnchorPoint: "Anchor-5" 299 689 basechar 0
AnchorPoint: "Anchor-4" 299 0 basechar 0
LayerCount: 2
Fore
SplineSet
342 614 m 1
 342 0 l 1
 255 0 l 1
 255 614 l 1
 40 614 l 1
 40 689 l 1
 559 689 l 1
 550 614 l 1
 342 614 l 1
EndSplineSet
Validated: 1
EndChar

StartChar: Tbar
Encoding: 358 358 98
Width: 600
GlyphClass: 2
Flags: MW
HStem: 0 21G<255 342 255 255> 350 67<125 255 125 255 342 473> 614 75<40 255 40 559 342 550 342 342>
VStem: 255 87<0 350 0 350 417 614>
AnchorPoint: "Anchor-5" 299 689 basechar 0
AnchorPoint: "Anchor-4" 299 0 basechar 0
LayerCount: 2
Fore
SplineSet
550 614 m 1
 342 614 l 1
 342 417 l 1
 473 417 l 1
 473 350 l 1
 342 350 l 1
 342 0 l 1
 255 0 l 1
 255 350 l 1
 125 350 l 1
 125 417 l 1
 255 417 l 1
 255 614 l 1
 40 614 l 1
 40 689 l 1
 559 689 l 1
 550 614 l 1
EndSplineSet
Validated: 1
EndChar

StartChar: Tcaron
Encoding: 356 356 99
Width: 600
GlyphClass: 2
Flags: MW
HStem: 0 21G<255 342 255 255> 614 75<40 255 40 559 342 550 342 342>
VStem: 255 87<0 614 0 614>
AnchorPoint: "Anchor-5" 299 689 basechar 0
AnchorPoint: "Anchor-4" 299 0 basechar 0
LayerCount: 2
Fore
SplineSet
425 905 m 1
 462 862 l 1
 328 754 l 1
 271 754 l 1
 136 862 l 1
 174 905 l 1
 299 824 l 1
 425 905 l 1
342 614 m 1
 342 0 l 1
 255 0 l 1
 255 614 l 1
 40 614 l 1
 40 689 l 1
 559 689 l 1
 550 614 l 1
 342 614 l 1
EndSplineSet
Validated: 1
EndChar

StartChar: uni0162
Encoding: 354 354 100
Width: 600
GlyphClass: 2
Flags: MW
HStem: -238 56<279 306 277 331> -97 40<262 328> 0 21G<255 269 255 255 328 342 328 328> 614 75<40 255 40 559 342 342 342 550>
VStem: 255 87<0 614> 348 73<-155.5 -122.5>
AnchorPoint: "Anchor-5" 299 689 basechar 0
AnchorPoint: "Anchor-4" 299 0 basechar 0
LayerCount: 2
Fore
SplineSet
342 0 m 1
 328 0 l 1
 328 -57 l 1xf8
 393 -63 421 -101 421 -140 c 0
 421 -206 363 -238 299 -238 c 0
 259 -238 220 -229 194 -214 c 1
 221 -166 l 1
 240 -176 266 -182 288 -182 c 0
 324 -182 348 -170 348 -141 c 0xf4
 348 -104 315 -97 262 -97 c 1
 269 0 l 1
 255 0 l 1
 255 614 l 1
 40 614 l 1
 40 689 l 1
 559 689 l 1
 550 614 l 1
 342 614 l 1
 342 0 l 1
EndSplineSet
Validated: 1
Substitution2: "'locl' Localized Forms in Latin lookup 5 subtable" uni021A
Substitution2: "'locl' Localized Forms in Latin lookup 4 subtable" uni021A
Substitution2: "'aalt' Access All Alternates in Latin lookup 0 subtable" uni021A
EndChar

StartChar: uni021A
Encoding: 538 538 101
Width: 600
GlyphClass: 2
Flags: MW
HStem: 0 21G<255 342 255 255> 614 75<40 255 40 559 342 550 342 342>
VStem: 255 87<0 614>
AnchorPoint: "Anchor-5" 299 689 basechar 0
AnchorPoint: "Anchor-4" 299 0 basechar 0
LayerCount: 2
Fore
SplineSet
342 614 m 1
 342 0 l 1
 255 0 l 1
 255 614 l 1
 40 614 l 1
 40 689 l 1
 559 689 l 1
 550 614 l 1
 342 614 l 1
302 -71 m 0
 333 -71 357 -94 357 -124 c 0
 357 -141 352 -156 342 -179 c 2
 291 -286 l 1
 241 -286 l 1
 270 -169 l 1
 256 -158 248 -142 248 -124 c 0
 248 -93 272 -71 302 -71 c 0
EndSplineSet
Validated: 1
EndChar

StartChar: U
Encoding: 85 85 102
Width: 600
GlyphClass: 2
Flags: MW
HStem: -11 75<254.5 344 254.5 368.5> 669 20G<72 159 159 159 440 528 528 528>
VStem: 72 87<223 689> 440 88<220 223 223 689>
AnchorPoint: "Anchor-5" 300 689 basechar 0
AnchorPoint: "Anchor-4" 300 0 basechar 0
LayerCount: 2
Fore
SplineSet
528 689 m 5
 528 223 l 6
 528 83 438 -11 299 -11 c 4
 157 -11 72 84 72 223 c 6
 72 689 l 5
 159 689 l 5
 159 220 l 6
 159 115 210 64 299 64 c 4
 389 64 440 115 440 220 c 6
 440 689 l 5
 528 689 l 5
EndSplineSet
Validated: 1
EndChar

StartChar: Uacute
Encoding: 218 218 103
Width: 600
GlyphClass: 2
Flags: MW
HStem: -11 75<254.5 344 254.5 368.5> 669 20G<72 159 159 159 440 528 528 528>
VStem: 72 87<223 689> 440 88<220 223 223 689>
AnchorPoint: "Anchor-5" 300 689 basechar 0
AnchorPoint: "Anchor-4" 300 0 basechar 0
LayerCount: 2
Fore
SplineSet
383 906 m 1
 420 834 l 1
 207 755 l 1
 185 801 l 1
 383 906 l 1
528 689 m 1
 528 223 l 2
 528 83 438 -11 299 -11 c 0
 157 -11 72 84 72 223 c 2
 72 689 l 1
 159 689 l 1
 159 220 l 2
 159 115 210 64 299 64 c 0
 389 64 440 115 440 220 c 2
 440 689 l 1
 528 689 l 1
EndSplineSet
Validated: 1
EndChar

StartChar: Ubreve
Encoding: 364 364 104
Width: 600
GlyphClass: 2
Flags: MW
HStem: -11 75<254.5 344 254.5 368.5> 669 20G<72 159 159 159 440 528 528 528> 759 65<274.5 321.5 274.5 336.5>
VStem: 72 87<223 689> 440 88<220 223 223 689>
AnchorPoint: "Anchor-5" 300 689 basechar 0
AnchorPoint: "Anchor-4" 300 0 basechar 0
LayerCount: 2
Fore
SplineSet
298 759 m 0
 222 759 158 805 151 878 c 1
 208 891 l 1
 223 851 251 824 298 824 c 0
 345 824 377 851 391 891 c 1
 449 878 l 1
 441 805 375 759 298 759 c 0
528 689 m 1
 528 223 l 2
 528 83 438 -11 299 -11 c 0
 157 -11 72 84 72 223 c 2
 72 689 l 1
 159 689 l 1
 159 220 l 2
 159 115 210 64 299 64 c 0
 389 64 440 115 440 220 c 2
 440 689 l 1
 528 689 l 1
EndSplineSet
Validated: 1
EndChar

StartChar: Ucircumflex
Encoding: 219 219 105
Width: 600
GlyphClass: 2
Flags: MW
HStem: -11 75<254.5 344 254.5 368.5> 669 20G<72 159 159 159 440 528 528 528>
VStem: 72 87<223 689> 440 88<220 223 223 689>
AnchorPoint: "Anchor-5" 300 689 basechar 0
AnchorPoint: "Anchor-4" 300 0 basechar 0
LayerCount: 2
Fore
SplineSet
329 910 m 1
 463 803 l 1
 426 760 l 1
 300 841 l 1
 175 760 l 1
 137 803 l 1
 272 910 l 1
 329 910 l 1
528 689 m 1
 528 223 l 2
 528 83 438 -11 299 -11 c 0
 157 -11 72 84 72 223 c 2
 72 689 l 1
 159 689 l 1
 159 220 l 2
 159 115 210 64 299 64 c 0
 389 64 440 115 440 220 c 2
 440 689 l 1
 528 689 l 1
EndSplineSet
Validated: 1
EndChar

StartChar: Udieresis
Encoding: 220 220 106
Width: 600
GlyphClass: 2
Flags: MW
HStem: -11 75<254.5 344 254.5 368.5> 669 20G<72 159 159 159 440 528 528 528> 767 108<180.5 211.5 387.5 418.5>
VStem: 72 87<223 689> 141 109<805 836> 349 109<805 836> 440 88<220 223 223 689>
AnchorPoint: "Anchor-5" 300 820 basechar 0
AnchorPoint: "Anchor-4" 300 0 basechar 0
LayerCount: 2
Fore
SplineSet
196 767 m 0xec
 165 767 141 790 141 820 c 0
 141 852 165 875 196 875 c 0
 227 875 250 852 250 820 c 0
 250 790 227 767 196 767 c 0xec
403 767 m 0
 372 767 349 790 349 820 c 0
 349 852 372 875 403 875 c 0
 434 875 458 852 458 820 c 0
 458 790 434 767 403 767 c 0
528 689 m 1xf2
 528 223 l 2
 528 83 438 -11 299 -11 c 0
 157 -11 72 84 72 223 c 2
 72 689 l 1
 159 689 l 1
 159 220 l 2
 159 115 210 64 299 64 c 0
 389 64 440 115 440 220 c 2
 440 689 l 1
 528 689 l 1xf2
EndSplineSet
Validated: 1
EndChar

StartChar: Ugrave
Encoding: 217 217 107
Width: 600
GlyphClass: 2
Flags: MW
HStem: -11 75<254.5 344 254.5 368.5> 669 20G<72 159 159 159 440 528 528 528>
VStem: 72 87<223 689> 440 88<220 223 223 689>
AnchorPoint: "Anchor-5" 300 689 basechar 0
AnchorPoint: "Anchor-4" 300 0 basechar 0
LayerCount: 2
Fore
SplineSet
231 909 m 1
 416 801 l 1
 390 755 l 1
 185 837 l 1
 231 909 l 1
528 689 m 1
 528 223 l 2
 528 83 438 -11 299 -11 c 0
 157 -11 72 84 72 223 c 2
 72 689 l 1
 159 689 l 1
 159 220 l 2
 159 115 210 64 299 64 c 0
 389 64 440 115 440 220 c 2
 440 689 l 1
 528 689 l 1
EndSplineSet
Validated: 1
EndChar

StartChar: Uhungarumlaut
Encoding: 368 368 108
Width: 600
GlyphClass: 2
Flags: MW
HStem: -11 75<254.5 344 254.5 368.5> 669 20G<72 159 159 159 440 528 528 528>
VStem: 72 87<223 689> 440 88<220 223 223 689>
AnchorPoint: "Anchor-5" 300 689 basechar 0
AnchorPoint: "Anchor-4" 300 0 basechar 0
LayerCount: 2
Fore
SplineSet
182 781 m 1
 260 955 l 1
 335 919 l 1
 238 755 l 1
 182 781 l 1
347 781 m 1
 434 955 l 1
 508 916 l 1
 400 753 l 1
 347 781 l 1
528 689 m 1
 528 223 l 2
 528 83 438 -11 299 -11 c 0
 157 -11 72 84 72 223 c 2
 72 689 l 1
 159 689 l 1
 159 220 l 2
 159 115 210 64 299 64 c 0
 389 64 440 115 440 220 c 2
 440 689 l 1
 528 689 l 1
EndSplineSet
Validated: 1
EndChar

StartChar: Umacron
Encoding: 362 362 109
Width: 600
GlyphClass: 2
Flags: MW
HStem: -11 75<254.5 344 254.5 368.5> 669 20G<72 159 159 159 440 528 528 528> 795 64<165 434 165 434>
VStem: 72 87<223 689> 165 269<795 859 795 859> 440 88<220 223 223 689>
AnchorPoint: "Anchor-5" 300 689 basechar 0
AnchorPoint: "Anchor-4" 300 0 basechar 0
LayerCount: 2
Fore
SplineSet
434 795 m 1
 165 795 l 1
 165 859 l 1
 434 859 l 1
 434 795 l 1
528 689 m 1xf4
 528 223 l 2
 528 83 438 -11 299 -11 c 0
 157 -11 72 84 72 223 c 2
 72 689 l 1
 159 689 l 1
 159 220 l 2
 159 115 210 64 299 64 c 0
 389 64 440 115 440 220 c 2
 440 689 l 1
 528 689 l 1xf4
EndSplineSet
Validated: 1
EndChar

StartChar: Uogonek
Encoding: 370 370 110
Width: 600
GlyphClass: 2
Flags: MW
HStem: -229 67<287 310.5> -9 21G 669 20G<72 159 159 159 440 528 528 528>
VStem: 72 87<223 689> 175 77<-129 -107> 440 88<220 223 223 689>
AnchorPoint: "Anchor-5" 300 689 basechar 0
AnchorPoint: "Anchor-4" 300 0 basechar 0
LayerCount: 2
Fore
SplineSet
440 689 m 1
 528 689 l 1
 528 223 l 2
 528 110 469 26 372 -2 c 1
 273 -46 252 -79 252 -114 c 0
 252 -144 266 -162 308 -162 c 0
 329 -162 345 -160 369 -155 c 1
 361 -223 l 1
 340 -226 324 -229 297 -229 c 0
 221 -229 175 -187 175 -131 c 0xfc
 175 -83 202 -42 262 -9 c 1
 143 6 72 96 72 223 c 2
 72 689 l 1
 159 689 l 1
 159 220 l 2
 159 115 210 64 299 64 c 0
 389 64 440 115 440 220 c 2
 440 689 l 1
EndSplineSet
Validated: 1
EndChar

StartChar: Uring
Encoding: 366 366 111
Width: 600
GlyphClass: 2
Flags: MW
HStem: -11 75<254.5 344 254.5 368.5> 669 20G<72 159 159 159 440 528 528 528> 738 45<283.5 317 283.5 332.5> 896 47<283.5 317>
VStem: 72 87<223 689> 189 57<822 857.5 822 868.5> 354 57<822 857.5> 440 88<220 223 223 689>
AnchorPoint: "Anchor-5" 300 689 basechar 0
AnchorPoint: "Anchor-4" 300 0 basechar 0
LayerCount: 2
Fore
SplineSet
300 943 m 0
 365 943 411 897 411 840 c 0
 411 783 365 738 300 738 c 0
 235 738 189 783 189 840 c 0
 189 897 235 943 300 943 c 0
300 896 m 0
 267 896 246 875 246 840 c 0
 246 804 267 783 300 783 c 0
 334 783 354 804 354 840 c 0
 354 875 334 896 300 896 c 0
528 689 m 1xf9
 528 223 l 2
 528 83 438 -11 299 -11 c 0
 157 -11 72 84 72 223 c 2
 72 689 l 1
 159 689 l 1
 159 220 l 2
 159 115 210 64 299 64 c 0
 389 64 440 115 440 220 c 2
 440 689 l 1
 528 689 l 1xf9
EndSplineSet
Validated: 1
EndChar

StartChar: Utilde
Encoding: 360 360 112
Width: 600
GlyphClass: 2
Flags: MW
HStem: -11 75<254.5 344 254.5 368.5> 669 20G<72 159 159 159 440 528 528 528> 778 64<339.5 368 339.5 379.5> 826 65<230.5 260>
VStem: 72 87<223 689> 440 88<220 223 223 689>
AnchorPoint: "Anchor-5" 300 689 basechar 0
AnchorPoint: "Anchor-4" 300 0 basechar 0
LayerCount: 2
Fore
SplineSet
358 778 m 0xec
 306 778 278 826 242 826 c 0
 219 826 205 810 189 780 c 1
 136 806 l 1
 159 854 194 891 242 891 c 0xdc
 298 891 321 842 358 842 c 0
 378 842 393 856 411 887 c 1
 465 860 l 1
 439 804 401 778 358 778 c 0xec
528 689 m 1xdc
 528 223 l 2
 528 83 438 -11 299 -11 c 0
 157 -11 72 84 72 223 c 2
 72 689 l 1
 159 689 l 1
 159 220 l 2
 159 115 210 64 299 64 c 0
 389 64 440 115 440 220 c 2
 440 689 l 1
 528 689 l 1xdc
EndSplineSet
Validated: 1
EndChar

StartChar: V
Encoding: 86 86 113
Width: 600
GlyphClass: 2
Flags: MW
HStem: 0 99<302 302 302 345 255 302> 669 20G<25 118 118 118 488 575 575 575>
VStem: 25 550<689 689>
AnchorPoint: "Anchor-5" 300 689 basechar 0
AnchorPoint: "Anchor-4" 300 0 basechar 0
LayerCount: 2
Fore
SplineSet
302 99 m 1
 488 689 l 1
 575 689 l 1
 345 0 l 1
 255 0 l 1
 25 689 l 1
 118 689 l 1
 302 99 l 1
EndSplineSet
Validated: 1
EndChar

StartChar: W
Encoding: 87 87 114
Width: 600
GlyphClass: 2
Flags: MW
HStem: 0 95<165 165 165 218 101 165> 669 20G<5 92 92 92 515 595 595 595>
VStem: 5 590<689 689>
AnchorPoint: "Anchor-5" 300 689 basechar 0
AnchorPoint: "Anchor-4" 300 0 basechar 0
LayerCount: 2
Fore
SplineSet
595 689 m 1
 491 0 l 1
 377 0 l 1
 298 520 l 1
 218 0 l 1
 101 0 l 1
 5 689 l 1
 92 689 l 1
 165 95 l 1
 248 609 l 1
 354 609 l 1
 433 95 l 1
 515 689 l 1
 595 689 l 1
EndSplineSet
Validated: 1
EndChar

StartChar: Wacute
Encoding: 7810 7810 115
Width: 600
GlyphClass: 2
Flags: MW
HStem: 0 95<165 165 165 218 101 165> 669 20G<5 92 92 92 515 595 595 595>
VStem: 5 590<689 689>
AnchorPoint: "Anchor-5" 300 689 basechar 0
AnchorPoint: "Anchor-4" 300 0 basechar 0
LayerCount: 2
Fore
SplineSet
383 906 m 1
 420 834 l 1
 207 755 l 1
 185 801 l 1
 383 906 l 1
595 689 m 1
 491 0 l 1
 377 0 l 1
 298 520 l 1
 218 0 l 1
 101 0 l 1
 5 689 l 1
 92 689 l 1
 165 95 l 1
 248 609 l 1
 354 609 l 1
 433 95 l 1
 515 689 l 1
 595 689 l 1
EndSplineSet
Validated: 1
EndChar

StartChar: Wcircumflex
Encoding: 372 372 116
Width: 600
GlyphClass: 2
Flags: MW
HStem: 0 95<165 165 165 218 101 165> 669 20G<5 92 92 92 515 595 595 595>
VStem: 5 590<689 689>
AnchorPoint: "Anchor-5" 300 689 basechar 0
AnchorPoint: "Anchor-4" 300 0 basechar 0
LayerCount: 2
Fore
SplineSet
329 910 m 1
 463 803 l 1
 426 760 l 1
 300 841 l 1
 175 760 l 1
 137 803 l 1
 272 910 l 1
 329 910 l 1
595 689 m 1
 491 0 l 1
 377 0 l 1
 298 520 l 1
 218 0 l 1
 101 0 l 1
 5 689 l 1
 92 689 l 1
 165 95 l 1
 248 609 l 1
 354 609 l 1
 433 95 l 1
 515 689 l 1
 595 689 l 1
EndSplineSet
Validated: 1
EndChar

StartChar: Wdieresis
Encoding: 7812 7812 117
Width: 600
GlyphClass: 2
Flags: MW
HStem: 0 95<165 165 165 218 101 165> 669 20G<5 92 92 92 515 595 595 595> 767 108<180.5 211.5 387.5 418.5>
VStem: 141 109<805 836> 349 109<805 836>
AnchorPoint: "Anchor-5" 300 820 basechar 0
AnchorPoint: "Anchor-4" 300 0 basechar 0
LayerCount: 2
Fore
SplineSet
196 767 m 0
 165 767 141 790 141 820 c 0
 141 852 165 875 196 875 c 0
 227 875 250 852 250 820 c 0
 250 790 227 767 196 767 c 0
403 767 m 0
 372 767 349 790 349 820 c 0
 349 852 372 875 403 875 c 0
 434 875 458 852 458 820 c 0
 458 790 434 767 403 767 c 0
595 689 m 1
 491 0 l 1
 377 0 l 1
 298 520 l 1
 218 0 l 1
 101 0 l 1
 5 689 l 1
 92 689 l 1
 165 95 l 1
 248 609 l 1
 354 609 l 1
 433 95 l 1
 515 689 l 1
 595 689 l 1
EndSplineSet
Validated: 1
EndChar

StartChar: Wgrave
Encoding: 7808 7808 118
Width: 600
GlyphClass: 2
Flags: MW
HStem: 0 95<165 165 165 218 101 165> 669 20G<5 92 92 92 515 595 595 595>
VStem: 5 590<689 689>
AnchorPoint: "Anchor-5" 300 689 basechar 0
AnchorPoint: "Anchor-4" 300 0 basechar 0
LayerCount: 2
Fore
SplineSet
231 909 m 1
 416 801 l 1
 390 755 l 1
 185 837 l 1
 231 909 l 1
595 689 m 1
 491 0 l 1
 377 0 l 1
 298 520 l 1
 218 0 l 1
 101 0 l 1
 5 689 l 1
 92 689 l 1
 165 95 l 1
 248 609 l 1
 354 609 l 1
 433 95 l 1
 515 689 l 1
 595 689 l 1
EndSplineSet
Validated: 1
EndChar

StartChar: X
Encoding: 88 88 119
Width: 600
GlyphClass: 2
Flags: MW
HStem: 0 21G<31 124 31 31 469 569 469 469> 669 20G<49 149 149 149 452 545 545 545>
VStem: 31 538<0 0>
AnchorPoint: "Anchor-5" 300 689 basechar 0
AnchorPoint: "Anchor-4" 300 0 basechar 0
LayerCount: 2
Fore
SplineSet
49 689 m 5
 149 689 l 5
 300 424 l 5
 452 689 l 5
 545 689 l 5
 350 372 l 5
 569 0 l 5
 469 0 l 5
 298 311 l 5
 124 0 l 5
 31 0 l 5
 247 367 l 5
 49 689 l 5
EndSplineSet
Validated: 1
EndChar

StartChar: Y
Encoding: 89 89 120
Width: 600
GlyphClass: 2
Flags: MW
HStem: 0 21G<256 344 256 256> 669 20G<23 119 119 119 487 577 577 577>
VStem: 256 88<0 265 265 265>
AnchorPoint: "Anchor-5" 303 689 basechar 0
AnchorPoint: "Anchor-4" 300 0 basechar 0
LayerCount: 2
Fore
SplineSet
344 266 m 1
 344 0 l 1
 256 0 l 1
 256 265 l 1
 23 689 l 1
 119 689 l 1
 302 343 l 1
 487 689 l 1
 577 689 l 1
 344 266 l 1
EndSplineSet
Validated: 1
EndChar

StartChar: Yacute
Encoding: 221 221 121
Width: 600
GlyphClass: 2
Flags: MW
HStem: 0 21G<256 344 256 256> 669 20G<23 119 119 119 487 577 577 577>
VStem: 256 88<0 265 265 265>
AnchorPoint: "Anchor-5" 303 689 basechar 0
AnchorPoint: "Anchor-4" 300 0 basechar 0
LayerCount: 2
Fore
SplineSet
386 906 m 1
 423 834 l 1
 210 755 l 1
 188 801 l 1
 386 906 l 1
344 266 m 1
 344 0 l 1
 256 0 l 1
 256 265 l 1
 23 689 l 1
 119 689 l 1
 302 343 l 1
 487 689 l 1
 577 689 l 1
 344 266 l 1
EndSplineSet
Validated: 1
EndChar

StartChar: Ycircumflex
Encoding: 374 374 122
Width: 600
GlyphClass: 2
Flags: MW
HStem: 0 21G<256 344 256 256> 669 20G<23 119 119 119 487 577 577 577>
VStem: 256 88<0 265 265 265>
AnchorPoint: "Anchor-5" 303 689 basechar 0
AnchorPoint: "Anchor-4" 300 0 basechar 0
LayerCount: 2
Fore
SplineSet
332 910 m 1
 466 803 l 1
 429 760 l 1
 303 841 l 1
 178 760 l 1
 140 803 l 1
 275 910 l 1
 332 910 l 1
344 266 m 1
 344 0 l 1
 256 0 l 1
 256 265 l 1
 23 689 l 1
 119 689 l 1
 302 343 l 1
 487 689 l 1
 577 689 l 1
 344 266 l 1
EndSplineSet
Validated: 1
EndChar

StartChar: Ydieresis
Encoding: 376 376 123
Width: 600
GlyphClass: 2
Flags: MW
HStem: 0 21G<256 344 256 256> 669 20G<23 119 119 119 487 577 577 577> 767 108<183.5 214.5 390.5 421.5>
VStem: 144 109<805 836> 256 88<0 265 265 265> 352 109<805 836>
AnchorPoint: "Anchor-5" 303 820 basechar 0
AnchorPoint: "Anchor-4" 300 0 basechar 0
LayerCount: 2
Fore
SplineSet
199 767 m 0
 168 767 144 790 144 820 c 0
 144 852 168 875 199 875 c 0
 230 875 253 852 253 820 c 0
 253 790 230 767 199 767 c 0
406 767 m 0
 375 767 352 790 352 820 c 0
 352 852 375 875 406 875 c 0
 437 875 461 852 461 820 c 0
 461 790 437 767 406 767 c 0
344 266 m 1xe8
 344 0 l 1
 256 0 l 1
 256 265 l 1
 23 689 l 1
 119 689 l 1
 302 343 l 1
 487 689 l 1
 577 689 l 1
 344 266 l 1xe8
EndSplineSet
Validated: 1
EndChar

StartChar: Ygrave
Encoding: 7922 7922 124
Width: 600
GlyphClass: 2
Flags: MW
HStem: 0 21G<256 344 256 256> 669 20G<23 119 119 119 487 577 577 577>
VStem: 256 88<0 265 265 265>
AnchorPoint: "Anchor-5" 303 689 basechar 0
AnchorPoint: "Anchor-4" 300 0 basechar 0
LayerCount: 2
Fore
SplineSet
234 909 m 1
 419 801 l 1
 393 755 l 1
 188 837 l 1
 234 909 l 1
344 266 m 1
 344 0 l 1
 256 0 l 1
 256 265 l 1
 23 689 l 1
 119 689 l 1
 302 343 l 1
 487 689 l 1
 577 689 l 1
 344 266 l 1
EndSplineSet
Validated: 1
EndChar

StartChar: Z
Encoding: 90 90 125
Width: 600
GlyphClass: 2
Flags: MW
HStem: 0 75<167 517> 614 75<108 435 108 528>
VStem: 72 456
AnchorPoint: "Anchor-5" 319 689 basechar 0
AnchorPoint: "Anchor-4" 300 0 basechar 0
LayerCount: 2
Fore
SplineSet
167 75 m 5
 527 75 l 5
 517 0 l 5
 72 0 l 5
 72 70 l 5
 435 614 l 5
 108 614 l 5
 108 689 l 5
 528 689 l 5
 528 617 l 5
 167 75 l 5
EndSplineSet
Validated: 1
EndChar

StartChar: Zacute
Encoding: 377 377 126
Width: 600
GlyphClass: 2
Flags: MW
HStem: 0 75<167 517> 614 75<108 435 108 528>
VStem: 72 456
AnchorPoint: "Anchor-5" 319 689 basechar 0
AnchorPoint: "Anchor-4" 300 0 basechar 0
LayerCount: 2
Fore
SplineSet
401 906 m 1
 438 834 l 1
 225 755 l 1
 203 801 l 1
 401 906 l 1
167 75 m 1
 527 75 l 1
 517 0 l 1
 72 0 l 1
 72 70 l 1
 435 614 l 1
 108 614 l 1
 108 689 l 1
 528 689 l 1
 528 617 l 1
 167 75 l 1
EndSplineSet
Validated: 1
Substitution2: "'locl' Localized Forms in Latin lookup 7 subtable" Zacute.loclPLK
Substitution2: "'aalt' Access All Alternates in Latin lookup 0 subtable" Zacute.loclPLK
EndChar

StartChar: Zcaron
Encoding: 381 381 127
Width: 600
GlyphClass: 2
Flags: MW
HStem: 0 75<167 517> 614 75<108 435 108 528>
VStem: 72 456
AnchorPoint: "Anchor-5" 319 689 basechar 0
AnchorPoint: "Anchor-4" 300 0 basechar 0
LayerCount: 2
Fore
SplineSet
445 905 m 1
 482 862 l 1
 348 754 l 1
 291 754 l 1
 156 862 l 1
 194 905 l 1
 319 824 l 1
 445 905 l 1
167 75 m 1
 527 75 l 1
 517 0 l 1
 72 0 l 1
 72 70 l 1
 435 614 l 1
 108 614 l 1
 108 689 l 1
 528 689 l 1
 528 617 l 1
 167 75 l 1
EndSplineSet
Validated: 1
EndChar

StartChar: Zdotaccent
Encoding: 379 379 128
Width: 600
GlyphClass: 2
Flags: MW
HStem: 0 75<167 517> 614 75<108 435 108 528> 774 118<299 335.5>
VStem: 257 121<816 850>
AnchorPoint: "Anchor-5" 319 689 basechar 0
AnchorPoint: "Anchor-4" 300 0 basechar 0
LayerCount: 2
Fore
SplineSet
317 892 m 0
 354 892 378 867 378 833 c 0
 378 799 354 774 317 774 c 0
 281 774 257 799 257 833 c 0
 257 867 281 892 317 892 c 0
167 75 m 1
 527 75 l 1
 517 0 l 1
 72 0 l 1
 72 70 l 1
 435 614 l 1
 108 614 l 1
 108 689 l 1
 528 689 l 1
 528 617 l 1
 167 75 l 1
EndSplineSet
Validated: 1
EndChar

StartChar: Cacute.loclPLK
Encoding: 1114113 -1 129
Width: 600
GlyphClass: 2
Flags: MW
HStem: -11 74<304 401.5 304 411> 627 73<308 390.5>
VStem: 63 91<242.5 450 242.5 461>
AnchorPoint: "Anchor-5" 365 689 basechar 0
AnchorPoint: "Anchor-4" 350 0 basechar 0
LayerCount: 2
Fore
SplineSet
420 915 m 1
 486 871 l 1
 356 728 l 1
 315 753 l 1
 420 915 l 1
358 700 m 0
 448 700 503 676 558 633 c 1
 509 576 l 1
 465 613 417 627 364 627 c 0
 252 627 154 555 154 345 c 0
 154 140 245 63 363 63 c 0
 440 63 486 91 523 120 c 1
 568 64 l 1
 526 23 460 -11 362 -11 c 0
 194 -11 63 113 63 345 c 0
 63 577 199 700 358 700 c 0
EndSplineSet
Validated: 1
EndChar

StartChar: Nacute.loclPLK
Encoding: 1114114 -1 130
Width: 600
GlyphClass: 2
Flags: MW
HStem: 0 21G<83 164 83 83 395 517 395 395> 0 81<448 448 448 517 395 448> 605 84<152 152> 669 20G<83 201 201 201 436 517 517 517>
VStem: 83 81<0 345 0 689> 436 81<344 689 0 689>
AnchorPoint: "Anchor-5" 299 689 basechar 0
AnchorPoint: "Anchor-4" 300 0 basechar 0
LayerCount: 2
Fore
SplineSet
353 915 m 5x9c
 419 871 l 1
 289 728 l 1
 248 753 l 1
 353 915 l 5x9c
395 0 m 1
 152 605 l 1xac
 154 575 164 451 164 345 c 2
 164 0 l 1
 83 0 l 1
 83 689 l 1
 201 689 l 1
 448 81 l 1x5c
 447 109 436 220 436 344 c 2
 436 689 l 1
 517 689 l 1
 517 0 l 1
 395 0 l 1
EndSplineSet
Validated: 1
EndChar

StartChar: Oacute.loclPLK
Encoding: 1114115 -1 131
Width: 600
GlyphClass: 2
Flags: MW
HStem: -11 73<243.5 358 243.5 383.5> 627 73<242 358>
VStem: 47 90<251 434.5 251 447> 463 90<252 435.5>
AnchorPoint: "Anchor-5" 300 689 basechar 0
AnchorPoint: "Anchor-4" 300 0 basechar 0
LayerCount: 2
Fore
SplineSet
355 915 m 1
 421 871 l 1
 291 728 l 1
 250 753 l 1
 355 915 l 1
553 344 m 0
 553 135 467 -11 300 -11 c 0
 133 -11 47 130 47 343 c 0
 47 551 133 700 300 700 c 0
 467 700 553 556 553 344 c 0
463 344 m 0
 463 527 416 627 300 627 c 0
 184 627 137 526 137 343 c 0
 137 159 187 62 300 62 c 0
 416 62 463 160 463 344 c 0
EndSplineSet
Validated: 1
EndChar

StartChar: Sacute.loclPLK
Encoding: 1114116 -1 132
Width: 600
GlyphClass: 2
Flags: MW
HStem: -11 72<244 328 244 365> 627 73<262 329>
VStem: 74 88<495.5 559.5 495.5 574> 446 91<145.5 222.5>
AnchorPoint: "Anchor-5" 306 689 basechar 0
AnchorPoint: "Anchor-4" 297 0 basechar 0
LayerCount: 2
Fore
SplineSet
360 915 m 1
 426 871 l 1
 296 728 l 1
 255 753 l 1
 360 915 l 1
537 191 m 0
 537 72 445 -11 285 -11 c 0
 184 -11 101 20 43 76 c 1
 95 135 l 1
 143 90 202 61 286 61 c 0
 370 61 446 102 446 189 c 0
 446 256 414 289 296 323 c 0
 159 363 74 413 74 522 c 0
 74 626 165 700 297 700 c 0
 391 700 459 671 517 621 c 1
 465 565 l 1
 416 608 358 627 300 627 c 0
 224 627 162 594 162 525 c 0
 162 466 204 436 335 398 c 0
 443 367 537 322 537 191 c 0
EndSplineSet
Validated: 1
EndChar

StartChar: Zacute.loclPLK
Encoding: 1114117 -1 133
Width: 600
GlyphClass: 2
Flags: MW
HStem: 0 75<167 517> 614 75<108 435 108 528>
VStem: 72 456
AnchorPoint: "Anchor-5" 319 689 basechar 0
AnchorPoint: "Anchor-4" 300 0 basechar 0
LayerCount: 2
Fore
SplineSet
373 915 m 1
 439 871 l 1
 309 728 l 1
 268 753 l 1
 373 915 l 1
167 75 m 1
 527 75 l 1
 517 0 l 1
 72 0 l 1
 72 70 l 1
 435 614 l 1
 108 614 l 1
 108 689 l 1
 528 689 l 1
 528 617 l 1
 167 75 l 1
EndSplineSet
Validated: 1
EndChar

StartChar: a
Encoding: 97 97 134
Width: 600
GlyphClass: 2
Flags: MW
HStem: -11 63<225.5 273> 262 58<315 317 317 393> 468 70<255 307>
VStem: 69 90<119 186 119 205> 393 85<127 262 262 262 320 363 363 368>
AnchorPoint: "Anchor-5" 292 527 basechar 0
AnchorPoint: "Anchor-4" 300 0 basechar 0
LayerCount: 2
Fore
SplineSet
478 115 m 2
 478 73 491 57 521 48 c 1
 500 -12 l 1
 455 -6 418 15 404 63 c 1
 366 14 307 -11 239 -11 c 0
 133 -11 69 53 69 151 c 0
 69 259 156 320 315 320 c 2
 393 320 l 1
 393 363 l 2
 393 440 346 468 268 468 c 0
 233 468 185 460 131 441 c 1
 108 505 l 1
 173 528 229 538 281 538 c 0
 412 538 478 472 478 368 c 2
 478 115 l 2
260 52 m 0
 312 52 362 80 393 127 c 1
 393 262 l 1
 317 262 l 2
 201 262 159 220 159 152 c 0
 159 86 191 52 260 52 c 0
EndSplineSet
Validated: 1
Substitution2: "Single Substitution lookup 29 subtable" ordfeminine
Substitution2: "'aalt' Access All Alternates in Latin lookup 0 subtable" ordfeminine
EndChar

StartChar: aacute
Encoding: 225 225 135
Width: 600
GlyphClass: 2
Flags: MW
HStem: -11 63<225.5 273> 262 58<315 317 317 393> 468 70<255 307>
VStem: 69 90<119 186 119 205> 393 85<127 262 262 262 320 363 363 368>
AnchorPoint: "Anchor-5" 292 527 basechar 0
AnchorPoint: "Anchor-4" 300 0 basechar 0
LayerCount: 2
Fore
SplineSet
376 797 m 1
 414 725 l 1
 205 640 l 1
 179 685 l 1
 376 797 l 1
478 115 m 2
 478 73 491 57 521 48 c 1
 500 -12 l 1
 455 -6 418 15 404 63 c 1
 366 14 307 -11 239 -11 c 0
 133 -11 69 53 69 151 c 0
 69 259 156 320 315 320 c 2
 393 320 l 1
 393 363 l 2
 393 440 346 468 268 468 c 0
 233 468 185 460 131 441 c 1
 108 505 l 1
 173 528 229 538 281 538 c 0
 412 538 478 472 478 368 c 2
 478 115 l 2
260 52 m 0
 312 52 362 80 393 127 c 1
 393 262 l 1
 317 262 l 2
 201 262 159 220 159 152 c 0
 159 86 191 52 260 52 c 0
EndSplineSet
Validated: 1
EndChar

StartChar: abreve
Encoding: 259 259 136
Width: 600
GlyphClass: 2
Flags: MW
HStem: -11 63<225.5 273> 262 58<315 317 317 393> 468 70<255 307> 630 64<266.5 314 266.5 336>
VStem: 69 90<119 186 119 205> 393 85<127 262 262 262 320 363 363 368>
AnchorPoint: "Anchor-5" 292 527 basechar 0
AnchorPoint: "Anchor-4" 300 0 basechar 0
LayerCount: 2
Fore
SplineSet
290 630 m 0
 199 630 150 705 142 766 c 1
 200 779 l 1
 215 728 243 694 290 694 c 0
 338 694 368 728 383 779 c 1
 440 766 l 1
 432 705 382 630 290 630 c 0
478 115 m 2
 478 73 491 57 521 48 c 1
 500 -12 l 1
 455 -6 418 15 404 63 c 1
 366 14 307 -11 239 -11 c 0
 133 -11 69 53 69 151 c 0
 69 259 156 320 315 320 c 2
 393 320 l 1
 393 363 l 2
 393 440 346 468 268 468 c 0
 233 468 185 460 131 441 c 1
 108 505 l 1
 173 528 229 538 281 538 c 0
 412 538 478 472 478 368 c 2
 478 115 l 2
260 52 m 0
 312 52 362 80 393 127 c 1
 393 262 l 1
 317 262 l 2
 201 262 159 220 159 152 c 0
 159 86 191 52 260 52 c 0
EndSplineSet
Validated: 1
EndChar

StartChar: acircumflex
Encoding: 226 226 137
Width: 600
GlyphClass: 2
Flags: MW
HStem: -11 63<225.5 273> 262 58<315 317 317 393> 468 70<255 307>
VStem: 69 90<119 186 119 205> 393 85<127 262 262 262 320 363 363 368>
AnchorPoint: "Anchor-5" 292 527 basechar 0
AnchorPoint: "Anchor-4" 300 0 basechar 0
LayerCount: 2
Fore
SplineSet
169 629 m 1
 129 670 l 1
 264 789 l 1
 321 789 l 1
 455 670 l 1
 417 629 l 1
 293 720 l 1
 169 629 l 1
478 115 m 2
 478 73 491 57 521 48 c 1
 500 -12 l 1
 455 -6 418 15 404 63 c 1
 366 14 307 -11 239 -11 c 0
 133 -11 69 53 69 151 c 0
 69 259 156 320 315 320 c 2
 393 320 l 1
 393 363 l 2
 393 440 346 468 268 468 c 0
 233 468 185 460 131 441 c 1
 108 505 l 1
 173 528 229 538 281 538 c 0
 412 538 478 472 478 368 c 2
 478 115 l 2
260 52 m 0
 312 52 362 80 393 127 c 1
 393 262 l 1
 317 262 l 2
 201 262 159 220 159 152 c 0
 159 86 191 52 260 52 c 0
EndSplineSet
Validated: 1
EndChar

StartChar: adieresis
Encoding: 228 228 138
Width: 600
GlyphClass: 2
Flags: MW
HStem: -11 63<225.5 273> 262 58<315 317 317 393> 468 70<255 307> 648 108<172.5 203.5 379.5 410.5>
VStem: 69 90<119 186 119 205> 133 109<686 717> 341 109<686 717> 393 85<127 262 262 262 320 363 363 368>
AnchorPoint: "Anchor-5" 292 700 basechar 0
AnchorPoint: "Anchor-4" 300 0 basechar 0
LayerCount: 2
Fore
SplineSet
188 648 m 0xf6
 157 648 133 671 133 701 c 0
 133 733 157 756 188 756 c 0
 219 756 242 733 242 701 c 0
 242 671 219 648 188 648 c 0xf6
395 648 m 0
 364 648 341 671 341 701 c 0
 341 733 364 756 395 756 c 0
 426 756 450 733 450 701 c 0
 450 671 426 648 395 648 c 0
478 115 m 2xe9
 478 73 491 57 521 48 c 1
 500 -12 l 1
 455 -6 418 15 404 63 c 1
 366 14 307 -11 239 -11 c 0
 133 -11 69 53 69 151 c 0
 69 259 156 320 315 320 c 2
 393 320 l 1
 393 363 l 2
 393 440 346 468 268 468 c 0
 233 468 185 460 131 441 c 1
 108 505 l 1
 173 528 229 538 281 538 c 0
 412 538 478 472 478 368 c 2
 478 115 l 2xe9
260 52 m 0
 312 52 362 80 393 127 c 1
 393 262 l 1
 317 262 l 2
 201 262 159 220 159 152 c 0
 159 86 191 52 260 52 c 0
EndSplineSet
Validated: 1
EndChar

StartChar: agrave
Encoding: 224 224 139
Width: 600
GlyphClass: 2
Flags: MW
HStem: -11 63<225.5 273> 262 58<315 317 317 393> 468 70<255 307>
VStem: 69 90<119 186 119 205> 393 85<127 262 262 262 320 363 363 368>
AnchorPoint: "Anchor-5" 292 527 basechar 0
AnchorPoint: "Anchor-4" 300 0 basechar 0
LayerCount: 2
Fore
SplineSet
379 622 m 1
 176 715 l 1
 222 787 l 1
 406 668 l 1
 379 622 l 1
478 115 m 2
 478 73 491 57 521 48 c 1
 500 -12 l 1
 455 -6 418 15 404 63 c 1
 366 14 307 -11 239 -11 c 0
 133 -11 69 53 69 151 c 0
 69 259 156 320 315 320 c 2
 393 320 l 1
 393 363 l 2
 393 440 346 468 268 468 c 0
 233 468 185 460 131 441 c 1
 108 505 l 1
 173 528 229 538 281 538 c 0
 412 538 478 472 478 368 c 2
 478 115 l 2
260 52 m 0
 312 52 362 80 393 127 c 1
 393 262 l 1
 317 262 l 2
 201 262 159 220 159 152 c 0
 159 86 191 52 260 52 c 0
EndSplineSet
Validated: 1
EndChar

StartChar: amacron
Encoding: 257 257 140
Width: 600
GlyphClass: 2
Flags: MW
HStem: -11 63<225.5 273> 262 58<315 317 317 393> 468 70<255 307> 676 64<157 426 157 426>
VStem: 69 90<119 186 119 205> 157 269<676 740 676 740> 393 85<127 262 262 262 320 363 363 368>
AnchorPoint: "Anchor-5" 292 527 basechar 0
AnchorPoint: "Anchor-4" 300 0 basechar 0
LayerCount: 2
Fore
SplineSet
426 676 m 1xf4
 157 676 l 1
 157 740 l 1
 426 740 l 1
 426 676 l 1xf4
478 115 m 2xfa
 478 73 491 57 521 48 c 1
 500 -12 l 1
 455 -6 418 15 404 63 c 1
 366 14 307 -11 239 -11 c 0
 133 -11 69 53 69 151 c 0
 69 259 156 320 315 320 c 2
 393 320 l 1
 393 363 l 2
 393 440 346 468 268 468 c 0
 233 468 185 460 131 441 c 1
 108 505 l 1
 173 528 229 538 281 538 c 0
 412 538 478 472 478 368 c 2
 478 115 l 2xfa
260 52 m 0
 312 52 362 80 393 127 c 1
 393 262 l 1
 317 262 l 2
 201 262 159 220 159 152 c 0
 159 86 191 52 260 52 c 0
EndSplineSet
Validated: 1
EndChar

StartChar: aogonek
Encoding: 261 261 141
Width: 600
GlyphClass: 2
Flags: MW
HStem: -241 67<411 434.5> -11 63<225.5 273> 262 58<315 317 317 393> 468 70<255 307>
VStem: 69 90<119 186 119 205> 299 77<-141 -112> 393 85<127 262 262 262 320 363 363 368>
AnchorPoint: "Anchor-5" 292 527 basechar 0
AnchorPoint: "Anchor-4" 300 0 basechar 0
LayerCount: 2
Fore
SplineSet
500 -12 m 1
 397 -57 376 -91 376 -126 c 0
 376 -156 390 -174 432 -174 c 0
 453 -174 469 -172 493 -167 c 1
 485 -235 l 1
 464 -238 448 -241 421 -241 c 0
 345 -241 299 -199 299 -143 c 0xfe
 299 -81 344 -32 447 6 c 1
 427 18 412 36 404 63 c 1
 366 14 307 -11 239 -11 c 0
 133 -11 69 53 69 151 c 0
 69 259 156 320 315 320 c 2
 393 320 l 1
 393 363 l 2
 393 440 346 468 268 468 c 0
 233 468 185 460 131 441 c 1
 108 505 l 1
 173 528 229 538 281 538 c 0
 412 538 478 472 478 368 c 2
 478 115 l 2
 478 73 491 57 521 48 c 1
 500 -12 l 1
393 127 m 1
 393 262 l 1
 317 262 l 2
 201 262 159 220 159 152 c 0
 159 86 191 52 260 52 c 0
 312 52 362 80 393 127 c 1
EndSplineSet
Validated: 1
EndChar

StartChar: aring
Encoding: 229 229 142
Width: 600
GlyphClass: 2
Flags: MW
HStem: -11 63<225.5 273> 262 58<315 317 317 393> 468 70<255 307> 619 45<275.5 309 275.5 324.5> 777 47<275.5 309>
VStem: 69 90<119 186 119 205> 181 57<703 738.5 703 749.5> 346 57<703 738.5> 393 85<127 262 262 262 320 363 363 368>
AnchorPoint: "Anchor-5" 292 527 basechar 0
AnchorPoint: "Anchor-4" 300 0 basechar 0
LayerCount: 2
Fore
SplineSet
292 824 m 0xff
 357 824 403 778 403 721 c 0
 403 664 357 619 292 619 c 0
 227 619 181 664 181 721 c 0
 181 778 227 824 292 824 c 0xff
292 777 m 0
 259 777 238 756 238 721 c 0
 238 685 259 664 292 664 c 0
 326 664 346 685 346 721 c 0
 346 756 326 777 292 777 c 0
478 115 m 2xfc80
 478 73 491 57 521 48 c 1
 500 -12 l 1
 455 -6 418 15 404 63 c 1
 366 14 307 -11 239 -11 c 0
 133 -11 69 53 69 151 c 0
 69 259 156 320 315 320 c 2
 393 320 l 1
 393 363 l 2
 393 440 346 468 268 468 c 0
 233 468 185 460 131 441 c 1
 108 505 l 1
 173 528 229 538 281 538 c 0
 412 538 478 472 478 368 c 2
 478 115 l 2xfc80
260 52 m 0
 312 52 362 80 393 127 c 1
 393 262 l 1
 317 262 l 2
 201 262 159 220 159 152 c 0
 159 86 191 52 260 52 c 0
EndSplineSet
Validated: 1
EndChar

StartChar: atilde
Encoding: 227 227 143
Width: 600
GlyphClass: 2
Flags: MW
HStem: -11 63<225.5 273> 262 58<315 317 317 393> 468 70<255 307> 659 64<331.5 360 331.5 371.5> 707 65<222.5 252> 721 20G<457 457>
VStem: 69 90<119 186 119 205> 393 85<127 262 262 262 320 363 363 368>
AnchorPoint: "Anchor-5" 292 527 basechar 0
AnchorPoint: "Anchor-4" 300 0 basechar 0
LayerCount: 2
Fore
SplineSet
350 659 m 0xf3
 298 659 270 707 234 707 c 0
 211 707 197 691 181 661 c 1
 128 687 l 1
 151 735 186 772 234 772 c 0xeb
 290 772 313 723 350 723 c 0
 370 723 385 737 403 768 c 1xf3
 457 741 l 1xe7
 431 685 393 659 350 659 c 0xf3
478 115 m 2xe7
 478 73 491 57 521 48 c 1
 500 -12 l 1
 455 -6 418 15 404 63 c 1
 366 14 307 -11 239 -11 c 0
 133 -11 69 53 69 151 c 0
 69 259 156 320 315 320 c 2
 393 320 l 1
 393 363 l 2
 393 440 346 468 268 468 c 0
 233 468 185 460 131 441 c 1
 108 505 l 1
 173 528 229 538 281 538 c 0
 412 538 478 472 478 368 c 2
 478 115 l 2xe7
260 52 m 0
 312 52 362 80 393 127 c 1
 393 262 l 1
 317 262 l 2
 201 262 159 220 159 152 c 0
 159 86 191 52 260 52 c 0
EndSplineSet
Validated: 1
EndChar

StartChar: ae
Encoding: 230 230 144
Width: 600
GlyphClass: 2
Flags: MW
HStem: -11 64<136.5 179.5> -11 70<413.5 468 413.5 475.5> 233 66<336 525 336 605 336 525> 262 58<208 212 212 254> 468 70<149.5 192 403 466>
VStem: -6 91<122 188 122 206> 254 82<233 262> 525 82<299 299>
AnchorPoint: "Anchor-5" 309 527 basechar 0
AnchorPoint: "Anchor-4" 0 0 basechar 0
LayerCount: 2
Fore
SplineSet
435 538 m 0xaf
 554 538 607 440 607 279 c 0
 607 261 606 245 605 233 c 1
 336 233 l 1
 345 113 378 59 449 59 c 0
 487 59 514 73 548 99 c 1x6f
 587 41 l 1
 546 9 504 -11 447 -11 c 0
 377 -11 331 21 299 78 c 1
 253 16 213 -11 146 -11 c 0
 53 -11 -6 53 -6 151 c 0
 -6 261 68 320 208 320 c 2
 254 320 l 1x9f
 254 363 l 2
 254 437 221 468 163 468 c 0
 127 468 102 460 58 441 c 1
 36 504 l 1
 80 525 128 538 171 538 c 0
 250 538 288 503 309 450 c 1
 327 504 371 538 435 538 c 0xaf
432 468 m 0
 372 468 344 424 336 299 c 1
 525 299 l 1
 523 409 500 468 432 468 c 0
254 262 m 1x9f
 212 262 l 2
 115 262 85 220 85 156 c 0
 85 88 114 53 159 53 c 0
 203 53 232 87 268 150 c 1
 258 182 254 221 254 262 c 1x9f
EndSplineSet
Validated: 1
EndChar

StartChar: aeacute
Encoding: 509 509 145
Width: 600
GlyphClass: 2
Flags: MW
HStem: -11 64<136.5 179.5> -11 70<413.5 468 413.5 475.5> 233 66<336 525 336 605 336 525> 262 58<208 212 212 254> 468 70<149.5 192 403 466>
VStem: -6 91<122 188 122 206> 254 82<233 262> 525 82<299 299>
AnchorPoint: "Anchor-5" 309 527 basechar 0
AnchorPoint: "Anchor-4" 0 0 basechar 0
LayerCount: 2
Fore
SplineSet
393 797 m 1xaf
 431 725 l 1
 222 640 l 1
 196 685 l 1
 393 797 l 1xaf
435 538 m 0
 554 538 607 440 607 279 c 0
 607 261 606 245 605 233 c 1
 336 233 l 1
 345 113 378 59 449 59 c 0
 487 59 514 73 548 99 c 1x6f
 587 41 l 1
 546 9 504 -11 447 -11 c 0
 377 -11 331 21 299 78 c 1
 253 16 213 -11 146 -11 c 0
 53 -11 -6 53 -6 151 c 0
 -6 261 68 320 208 320 c 2
 254 320 l 1x9f
 254 363 l 2
 254 437 221 468 163 468 c 0
 127 468 102 460 58 441 c 1
 36 504 l 1
 80 525 128 538 171 538 c 0
 250 538 288 503 309 450 c 1
 327 504 371 538 435 538 c 0
432 468 m 0
 372 468 344 424 336 299 c 1
 525 299 l 1
 523 409 500 468 432 468 c 0
254 262 m 1x9f
 212 262 l 2
 115 262 85 220 85 156 c 0
 85 88 114 53 159 53 c 0
 203 53 232 87 268 150 c 1
 258 182 254 221 254 262 c 1x9f
EndSplineSet
Validated: 1
EndChar

StartChar: b
Encoding: 98 98 146
Width: 600
GlyphClass: 2
Flags: MW
HStem: -11 68<293 347.5 279.5 391> 0 21G<100 174 100 100> 470 68<304.5 357> 719 20G<100 100> 729 20G<184 184>
VStem: 100 84<125 386 125 458 458 739 739 739> 441 91<194 332.5>
AnchorPoint: "Anchor-5" 300 739 basechar 0
AnchorPoint: "Anchor-4" 300 0 basechar 0
LayerCount: 2
Fore
SplineSet
184 458 m 5xae
 223 509 274 538 335 538 c 4
 475 538 532 429 532 264 c 4
 532 104 459 -11 323 -11 c 4
 263 -11 216 9 180 55 c 5xae
 174 0 l 5
 100 0 l 5
 100 739 l 5x76
 184 749 l 5
 184 458 l 5xae
304 57 m 4
 391 57 441 124 441 264 c 4
 441 401 398 470 316 470 c 4
 258 470 213 428 184 386 c 5
 184 125 l 5
 212 82 255 57 304 57 c 4
EndSplineSet
Validated: 1
EndChar

StartChar: c
Encoding: 99 99 147
Width: 600
GlyphClass: 2
Flags: MW
HStem: -11 72<293.5 365.5 293.5 369.5> 467 71<292.5 361.5>
VStem: 91 91<190.5 330.5 190.5 340>
AnchorPoint: "Anchor-5" 344 518 basechar 0
AnchorPoint: "Anchor-4" 339 0 basechar 0
LayerCount: 2
Fore
SplineSet
339 61 m 0
 392 61 436 80 476 107 c 1
 516 52 l 1
 471 13 400 -11 339 -11 c 0
 181 -11 91 96 91 261 c 0
 91 419 182 538 339 538 c 0
 407 538 466 517 515 476 c 1
 474 421 l 1
 429 451 385 467 338 467 c 0
 247 467 182 400 182 261 c 0
 182 120 248 61 339 61 c 0
EndSplineSet
Validated: 1
EndChar

StartChar: cacute
Encoding: 263 263 148
Width: 600
GlyphClass: 2
Flags: MW
HStem: -11 72<293.5 365.5 293.5 369.5> 467 71<292.5 361.5>
VStem: 91 91<190.5 330.5 190.5 340>
AnchorPoint: "Anchor-5" 344 518 basechar 0
AnchorPoint: "Anchor-4" 339 0 basechar 0
LayerCount: 2
Fore
SplineSet
428 788 m 1
 466 716 l 1
 257 631 l 1
 231 676 l 1
 428 788 l 1
339 61 m 0
 392 61 436 80 476 107 c 1
 516 52 l 1
 471 13 400 -11 339 -11 c 0
 181 -11 91 96 91 261 c 0
 91 419 182 538 339 538 c 0
 407 538 466 517 515 476 c 1
 474 421 l 1
 429 451 385 467 338 467 c 0
 247 467 182 400 182 261 c 0
 182 120 248 61 339 61 c 0
EndSplineSet
Validated: 1
Substitution2: "'locl' Localized Forms in Latin lookup 7 subtable" cacute.loclPLK
Substitution2: "'aalt' Access All Alternates in Latin lookup 0 subtable" cacute.loclPLK
EndChar

StartChar: ccaron
Encoding: 269 269 149
Width: 600
GlyphClass: 2
Flags: MW
HStem: -11 72<293.5 365.5 293.5 369.5> 467 71<292.5 361.5> 620 70<345 345 345 373 316 345> 670 20G<345 345> 719 20G<181 181 507 507>
VStem: 91 91<190.5 330.5 190.5 340>
AnchorPoint: "Anchor-5" 344 518 basechar 0
AnchorPoint: "Anchor-4" 339 0 basechar 0
LayerCount: 2
Fore
SplineSet
469 780 m 1xdc
 507 739 l 1
 373 620 l 1
 316 620 l 1xec
 181 739 l 1
 221 780 l 1
 345 690 l 1
 469 780 l 1xdc
339 61 m 0
 392 61 436 80 476 107 c 1
 516 52 l 1
 471 13 400 -11 339 -11 c 0
 181 -11 91 96 91 261 c 0
 91 419 182 538 339 538 c 0
 407 538 466 517 515 476 c 1
 474 421 l 1
 429 451 385 467 338 467 c 0
 247 467 182 400 182 261 c 0
 182 120 248 61 339 61 c 0
EndSplineSet
Validated: 1
EndChar

StartChar: ccedilla
Encoding: 231 231 150
Width: 600
GlyphClass: 2
Flags: MW
HStem: -238 56<310 337 308 362> -97 40<293 359> -11 72<359 359> 467 71<292.5 361.5>
VStem: 91 91<190.5 330.5 190.5 340> 296 63 379 73<-155.5 -122.5>
AnchorPoint: "Anchor-5" 344 518 basechar 0
AnchorPoint: "Anchor-4" 339 0 basechar 0
LayerCount: 2
Fore
SplineSet
359 -57 m 1
 424 -63 452 -101 452 -140 c 0
 452 -206 394 -238 330 -238 c 0
 290 -238 251 -229 225 -214 c 1
 252 -166 l 1
 271 -176 297 -182 319 -182 c 0
 355 -182 379 -170 379 -141 c 0xfe
 379 -104 346 -97 293 -97 c 1
 299 -9 l 1
 166 8 91 110 91 261 c 0
 91 419 182 538 339 538 c 0
 407 538 466 517 515 476 c 1
 474 421 l 1
 429 451 385 467 338 467 c 0
 247 467 182 400 182 261 c 0
 182 120 248 61 339 61 c 0
 392 61 436 80 476 107 c 1
 516 52 l 1
 476 17 415 -6 359 -11 c 1
 359 -57 l 1
EndSplineSet
Validated: 1
EndChar

StartChar: ccircumflex
Encoding: 265 265 151
Width: 600
GlyphClass: 2
Flags: MW
HStem: -11 72<293.5 365.5 293.5 369.5> 467 71<292.5 361.5>
VStem: 91 91<190.5 330.5 190.5 340>
AnchorPoint: "Anchor-5" 344 518 basechar 0
AnchorPoint: "Anchor-4" 339 0 basechar 0
LayerCount: 2
Fore
SplineSet
221 620 m 1
 181 661 l 1
 316 780 l 1
 373 780 l 1
 507 661 l 1
 469 620 l 1
 345 711 l 1
 221 620 l 1
339 61 m 0
 392 61 436 80 476 107 c 1
 516 52 l 1
 471 13 400 -11 339 -11 c 0
 181 -11 91 96 91 261 c 0
 91 419 182 538 339 538 c 0
 407 538 466 517 515 476 c 1
 474 421 l 1
 429 451 385 467 338 467 c 0
 247 467 182 400 182 261 c 0
 182 120 248 61 339 61 c 0
EndSplineSet
Validated: 1
EndChar

StartChar: cdotaccent
Encoding: 267 267 152
Width: 600
GlyphClass: 2
Flags: MW
HStem: -11 72<293.5 365.5 293.5 369.5> 467 71<292.5 361.5> 646 118<325 361.5>
VStem: 91 91<190.5 330.5 190.5 340> 283 121<688 722>
AnchorPoint: "Anchor-5" 344 518 basechar 0
AnchorPoint: "Anchor-4" 339 0 basechar 0
LayerCount: 2
Fore
SplineSet
343 764 m 0
 380 764 404 739 404 705 c 0
 404 671 380 646 343 646 c 0
 307 646 283 671 283 705 c 0
 283 739 307 764 343 764 c 0
339 61 m 0
 392 61 436 80 476 107 c 1
 516 52 l 1
 471 13 400 -11 339 -11 c 0
 181 -11 91 96 91 261 c 0
 91 419 182 538 339 538 c 0
 407 538 466 517 515 476 c 1
 474 421 l 1
 429 451 385 467 338 467 c 0
 247 467 182 400 182 261 c 0
 182 120 248 61 339 61 c 0
EndSplineSet
Validated: 1
EndChar

StartChar: d
Encoding: 100 100 153
Width: 600
GlyphClass: 2
Flags: MW
HStem: -11 67<244.5 297.5> 0 21G<426 500 426 426> 470 68<252.5 304.5 209.5 320.5> 719 20G<500 500> 729 20G<416 416>
VStem: 68 91<194.5 332.5 194.5 342> 416 84<140 402 402 402 475 739 0 749 0 749>
AnchorPoint: "Anchor-5" 300 739 basechar 0
AnchorPoint: "Anchor-4" 300 0 basechar 0
LayerCount: 2
Fore
SplineSet
416 749 m 1xae
 500 739 l 1
 500 0 l 1
 426 0 l 1x76
 418 69 l 1
 379 14 326 -11 269 -11 c 0
 131 -11 68 99 68 263 c 0
 68 421 145 538 274 538 c 0
 335 538 380 516 416 475 c 1
 416 749 l 1xae
296 470 m 0
 209 470 159 402 159 263 c 0
 159 126 203 56 286 56 c 0
 346 56 387 96 416 140 c 1xae
 416 402 l 1
 387 445 345 470 296 470 c 0
EndSplineSet
Validated: 1
EndChar

StartChar: eth
Encoding: 240 240 154
Width: 600
GlyphClass: 2
Flags: MW
HStem: -11 68<252.5 340.5 252.5 366.5> 414 67<254 314 223 322.5> 680 20G<301 301> 729 20G
VStem: 67 86<179.5 300 179.5 309> 448 84<198 279>
LayerCount: 2
Fore
SplineSet
170 562 m 1
 250 647 l 1
 218 662 180 674 133 683 c 1
 152 749 l 1
 210 737 261 721 301 700 c 1
 371 773 l 1
 422 729 l 1
 360 665 l 1
 479 583 532 455 532 264 c 0
 532 95 438 -11 295 -11 c 0
 169 -11 67 77 67 235 c 0
 67 383 166 481 280 481 c 0
 348 481 399 456 437 412 c 1
 419 497 372 566 308 612 c 1
 229 532 l 1
 170 562 l 1
448 267 m 0
 448 291 446 312 444 332 c 1
 410 385 355 414 290 414 c 0
 218 414 153 361 153 239 c 0
 153 120 211 57 294 57 c 0
 387 57 448 129 448 267 c 0
EndSplineSet
Validated: 1
EndChar

StartChar: dcaron
Encoding: 271 271 155
Width: 600
GlyphClass: 2
Flags: MW
HStem: -11 67<215.5 268.5> 0 21G<397 471 397 397> 470 68<223.5 276 181 291.5> 719 20G<471 471> 727 20G<537 537> 729 20G<387 387>
VStem: 39 91<194.5 332.5 194.5 342> 387 84<140 402 402 402 475 739 0 749 0 749>
AnchorPoint: "Anchor-5" 271 739 basechar 0
AnchorPoint: "Anchor-4" 271 0 basechar 0
LayerCount: 2
Fore
SplineSet
387 749 m 1xa7
 471 739 l 1
 471 0 l 1
 397 0 l 1x73
 389 69 l 1
 350 14 297 -11 240 -11 c 0
 102 -11 39 99 39 263 c 0
 39 421 116 538 246 538 c 0
 306 538 351 516 387 475 c 1
 387 749 l 1xa7
537 747 m 1xab
 613 738 l 1
 560 560 l 1
 513 567 l 1
 537 747 l 1xab
267 470 m 0
 180 470 130 402 130 263 c 0
 130 126 174 56 257 56 c 0
 317 56 358 96 387 140 c 1
 387 402 l 1
 358 445 316 470 267 470 c 0
EndSplineSet
Validated: 1
EndChar

StartChar: dcroat
Encoding: 273 273 156
Width: 600
GlyphClass: 2
Flags: MW
HStem: -11 67<247 300> 0 21G<428 502 428 428> 470 68<254.5 307 212 322.5> 597 68<247 418 247 418 502 581> 719 20G<502 502> 729 20G<418 418>
VStem: 70 92<194.5 332.5 194.5 342> 418 84<140 402 402 402 475 597 0 597 665 739>
AnchorPoint: "Anchor-5" 302 739 basechar 0
AnchorPoint: "Anchor-4" 302 0 basechar 0
LayerCount: 2
Fore
SplineSet
581 665 m 1xb7
 581 597 l 1
 502 597 l 1
 502 0 l 1
 428 0 l 1x77
 420 69 l 1
 381 14 329 -11 271 -11 c 0
 133 -11 70 99 70 263 c 0
 70 421 147 538 277 538 c 0
 337 538 383 516 418 475 c 1
 418 597 l 1
 247 597 l 1
 247 665 l 1
 418 665 l 1
 418 749 l 1xb7
 502 739 l 1xbb
 502 665 l 1
 581 665 l 1xb7
418 140 m 1xb7
 418 402 l 1
 389 445 347 470 298 470 c 0
 211 470 162 402 162 263 c 0
 162 126 206 56 288 56 c 0
 348 56 389 96 418 140 c 1xb7
EndSplineSet
Validated: 1
EndChar

StartChar: e
Encoding: 101 101 157
Width: 600
GlyphClass: 2
Flags: MW
HStem: -11 70<279.5 347 279.5 352.5> 234 64<167 441 167 441 167 521> 469 69<270 349>
VStem: 79 88<234 234 234 298 234 342.5> 441 82<298 298>
AnchorPoint: "Anchor-5" 310 527 basechar 0
AnchorPoint: "Anchor-4" 300 0 basechar 0
LayerCount: 2
Fore
SplineSet
167 234 m 1
 171 112 239 59 320 59 c 0
 374 59 414 75 461 106 c 1
 500 50 l 1
 451 12 385 -11 320 -11 c 0
 166 -11 79 99 79 263 c 0
 79 422 168 538 308 538 c 0
 441 538 523 439 523 279 c 0
 523 261 522 245 521 234 c 1
 167 234 l 1
309 469 m 0
 231 469 174 414 167 298 c 1
 441 298 l 1
 439 411 389 469 309 469 c 0
EndSplineSet
Validated: 1
EndChar

StartChar: eacute
Encoding: 233 233 158
Width: 600
GlyphClass: 2
Flags: MW
HStem: -11 70<279.5 347 279.5 352.5> 234 64<167 441 167 441 167 521> 469 69<270 349>
VStem: 79 88<234 234 234 298 234 342.5> 441 82<298 298>
AnchorPoint: "Anchor-5" 310 527 basechar 0
AnchorPoint: "Anchor-4" 300 0 basechar 0
LayerCount: 2
Fore
SplineSet
394 797 m 1
 432 725 l 1
 223 640 l 1
 197 685 l 1
 394 797 l 1
167 234 m 1
 171 112 239 59 320 59 c 0
 374 59 414 75 461 106 c 1
 500 50 l 1
 451 12 385 -11 320 -11 c 0
 166 -11 79 99 79 263 c 0
 79 422 168 538 308 538 c 0
 441 538 523 439 523 279 c 0
 523 261 522 245 521 234 c 1
 167 234 l 1
309 469 m 0
 231 469 174 414 167 298 c 1
 441 298 l 1
 439 411 389 469 309 469 c 0
EndSplineSet
Validated: 1
EndChar

StartChar: ebreve
Encoding: 277 277 159
Width: 600
GlyphClass: 2
Flags: MW
HStem: -11 70<279.5 347 279.5 352.5> 234 64<167 441 167 441 167 521> 469 69<270 349> 630 64<284.5 332 284.5 354>
VStem: 79 88<234 234 234 298 234 342.5> 441 82<298 298>
AnchorPoint: "Anchor-5" 310 527 basechar 0
AnchorPoint: "Anchor-4" 300 0 basechar 0
LayerCount: 2
Fore
SplineSet
308 630 m 0
 217 630 168 705 160 766 c 1
 218 779 l 1
 233 728 261 694 308 694 c 0
 356 694 386 728 401 779 c 1
 458 766 l 1
 450 705 400 630 308 630 c 0
167 234 m 1
 171 112 239 59 320 59 c 0
 374 59 414 75 461 106 c 1
 500 50 l 1
 451 12 385 -11 320 -11 c 0
 166 -11 79 99 79 263 c 0
 79 422 168 538 308 538 c 0
 441 538 523 439 523 279 c 0
 523 261 522 245 521 234 c 1
 167 234 l 1
309 469 m 0
 231 469 174 414 167 298 c 1
 441 298 l 1
 439 411 389 469 309 469 c 0
EndSplineSet
Validated: 1
EndChar

StartChar: ecaron
Encoding: 283 283 160
Width: 600
GlyphClass: 2
Flags: MW
HStem: -11 70<279.5 347 279.5 352.5> 234 64<167 441 167 441 167 521> 469 69<270 349> 629 70<311 311 311 339 282 311> 679 20G<311 311> 728 20G<147 147 473 473>
VStem: 79 88<234 234 234 298 234 342.5> 441 82<298 298>
AnchorPoint: "Anchor-5" 310 527 basechar 0
AnchorPoint: "Anchor-4" 300 0 basechar 0
LayerCount: 2
Fore
SplineSet
435 789 m 1xef
 473 748 l 1
 339 629 l 1
 282 629 l 1xf7
 147 748 l 1
 187 789 l 1
 311 699 l 1
 435 789 l 1xef
167 234 m 1
 171 112 239 59 320 59 c 0
 374 59 414 75 461 106 c 1
 500 50 l 1
 451 12 385 -11 320 -11 c 0
 166 -11 79 99 79 263 c 0
 79 422 168 538 308 538 c 0
 441 538 523 439 523 279 c 0
 523 261 522 245 521 234 c 1
 167 234 l 1
309 469 m 0
 231 469 174 414 167 298 c 1
 441 298 l 1
 439 411 389 469 309 469 c 0
EndSplineSet
Validated: 1
EndChar

StartChar: ecircumflex
Encoding: 234 234 161
Width: 600
GlyphClass: 2
Flags: MW
HStem: -11 70<279.5 347 279.5 352.5> 234 64<167 441 167 441 167 521> 469 69<270 349>
VStem: 79 88<234 234 234 298 234 342.5> 441 82<298 298>
AnchorPoint: "Anchor-5" 310 527 basechar 0
AnchorPoint: "Anchor-4" 300 0 basechar 0
LayerCount: 2
Fore
SplineSet
187 629 m 1
 147 670 l 1
 282 789 l 1
 339 789 l 1
 473 670 l 1
 435 629 l 1
 311 720 l 1
 187 629 l 1
167 234 m 1
 171 112 239 59 320 59 c 0
 374 59 414 75 461 106 c 1
 500 50 l 1
 451 12 385 -11 320 -11 c 0
 166 -11 79 99 79 263 c 0
 79 422 168 538 308 538 c 0
 441 538 523 439 523 279 c 0
 523 261 522 245 521 234 c 1
 167 234 l 1
309 469 m 0
 231 469 174 414 167 298 c 1
 441 298 l 1
 439 411 389 469 309 469 c 0
EndSplineSet
Validated: 1
EndChar

StartChar: edieresis
Encoding: 235 235 162
Width: 600
GlyphClass: 2
Flags: MW
HStem: -11 70<279.5 347 279.5 352.5> 234 64<167 441 167 441 167 521> 469 69<270 349> 648 108<190.5 221.5 397.5 428.5>
VStem: 79 88<234 234 234 298 234 342.5> 151 109<686 717> 359 109<686 717> 441 82<298 298>
AnchorPoint: "Anchor-5" 310 700 basechar 0
AnchorPoint: "Anchor-4" 300 0 basechar 0
LayerCount: 2
Fore
SplineSet
206 648 m 0xf6
 175 648 151 671 151 701 c 0
 151 733 175 756 206 756 c 0
 237 756 260 733 260 701 c 0
 260 671 237 648 206 648 c 0xf6
413 648 m 0
 382 648 359 671 359 701 c 0
 359 733 382 756 413 756 c 0
 444 756 468 733 468 701 c 0
 468 671 444 648 413 648 c 0
167 234 m 1xe9
 171 112 239 59 320 59 c 0
 374 59 414 75 461 106 c 1
 500 50 l 1
 451 12 385 -11 320 -11 c 0
 166 -11 79 99 79 263 c 0
 79 422 168 538 308 538 c 0
 441 538 523 439 523 279 c 0
 523 261 522 245 521 234 c 1
 167 234 l 1xe9
309 469 m 0
 231 469 174 414 167 298 c 1
 441 298 l 1
 439 411 389 469 309 469 c 0
EndSplineSet
Validated: 1
EndChar

StartChar: edotaccent
Encoding: 279 279 163
Width: 600
GlyphClass: 2
Flags: MW
HStem: -11 70<279.5 347 279.5 352.5> 234 64<167 441 167 441 167 521> 469 69<270 349> 655 118<291 327.5>
VStem: 79 88<234 234 234 298 234 342.5> 249 121<697 731> 441 82<298 298>
AnchorPoint: "Anchor-5" 310 527 basechar 0
AnchorPoint: "Anchor-4" 300 0 basechar 0
LayerCount: 2
Fore
SplineSet
309 773 m 0
 346 773 370 748 370 714 c 0
 370 680 346 655 309 655 c 0
 273 655 249 680 249 714 c 0
 249 748 273 773 309 773 c 0
167 234 m 1
 171 112 239 59 320 59 c 0
 374 59 414 75 461 106 c 1
 500 50 l 1
 451 12 385 -11 320 -11 c 0
 166 -11 79 99 79 263 c 0
 79 422 168 538 308 538 c 0
 441 538 523 439 523 279 c 0
 523 261 522 245 521 234 c 1
 167 234 l 1
309 469 m 0
 231 469 174 414 167 298 c 1
 441 298 l 1
 439 411 389 469 309 469 c 0
EndSplineSet
Validated: 1
EndChar

StartChar: egrave
Encoding: 232 232 164
Width: 600
GlyphClass: 2
Flags: MW
HStem: -11 70<279.5 347 279.5 352.5> 234 64<167 441 167 441 167 521> 469 69<270 349>
VStem: 79 88<234 234 234 298 234 342.5> 441 82<298 298>
AnchorPoint: "Anchor-5" 310 527 basechar 0
AnchorPoint: "Anchor-4" 300 0 basechar 0
LayerCount: 2
Fore
SplineSet
397 622 m 1
 194 715 l 1
 240 787 l 1
 424 668 l 1
 397 622 l 1
167 234 m 1
 171 112 239 59 320 59 c 0
 374 59 414 75 461 106 c 1
 500 50 l 1
 451 12 385 -11 320 -11 c 0
 166 -11 79 99 79 263 c 0
 79 422 168 538 308 538 c 0
 441 538 523 439 523 279 c 0
 523 261 522 245 521 234 c 1
 167 234 l 1
309 469 m 0
 231 469 174 414 167 298 c 1
 441 298 l 1
 439 411 389 469 309 469 c 0
EndSplineSet
Validated: 1
EndChar

StartChar: emacron
Encoding: 275 275 165
Width: 600
GlyphClass: 2
Flags: MW
HStem: -11 70<279.5 347 279.5 352.5> 234 64<167 441 167 441 167 521> 469 69<270 349> 676 64<175 444 175 444>
VStem: 79 88<234 234 234 298 234 342.5> 175 269<676 740 676 740> 441 82<298 298>
AnchorPoint: "Anchor-5" 310 527 basechar 0
AnchorPoint: "Anchor-4" 300 0 basechar 0
LayerCount: 2
Fore
SplineSet
444 676 m 1xfc
 175 676 l 1
 175 740 l 1
 444 740 l 1
 444 676 l 1xfc
167 234 m 1xfa
 171 112 239 59 320 59 c 0
 374 59 414 75 461 106 c 1
 500 50 l 1
 451 12 385 -11 320 -11 c 0
 166 -11 79 99 79 263 c 0
 79 422 168 538 308 538 c 0
 441 538 523 439 523 279 c 0
 523 261 522 245 521 234 c 1
 167 234 l 1xfa
309 469 m 0
 231 469 174 414 167 298 c 1
 441 298 l 1
 439 411 389 469 309 469 c 0
EndSplineSet
Validated: 1
EndChar

StartChar: eogonek
Encoding: 281 281 166
Width: 600
GlyphClass: 2
Flags: MW
HStem: -229 67<310 333.5> -11 70 234 64<167 441 167 521 167 441> 469 69<270 349>
VStem: 79 88<234 234 234 298 234 342.5> 198 77<-129 -106> 441 82<298 298>
AnchorPoint: "Anchor-5" 310 527 basechar 0
AnchorPoint: "Anchor-4" 300 0 basechar 0
LayerCount: 2
Fore
SplineSet
523 279 m 0
 523 261 522 245 521 234 c 1
 167 234 l 1
 171 112 239 59 320 59 c 0
 374 59 414 75 461 106 c 1
 500 50 l 1
 471 27 435 10 397 -1 c 1
 296 -45 275 -79 275 -114 c 0
 275 -144 289 -162 331 -162 c 0
 352 -162 368 -160 392 -155 c 1
 384 -223 l 1
 363 -226 347 -229 320 -229 c 0
 244 -229 198 -187 198 -131 c 0
 198 -81 232 -38 300 -11 c 1
 158 -2 79 106 79 263 c 0
 79 422 168 538 308 538 c 0
 441 538 523 439 523 279 c 0
167 298 m 1
 441 298 l 1
 439 411 389 469 309 469 c 0
 231 469 174 414 167 298 c 1
EndSplineSet
Validated: 1
EndChar

StartChar: f
Encoding: 102 102 167
Width: 600
GlyphClass: 2
Flags: MW
HStem: 0 21G<219 304 219 219> 419 67<94 219 94 219 304 473> 680 69<377.5 434>
VStem: 219 85<0 419 0 419 486 591 591 593>
AnchorPoint: "Anchor-5" 370 739 basechar 0
AnchorPoint: "Anchor-4" 261 0 basechar 0
LayerCount: 2
Fore
SplineSet
411 749 m 0
 468 749 513 738 554 721 c 1
 527 658 l 1
 493 673 454 680 414 680 c 0
 341 680 304 651 304 593 c 2
 304 486 l 1
 482 486 l 1
 473 419 l 1
 304 419 l 1
 304 0 l 1
 219 0 l 1
 219 419 l 1
 94 419 l 1
 94 486 l 1
 219 486 l 1
 219 591 l 2
 219 688 302 749 411 749 c 0
EndSplineSet
Validated: 1
EndChar

StartChar: g
Encoding: 103 103 168
Width: 600
GlyphClass: 2
Flags: MW
HStem: -212 68<229 345.5 229 368> 18 73<196 353 258 336> 176 56<276.5 327.5 247 356.5> 476 62<245.5 327> 488 50<226.5 429.5>
VStem: 66 76<-84 -53 -84 -53> 79 86<321 390.5 319 408.5> 109 79<123.5 134.5> 405 87<317 385 303 395.5> 454 85<-85.5 -32>
AnchorPoint: "Anchor-5" 293 527 basechar 0
AnchorPoint: "Anchor-4" 0 0 basechar 0
LayerCount: 2
Fore
SplineSet
529 582 m 5xf280
 554 503 l 5
 510 489 459 488 400 488 c 5
 462 460 492 415 492 355 c 4
 492 251 419 176 294 176 c 4
 259 176 238 179 215 187 c 5
 200 175 188 155 188 136 c 4
 188 111 204 91 258 91 c 6xe980
 353 91 l 6
 459 91 539 30 539 -52 c 4
 539 -155 448 -212 288 -212 c 4
 120 -212 66 -160 66 -53 c 5
 142 -53 l 5xf440
 142 -115 170 -144 288 -144 c 4
 403 -144 454 -114 454 -57 c 4
 454 -7 403 18 336 18 c 6
 242 18 l 6
 150 18 109 65 109 118 c 4xf140
 109 151 129 185 167 210 c 5
 107 241 79 287 79 355 c 4
 79 462 164 538 289 538 c 4
 421 538 467 556 529 582 c 5xf280
288 476 m 4xf280
 203 476 165 426 165 355 c 4
 165 283 204 232 290 232 c 4
 365 232 405 278 405 356 c 4
 405 435 366 476 288 476 c 4xf280
EndSplineSet
Validated: 1
EndChar

StartChar: gbreve
Encoding: 287 287 169
Width: 600
GlyphClass: 2
Flags: MW
HStem: -212 68<229 345.5 229 368> 18 73<196 353 258 336> 176 56<276.5 327.5 247 356.5> 476 62<245.5 327> 488 50<226.5 429.5> 630 64<267.5 315 267.5 337>
VStem: 66 76<-84 -53 -84 -53> 79 86<321 390.5 319 408.5> 109 79<123.5 134.5> 405 87<317 385 303 395.5> 454 85<-85.5 -32>
AnchorPoint: "Anchor-5" 293 527 basechar 0
AnchorPoint: "Anchor-4" 0 0 basechar 0
LayerCount: 2
Fore
SplineSet
291 630 m 0xf540
 200 630 151 705 143 766 c 1
 201 779 l 1
 216 728 244 694 291 694 c 0
 339 694 369 728 384 779 c 1
 441 766 l 1
 433 705 383 630 291 630 c 0xf540
529 582 m 1
 554 503 l 1
 510 489 459 488 400 488 c 1
 462 460 492 415 492 355 c 0
 492 251 419 176 294 176 c 0
 259 176 238 179 215 187 c 1
 200 175 188 155 188 136 c 0
 188 111 204 91 258 91 c 2xecc0
 353 91 l 2
 459 91 539 30 539 -52 c 0
 539 -155 448 -212 288 -212 c 0
 120 -212 66 -160 66 -53 c 1
 142 -53 l 1xf620
 142 -115 170 -144 288 -144 c 0
 403 -144 454 -114 454 -57 c 0
 454 -7 403 18 336 18 c 2
 242 18 l 2
 150 18 109 65 109 118 c 0xf4a0
 109 151 129 185 167 210 c 1
 107 241 79 287 79 355 c 0
 79 462 164 538 289 538 c 0
 421 538 467 556 529 582 c 1
288 476 m 0xf540
 203 476 165 426 165 355 c 0
 165 283 204 232 290 232 c 0
 365 232 405 278 405 356 c 0
 405 435 366 476 288 476 c 0xf540
EndSplineSet
Validated: 1
EndChar

StartChar: gcircumflex
Encoding: 285 285 170
Width: 600
GlyphClass: 2
Flags: MW
HStem: -212 68<229 345.5 229 368> 18 73<196 353 258 336> 176 56<276.5 327.5 247 356.5> 476 62<245.5 327> 488 50<226.5 429.5>
VStem: 66 76<-84 -53 -84 -53> 79 86<321 390.5 319 408.5> 109 79<123.5 134.5> 405 87<317 385 303 395.5> 454 85<-85.5 -32>
AnchorPoint: "Anchor-5" 293 527 basechar 0
AnchorPoint: "Anchor-4" 0 0 basechar 0
LayerCount: 2
Fore
SplineSet
170 629 m 1xf280
 130 670 l 1
 265 789 l 1
 322 789 l 1
 456 670 l 1
 418 629 l 1
 294 720 l 1
 170 629 l 1xf280
529 582 m 1
 554 503 l 1
 510 489 459 488 400 488 c 1
 462 460 492 415 492 355 c 0
 492 251 419 176 294 176 c 0
 259 176 238 179 215 187 c 1
 200 175 188 155 188 136 c 0
 188 111 204 91 258 91 c 2xe980
 353 91 l 2
 459 91 539 30 539 -52 c 0
 539 -155 448 -212 288 -212 c 0
 120 -212 66 -160 66 -53 c 1
 142 -53 l 1xf440
 142 -115 170 -144 288 -144 c 0
 403 -144 454 -114 454 -57 c 0
 454 -7 403 18 336 18 c 2
 242 18 l 2
 150 18 109 65 109 118 c 0xf140
 109 151 129 185 167 210 c 1
 107 241 79 287 79 355 c 0
 79 462 164 538 289 538 c 0
 421 538 467 556 529 582 c 1
288 476 m 0xf280
 203 476 165 426 165 355 c 0
 165 283 204 232 290 232 c 0
 365 232 405 278 405 356 c 0
 405 435 366 476 288 476 c 0xf280
EndSplineSet
Validated: 1
EndChar

StartChar: gcommaaccent
Encoding: 291 291 171
Width: 600
GlyphClass: 2
Flags: MW
HStem: -212 68<229 345.5 229 368> 18 73<196 353 258 336> 176 56<276.5 327.5 247 356.5> 476 62<245.5 327> 488 50<226.5 429.5>
VStem: 66 76<-84 -53 -84 -53> 79 86<321 390.5 319 408.5> 109 79<123.5 134.5> 235 109<636 659.5> 405 87<317 385 303 395.5> 454 85<-85.5 -32>
AnchorPoint: "Anchor-5" 293 527 basechar 0
AnchorPoint: "Anchor-4" 0 0 basechar 0
LayerCount: 2
Fore
SplineSet
290 598 m 0xf2c0
 259 598 235 621 235 651 c 0
 235 668 240 683 250 706 c 2
 301 813 l 1
 351 813 l 1
 322 696 l 1
 336 685 344 669 344 651 c 0
 344 620 320 598 290 598 c 0xf2c0
529 582 m 1
 554 503 l 1
 510 489 459 488 400 488 c 1
 462 460 492 415 492 355 c 0
 492 251 419 176 294 176 c 0
 259 176 238 179 215 187 c 1
 200 175 188 155 188 136 c 0
 188 111 204 91 258 91 c 2xe9c0
 353 91 l 2
 459 91 539 30 539 -52 c 0
 539 -155 448 -212 288 -212 c 0
 120 -212 66 -160 66 -53 c 1
 142 -53 l 1xf4a0
 142 -115 170 -144 288 -144 c 0
 403 -144 454 -114 454 -57 c 0
 454 -7 403 18 336 18 c 2
 242 18 l 2
 150 18 109 65 109 118 c 0xf1a0
 109 151 129 185 167 210 c 1
 107 241 79 287 79 355 c 0
 79 462 164 538 289 538 c 0
 421 538 467 556 529 582 c 1
288 476 m 0xf2c0
 203 476 165 426 165 355 c 0
 165 283 204 232 290 232 c 0
 365 232 405 278 405 356 c 0
 405 435 366 476 288 476 c 0xf2c0
EndSplineSet
Validated: 1
EndChar

StartChar: gdotaccent
Encoding: 289 289 172
Width: 600
GlyphClass: 2
Flags: MW
HStem: -212 68<229 345.5 229 368> 18 73<196 353 258 336> 176 56<276.5 327.5 247 356.5> 476 62<245.5 327> 488 50<226.5 429.5> 655 118<274 310.5>
VStem: 66 76<-84 -53 -84 -53> 79 86<321 390.5 319 408.5> 109 79<123.5 134.5> 232 121<697 731> 405 87<317 385 303 395.5> 454 85<-85.5 -32>
AnchorPoint: "Anchor-5" 293 527 basechar 0
AnchorPoint: "Anchor-4" 0 0 basechar 0
LayerCount: 2
Fore
SplineSet
292 773 m 0xf560
 329 773 353 748 353 714 c 0
 353 680 329 655 292 655 c 0
 256 655 232 680 232 714 c 0
 232 748 256 773 292 773 c 0xf560
529 582 m 1
 554 503 l 1
 510 489 459 488 400 488 c 1
 462 460 492 415 492 355 c 0
 492 251 419 176 294 176 c 0
 259 176 238 179 215 187 c 1
 200 175 188 155 188 136 c 0
 188 111 204 91 258 91 c 2xece0
 353 91 l 2
 459 91 539 30 539 -52 c 0
 539 -155 448 -212 288 -212 c 0
 120 -212 66 -160 66 -53 c 1
 142 -53 l 1xf650
 142 -115 170 -144 288 -144 c 0
 403 -144 454 -114 454 -57 c 0
 454 -7 403 18 336 18 c 2
 242 18 l 2
 150 18 109 65 109 118 c 0xf4d0
 109 151 129 185 167 210 c 1
 107 241 79 287 79 355 c 0
 79 462 164 538 289 538 c 0
 421 538 467 556 529 582 c 1
288 476 m 0xf560
 203 476 165 426 165 355 c 0
 165 283 204 232 290 232 c 0
 365 232 405 278 405 356 c 0
 405 435 366 476 288 476 c 0xf560
EndSplineSet
Validated: 1
EndChar

StartChar: h
Encoding: 104 104 173
Width: 600
GlyphClass: 2
Flags: MW
HStem: 0 21G<100 184 100 100 417 501 417 417> 471 67<321.5 356.5> 727 20G<184 184>
VStem: 100 84<0 384 454 738 738 738> 417 84<0 381 381 382 0 412.5>
AnchorPoint: "Anchor-5" 300 739 basechar 0
AnchorPoint: "Anchor-4" 300 0 basechar 0
LayerCount: 2
Fore
SplineSet
184 747 m 1
 184 454 l 1
 226 509 290 538 353 538 c 0
 456 538 501 480 501 382 c 2
 501 0 l 1
 417 0 l 1
 417 381 l 2
 417 444 388 471 325 471 c 0
 266 471 212 425 184 384 c 1
 184 0 l 1
 100 0 l 1
 100 738 l 1
 184 747 l 1
EndSplineSet
Validated: 1
EndChar

StartChar: hbar
Encoding: 295 295 174
Width: 600
GlyphClass: 2
Flags: MW
HStem: 0 21G<100 184 100 100 417 501 417 417> 471 67<321.5 356.5> 597 68<19 100 19 100 184 353> 727 20G<184 184>
VStem: 100 84<0 384 0 454 454 597 665 738 738 738> 417 84<0 381 381 382 0 412.5>
AnchorPoint: "Anchor-5" 300 739 basechar 0
AnchorPoint: "Anchor-4" 300 0 basechar 0
LayerCount: 2
Fore
SplineSet
353 538 m 0
 456 538 501 480 501 382 c 2
 501 0 l 1
 417 0 l 1
 417 381 l 2
 417 444 388 471 325 471 c 0
 266 471 212 425 184 384 c 1
 184 0 l 1
 100 0 l 1
 100 597 l 1
 19 597 l 1
 19 665 l 1
 100 665 l 1
 100 738 l 1
 184 747 l 1
 184 665 l 1
 353 665 l 1
 353 597 l 1
 184 597 l 1
 184 454 l 1
 226 509 290 538 353 538 c 0
EndSplineSet
Validated: 1
EndChar

StartChar: hcircumflex
Encoding: 293 293 175
Width: 600
GlyphClass: 2
Flags: MW
HStem: 0 21G<100 184 100 100 417 501 417 417> 471 67<321.5 356.5> 727 20G<184 184>
VStem: 100 84<0 384 454 738 738 738> 417 84<0 381 381 382 0 412.5>
AnchorPoint: "Anchor-5" 300 739 basechar 0
AnchorPoint: "Anchor-4" 300 0 basechar 0
LayerCount: 2
Fore
SplineSet
329 960 m 1
 463 853 l 1
 426 810 l 1
 300 891 l 1
 175 810 l 1
 137 853 l 1
 272 960 l 1
 329 960 l 1
184 747 m 1
 184 454 l 1
 226 509 290 538 353 538 c 0
 456 538 501 480 501 382 c 2
 501 0 l 1
 417 0 l 1
 417 381 l 2
 417 444 388 471 325 471 c 0
 266 471 212 425 184 384 c 1
 184 0 l 1
 100 0 l 1
 100 738 l 1
 184 747 l 1
EndSplineSet
Validated: 1
EndChar

StartChar: i
Encoding: 105 105 176
Width: 600
GlyphClass: 2
Flags: MW
HStem: 0 67<121 283 367 515 121 283> 460 67<126 283 126 367> 655 118<282 318.5>
VStem: 240 122<697 731> 283 84<67 460 460 460>
AnchorPoint: "Anchor-5" 0 0 basechar 0
AnchorPoint: "Anchor-4" 300 0 basechar 0
LayerCount: 2
Fore
SplineSet
300 773 m 0xf0
 337 773 362 748 362 714 c 0
 362 680 337 655 300 655 c 0
 264 655 240 680 240 714 c 0
 240 748 264 773 300 773 c 0xf0
367 527 m 1xc8
 367 67 l 1
 515 67 l 1
 515 0 l 1
 121 0 l 1
 121 67 l 1
 283 67 l 1
 283 460 l 1
 126 460 l 1
 126 527 l 1
 367 527 l 1xc8
EndSplineSet
Validated: 1
Substitution2: "'locl' Localized Forms in Latin lookup 10 subtable" i.loclTRK
Substitution2: "'locl' Localized Forms in Latin lookup 8 subtable" i.loclTRK
Substitution2: "'locl' Localized Forms in Latin lookup 6 subtable" i.loclTRK
Substitution2: "'locl' Localized Forms in Latin lookup 3 subtable" i.loclTRK
Substitution2: "'locl' Localized Forms in Latin lookup 2 subtable" i.loclTRK
Substitution2: "'aalt' Access All Alternates in Latin lookup 0 subtable" i.loclTRK
EndChar

StartChar: dotlessi
Encoding: 305 305 177
Width: 600
GlyphClass: 2
Flags: MW
HStem: 0 67<121 283 367 515 121 283> 460 67<126 283 126 367>
VStem: 283 84<67 460 460 460>
AnchorPoint: "Anchor-5" 301 527 basechar 0
AnchorPoint: "Anchor-4" 0 0 basechar 0
LayerCount: 2
Fore
SplineSet
367 527 m 1
 367 67 l 1
 515 67 l 1
 515 0 l 1
 121 0 l 1
 121 67 l 1
 283 67 l 1
 283 460 l 1
 126 460 l 1
 126 527 l 1
 367 527 l 1
EndSplineSet
Validated: 1
EndChar

StartChar: iacute
Encoding: 237 237 178
Width: 600
GlyphClass: 2
Flags: MW
HStem: 0 67<121 283 367 515 121 283> 460 67<126 283 126 367>
VStem: 283 84<67 460 460 460>
AnchorPoint: "Anchor-5" 301 527 basechar 0
AnchorPoint: "Anchor-4" 0 0 basechar 0
LayerCount: 2
Fore
SplineSet
385 797 m 1
 423 725 l 1
 214 640 l 1
 188 685 l 1
 385 797 l 1
367 527 m 1
 367 67 l 1
 515 67 l 1
 515 0 l 1
 121 0 l 1
 121 67 l 1
 283 67 l 1
 283 460 l 1
 126 460 l 1
 126 527 l 1
 367 527 l 1
EndSplineSet
Validated: 1
EndChar

StartChar: ibreve
Encoding: 301 301 179
Width: 600
GlyphClass: 2
Flags: MW
HStem: 0 67<121 283 367 515 121 283> 460 67<126 283 126 367> 630 64<275.5 323 275.5 345>
VStem: 283 84<67 460 460 460>
AnchorPoint: "Anchor-5" 301 527 basechar 0
AnchorPoint: "Anchor-4" 0 0 basechar 0
LayerCount: 2
Fore
SplineSet
299 630 m 0
 208 630 159 705 151 766 c 1
 209 779 l 1
 224 728 252 694 299 694 c 0
 347 694 377 728 392 779 c 1
 449 766 l 1
 441 705 391 630 299 630 c 0
367 527 m 1
 367 67 l 1
 515 67 l 1
 515 0 l 1
 121 0 l 1
 121 67 l 1
 283 67 l 1
 283 460 l 1
 126 460 l 1
 126 527 l 1
 367 527 l 1
EndSplineSet
Validated: 1
EndChar

StartChar: icircumflex
Encoding: 238 238 180
Width: 600
GlyphClass: 2
Flags: MW
HStem: 0 67<121 283 367 515 121 283> 460 67<126 283 126 367>
VStem: 283 84<67 460 460 460>
AnchorPoint: "Anchor-5" 301 527 basechar 0
AnchorPoint: "Anchor-4" 0 0 basechar 0
LayerCount: 2
Fore
SplineSet
178 629 m 1
 138 670 l 1
 273 789 l 1
 330 789 l 1
 464 670 l 1
 426 629 l 1
 302 720 l 1
 178 629 l 1
367 527 m 1
 367 67 l 1
 515 67 l 1
 515 0 l 1
 121 0 l 1
 121 67 l 1
 283 67 l 1
 283 460 l 1
 126 460 l 1
 126 527 l 1
 367 527 l 1
EndSplineSet
Validated: 1
EndChar

StartChar: idieresis
Encoding: 239 239 181
Width: 600
GlyphClass: 2
Flags: MW
HStem: 0 67<121 283 367 515 121 283> 460 67<126 283 126 367> 648 108<181.5 212.5 388.5 419.5>
VStem: 142 109<686 717> 283 84<67 460 460 460> 350 109<686 717>
AnchorPoint: "Anchor-5" 301 700 basechar 0
AnchorPoint: "Anchor-4" 0 0 basechar 0
LayerCount: 2
Fore
SplineSet
197 648 m 0xf8
 166 648 142 671 142 701 c 0
 142 733 166 756 197 756 c 0
 228 756 251 733 251 701 c 0
 251 671 228 648 197 648 c 0xf8
404 648 m 0xf4
 373 648 350 671 350 701 c 0
 350 733 373 756 404 756 c 0
 435 756 459 733 459 701 c 0
 459 671 435 648 404 648 c 0xf4
367 527 m 1xf8
 367 67 l 1
 515 67 l 1
 515 0 l 1
 121 0 l 1
 121 67 l 1
 283 67 l 1
 283 460 l 1
 126 460 l 1
 126 527 l 1
 367 527 l 1xf8
EndSplineSet
Validated: 1
EndChar

StartChar: i.loclTRK
Encoding: 1114118 -1 182
Width: 600
GlyphClass: 2
Flags: MW
HStem: 0 67<121 283 367 515 121 283> 460 67<126 283 126 367> 655 118<282 318.5>
VStem: 240 121<697 731> 283 84<67 460 460 460>
AnchorPoint: "Anchor-5" 301 527 basechar 0
AnchorPoint: "Anchor-4" 0 0 basechar 0
LayerCount: 2
Fore
SplineSet
300 773 m 0xf0
 337 773 361 748 361 714 c 0
 361 680 337 655 300 655 c 0
 264 655 240 680 240 714 c 0
 240 748 264 773 300 773 c 0xf0
367 527 m 1xc8
 367 67 l 1
 515 67 l 1
 515 0 l 1
 121 0 l 1
 121 67 l 1
 283 67 l 1
 283 460 l 1
 126 460 l 1
 126 527 l 1
 367 527 l 1xc8
EndSplineSet
Validated: 1
EndChar

StartChar: igrave
Encoding: 236 236 183
Width: 600
GlyphClass: 2
Flags: MW
HStem: 0 67<121 283 367 515 121 283> 460 67<126 283 126 367>
VStem: 283 84<67 460 460 460>
AnchorPoint: "Anchor-5" 301 527 basechar 0
AnchorPoint: "Anchor-4" 0 0 basechar 0
LayerCount: 2
Fore
SplineSet
388 622 m 1
 185 715 l 1
 231 787 l 1
 415 668 l 1
 388 622 l 1
367 527 m 1
 367 67 l 1
 515 67 l 1
 515 0 l 1
 121 0 l 1
 121 67 l 1
 283 67 l 1
 283 460 l 1
 126 460 l 1
 126 527 l 1
 367 527 l 1
EndSplineSet
Validated: 1
EndChar

StartChar: ij
Encoding: 307 307 184
Width: 600
GlyphClass: 2
Flags: MW
HStem: -212 21G<245 245> 0 67<48 142 223 319 48 142> 462 65<53 142 53 500 223 418 223 223> 655 118<166 202 430 466>
VStem: 124 122<697 731> 142 81<67 462 67 462> 388 122<697 731> 418 82<50 55 55 462 462 462>
LayerCount: 2
Fore
SplineSet
184 773 m 0xfa
 220 773 246 748 246 714 c 0
 246 680 220 655 184 655 c 0
 148 655 124 680 124 714 c 0
 124 748 148 773 184 773 c 0xfa
448 773 m 0
 484 773 510 748 510 714 c 0
 510 680 484 655 448 655 c 0
 412 655 388 680 388 714 c 0
 388 748 412 773 448 773 c 0
500 527 m 1xf5
 500 55 l 2
 500 -90 386 -166 245 -212 c 1
 220 -146 l 1
 315 -110 418 -61 418 50 c 2
 418 462 l 1
 223 462 l 1
 223 67 l 1
 319 67 l 1
 319 0 l 1
 48 0 l 1
 48 67 l 1
 142 67 l 1
 142 462 l 1
 53 462 l 1
 53 527 l 1
 500 527 l 1xf5
EndSplineSet
Validated: 1
EndChar

StartChar: imacron
Encoding: 299 299 185
Width: 600
GlyphClass: 2
Flags: MW
HStem: 0 67<121 283 367 515 121 283> 460 67<126 283 126 367> 676 64<166 435 166 435>
VStem: 166 269<676 740 676 740> 283 84<67 460 460 460>
AnchorPoint: "Anchor-5" 301 527 basechar 0
AnchorPoint: "Anchor-4" 0 0 basechar 0
LayerCount: 2
Fore
SplineSet
435 676 m 1xf0
 166 676 l 1
 166 740 l 1
 435 740 l 1
 435 676 l 1xf0
367 527 m 1xe8
 367 67 l 1
 515 67 l 1
 515 0 l 1
 121 0 l 1
 121 67 l 1
 283 67 l 1
 283 460 l 1
 126 460 l 1
 126 527 l 1
 367 527 l 1xe8
EndSplineSet
Validated: 1
EndChar

StartChar: iogonek
Encoding: 303 303 186
Width: 600
GlyphClass: 2
Flags: MW
HStem: -229 67<278 301.5> 0 67<121 271 121 283 367 515> 460 67<126 283 126 367> 655 118<282 318.5>
VStem: 166 77<-129 -104.5> 240 121<697 731> 283 84<67 460 460 460>
AnchorPoint: "Anchor-5" 301 527 basechar 0
AnchorPoint: "Anchor-4" 0 0 basechar 0
LayerCount: 2
Fore
SplineSet
300 655 m 0xf4
 264 655 240 680 240 714 c 0
 240 748 264 773 300 773 c 0
 337 773 361 748 361 714 c 0
 361 680 337 655 300 655 c 0xf4
367 67 m 1xfa
 515 67 l 1
 515 0 l 1
 367 0 l 1
 264 -45 243 -79 243 -114 c 0
 243 -144 257 -162 299 -162 c 0
 320 -162 336 -160 360 -155 c 1
 352 -223 l 1
 331 -226 315 -229 288 -229 c 0
 212 -229 166 -187 166 -131 c 0
 166 -78 199 -35 271 0 c 1
 121 0 l 1
 121 67 l 1
 283 67 l 1
 283 460 l 1
 126 460 l 1
 126 527 l 1
 367 527 l 1
 367 67 l 1xfa
EndSplineSet
Validated: 1
EndChar

StartChar: itilde
Encoding: 297 297 187
Width: 600
GlyphClass: 2
Flags: MW
HStem: 0 67<121 283 367 515 121 283> 460 67<126 283 126 367> 659 64<340.5 369 340.5 380.5> 707 65<231.5 261> 721 20G<466 466>
VStem: 283 84<67 460 460 460>
AnchorPoint: "Anchor-5" 301 527 basechar 0
AnchorPoint: "Anchor-4" 0 0 basechar 0
LayerCount: 2
Fore
SplineSet
359 659 m 0xe4
 307 659 279 707 243 707 c 0
 220 707 206 691 190 661 c 1
 137 687 l 1
 160 735 195 772 243 772 c 0xd4
 299 772 322 723 359 723 c 0
 379 723 394 737 412 768 c 1xe4
 466 741 l 1xcc
 440 685 402 659 359 659 c 0xe4
367 527 m 1xcc
 367 67 l 1
 515 67 l 1
 515 0 l 1
 121 0 l 1
 121 67 l 1
 283 67 l 1
 283 460 l 1
 126 460 l 1
 126 527 l 1
 367 527 l 1xcc
EndSplineSet
Validated: 1
EndChar

StartChar: j
Encoding: 106 106 188
Width: 600
GlyphClass: 2
Flags: MW
HStem: -212 21G<110 110> 460 67<142 361 142 445> 655 118<349 385.5>
VStem: 306 122<697 731> 361 84<79 84 84 460 460 460>
AnchorPoint: "Anchor-5" 368 527 basechar 0
AnchorPoint: "Anchor-4" 0 0 basechar 0
LayerCount: 2
Fore
SplineSet
367 773 m 4xf0
 404 773 428 748 428 714 c 4
 428 680 404 655 367 655 c 4
 331 655 306 680 306 714 c 4
 306 748 331 773 367 773 c 4xf0
445 527 m 5xe8
 445 84 l 6
 445 -92 322 -176 110 -212 c 5
 96 -147 l 5
 251 -121 361 -63 361 79 c 6
 361 460 l 5
 142 460 l 5
 142 527 l 5
 445 527 l 5xe8
EndSplineSet
Validated: 1
EndChar

StartChar: uni0237
Encoding: 567 567 189
Width: 600
GlyphClass: 2
Flags: MW
HStem: -212 21G<110 110> 460 67<142 361 142 445>
VStem: 361 84<79 84 84 460 460 460>
AnchorPoint: "Anchor-5" 368 527 basechar 0
AnchorPoint: "Anchor-4" 0 0 basechar 0
LayerCount: 2
Fore
SplineSet
445 527 m 1
 445 84 l 2
 445 -92 322 -176 110 -212 c 1
 96 -147 l 1
 251 -121 361 -63 361 79 c 2
 361 460 l 1
 142 460 l 1
 142 527 l 1
 445 527 l 1
EndSplineSet
Validated: 1
EndChar

StartChar: jcircumflex
Encoding: 309 309 190
Width: 600
GlyphClass: 2
Flags: MW
HStem: -212 21G<110 110> 460 67<142 361 142 445>
VStem: 361 84<79 84 84 460 460 460>
AnchorPoint: "Anchor-5" 368 527 basechar 0
AnchorPoint: "Anchor-4" 0 0 basechar 0
LayerCount: 2
Fore
SplineSet
245 629 m 1
 205 670 l 1
 340 789 l 1
 397 789 l 1
 531 670 l 1
 493 629 l 1
 369 720 l 1
 245 629 l 1
445 527 m 1
 445 84 l 2
 445 -92 322 -176 110 -212 c 1
 96 -147 l 1
 251 -121 361 -63 361 79 c 2
 361 460 l 1
 142 460 l 1
 142 527 l 1
 445 527 l 1
EndSplineSet
Validated: 1
EndChar

StartChar: k
Encoding: 107 107 191
Width: 600
GlyphClass: 2
Flags: MW
HStem: 0 21G<106 190 106 106 458 458 458 569> 507 20G<433 541 541 541> 719 20G<106 106> 729 20G<190 190>
VStem: 106 84<0 739 739 739>
AnchorPoint: "Anchor-5" 300 739 basechar 0
AnchorPoint: "Anchor-4" 306 0 basechar 0
LayerCount: 2
Fore
SplineSet
190 749 m 1xd8
 190 0 l 1
 106 0 l 1
 106 739 l 1xe8
 190 749 l 1xd8
541 527 m 1
 305 289 l 1
 569 0 l 1
 458 0 l 1
 199 288 l 1
 433 527 l 1
 541 527 l 1
EndSplineSet
Validated: 1
EndChar

StartChar: kcommaaccent
Encoding: 311 311 192
Width: 600
GlyphClass: 2
Flags: MW
HStem: 0 21G<106 190 106 106 458 458 458 569> 507 20G<433 541 541 541> 719 20G<106 106> 729 20G<190 190>
VStem: 106 84<0 739 739 739> 255 109<-132.5 -109 -132.5 -108.5>
AnchorPoint: "Anchor-5" 300 739 basechar 0
AnchorPoint: "Anchor-4" 306 0 basechar 0
LayerCount: 2
Fore
SplineSet
190 749 m 1xd8
 190 0 l 1
 106 0 l 1
 106 739 l 1xec
 190 749 l 1xd8
541 527 m 1
 305 289 l 1
 569 0 l 1
 458 0 l 1
 199 288 l 1
 433 527 l 1
 541 527 l 1
309 -71 m 0
 340 -71 364 -94 364 -124 c 0
 364 -141 359 -156 349 -179 c 2
 298 -286 l 1
 248 -286 l 1
 277 -169 l 1
 263 -158 255 -142 255 -124 c 0
 255 -93 279 -71 309 -71 c 0
EndSplineSet
Validated: 1
EndChar

StartChar: kgreenlandic
Encoding: 312 312 193
Width: 600
GlyphClass: 2
Flags: MW
HStem: 0 21G<100 184 100 100 453 453 453 563> 507 20G<100 184 184 184 427 536 536 536>
VStem: 100 84<0 527 0 527>
AnchorPoint: "Anchor-5" 300 527 basechar 0
AnchorPoint: "Anchor-4" 300 0 basechar 0
LayerCount: 2
Fore
SplineSet
184 527 m 1
 184 0 l 1
 100 0 l 1
 100 527 l 1
 184 527 l 1
536 527 m 1
 297 288 l 1
 563 0 l 1
 453 0 l 1
 194 283 l 1
 427 527 l 1
 536 527 l 1
EndSplineSet
Validated: 1
EndChar

StartChar: l
Encoding: 108 108 194
Width: 600
GlyphClass: 2
Flags: MW
HStem: -11 70<367.5 405> 672 67<60 222 60 306>
VStem: 222 84<134 672 672 672>
AnchorPoint: "Anchor-5" 265 739 basechar 0
AnchorPoint: "Anchor-4" 361 0 basechar 0
LayerCount: 2
Fore
SplineSet
306 739 m 1
 306 130 l 2
 306 78 342 59 393 59 c 0
 424 59 452 66 481 77 c 1
 503 16 l 1
 475 1 432 -11 378 -11 c 0
 285 -11 222 43 222 134 c 2
 222 672 l 1
 60 672 l 1
 60 739 l 1
 306 739 l 1
EndSplineSet
Validated: 1
EndChar

StartChar: lacute
Encoding: 314 314 195
Width: 600
GlyphClass: 2
Flags: MW
HStem: -11 70<367.5 405> 672 67<60 222 60 306>
VStem: 222 84<134 672 672 672>
AnchorPoint: "Anchor-5" 265 739 basechar 0
AnchorPoint: "Anchor-4" 361 0 basechar 0
LayerCount: 2
Fore
SplineSet
349 1009 m 1
 387 937 l 1
 178 852 l 1
 152 897 l 1
 349 1009 l 1
306 739 m 1
 306 130 l 2
 306 78 342 59 393 59 c 0
 424 59 452 66 481 77 c 1
 503 16 l 1
 475 1 432 -11 378 -11 c 0
 285 -11 222 43 222 134 c 2
 222 672 l 1
 60 672 l 1
 60 739 l 1
 306 739 l 1
EndSplineSet
Validated: 1
EndChar

StartChar: lcaron
Encoding: 318 318 196
Width: 600
GlyphClass: 2
Flags: MW
HStem: -11 70<367.5 405> 672 67<60 222 60 306> 728 20G<382 382>
VStem: 222 84<134 672 672 672>
AnchorPoint: "Anchor-5" 265 739 basechar 0
AnchorPoint: "Anchor-4" 361 0 basechar 0
LayerCount: 2
Fore
SplineSet
382 748 m 1xb0
 458 738 l 1
 405 560 l 1
 357 567 l 1
 382 748 l 1xb0
306 739 m 1xd0
 306 130 l 2
 306 78 342 59 393 59 c 0
 424 59 452 66 481 77 c 1
 503 16 l 1
 475 1 432 -11 378 -11 c 0
 285 -11 222 43 222 134 c 2
 222 672 l 1
 60 672 l 1
 60 739 l 1
 306 739 l 1xd0
EndSplineSet
Validated: 1
EndChar

StartChar: lcommaaccent
Encoding: 316 316 197
Width: 600
GlyphClass: 2
Flags: MW
HStem: -11 70<367.5 405> 672 67<60 222 60 306>
VStem: 222 84<134 672 672 672> 310 109<-132.5 -109 -132.5 -108.5>
AnchorPoint: "Anchor-5" 265 739 basechar 0
AnchorPoint: "Anchor-4" 361 0 basechar 0
LayerCount: 2
Fore
SplineSet
306 739 m 1
 306 130 l 2
 306 78 342 59 393 59 c 0
 424 59 452 66 481 77 c 1
 503 16 l 1
 475 1 432 -11 378 -11 c 0
 285 -11 222 43 222 134 c 2
 222 672 l 1
 60 672 l 1
 60 739 l 1
 306 739 l 1
364 -71 m 0xd0
 395 -71 419 -94 419 -124 c 0
 419 -141 414 -156 404 -179 c 2
 353 -286 l 1
 303 -286 l 1
 332 -169 l 1
 318 -158 310 -142 310 -124 c 0
 310 -93 334 -71 364 -71 c 0xd0
EndSplineSet
Validated: 1
EndChar

StartChar: ldot
Encoding: 320 320 198
Width: 600
GlyphClass: 2
Flags: MW
HStem: -11 70<367.5 405> 322 118<542 578.5> 672 67<60 222 60 306>
VStem: 222 84<134 672 672 672> 500 121<364 398>
AnchorPoint: "Anchor-5" 265 739 basechar 0
AnchorPoint: "Anchor-4" 361 0 basechar 0
LayerCount: 2
Fore
SplineSet
306 739 m 1
 306 130 l 2
 306 78 342 59 393 59 c 0
 424 59 452 66 481 77 c 1
 503 16 l 1
 475 1 432 -11 378 -11 c 0
 285 -11 222 43 222 134 c 2
 222 672 l 1
 60 672 l 1
 60 739 l 1
 306 739 l 1
560 440 m 0
 597 440 621 415 621 381 c 0
 621 347 597 322 560 322 c 0
 524 322 500 347 500 381 c 0
 500 415 524 440 560 440 c 0
EndSplineSet
Validated: 1
Ligature2: "Ligature Substitution lookup 28 subtable" l periodcentered
EndChar

StartChar: lslash
Encoding: 322 322 199
Width: 600
GlyphClass: 2
Flags: MW
HStem: -11 70<367.5 405> 672 67<60 222 60 306>
VStem: 222 84<134 306 306 306 433 672 672 672>
AnchorPoint: "Anchor-5" 265 739 basechar 0
AnchorPoint: "Anchor-4" 361 0 basechar 0
LayerCount: 2
Fore
SplineSet
481 77 m 1
 503 16 l 1
 475 1 432 -11 378 -11 c 0
 285 -11 222 43 222 134 c 2
 222 306 l 1
 154 265 l 1
 118 319 l 1
 222 381 l 1
 222 672 l 1
 60 672 l 1
 60 739 l 1
 306 739 l 1
 306 433 l 1
 395 489 l 1
 431 435 l 1
 306 357 l 1
 306 130 l 2
 306 78 342 59 393 59 c 0
 424 59 452 66 481 77 c 1
EndSplineSet
Validated: 1
EndChar

StartChar: m
Encoding: 109 109 200
Width: 600
GlyphClass: 2
Flags: MW
HStem: 0 21G<51 128 51 51 261 339 261 261 472 549 472 472> 472 66<209.5 239 420.5 450> 507 20G<51 116 116 116>
VStem: 51 77<0 409 0 527> 261 78<0 378 378 409 0 411.5> 472 77<0 378 378 392 0 411.5>
AnchorPoint: "Anchor-5" 300 527 basechar 0
AnchorPoint: "Anchor-4" 300 0 basechar 0
LayerCount: 2
Fore
SplineSet
447 538 m 0xdc
 498 538 549 513 549 392 c 2
 549 0 l 1
 472 0 l 1
 472 378 l 2
 472 445 469 472 431 472 c 0
 399 472 368 454 339 409 c 1
 339 0 l 1
 261 0 l 1
 261 378 l 2
 261 445 258 472 220 472 c 0
 187 472 157 454 128 409 c 1xdc
 128 0 l 1
 51 0 l 1
 51 527 l 1
 116 527 l 1xbc
 122 465 l 1
 150 506 183 538 236 538 c 0
 276 538 315 522 331 468 c 1
 360 510 394 538 447 538 c 0xdc
EndSplineSet
Validated: 1
EndChar

StartChar: n
Encoding: 110 110 201
Width: 600
GlyphClass: 2
Flags: MW
HStem: 0 21G<100 100 100 184 417 417 417 501> 471 67<322 366.5> 507 20G<100 172 172 172>
VStem: 100 84<0 383 0 527> 417 84<0 320 320 374>
AnchorPoint: "Anchor-5" 300 527 basechar 0
AnchorPoint: "Anchor-4" 301 0 basechar 0
LayerCount: 2
Fore
SplineSet
100 0 m 5xd8
 100 527 l 5
 172 527 l 5xb8
 179 453 l 5
 221 507 291 538 353 538 c 4
 456 538 501 480 501 382 c 6
 501 0 l 5
 417 0 l 5
 417 320 l 6
 417 428 406 471 327 471 c 4
 265 471 212 425 184 383 c 5
 184 0 l 5
 100 0 l 5xd8
EndSplineSet
Validated: 1
EndChar

StartChar: nacute
Encoding: 324 324 202
Width: 600
GlyphClass: 2
Flags: MW
HStem: 0 21G<100 100 100 184 417 417 417 501> 471 67<322 366.5> 507 20G<100 172 172 172>
VStem: 100 84<0 383 0 527> 417 84<0 320 320 374>
AnchorPoint: "Anchor-5" 300 527 basechar 0
AnchorPoint: "Anchor-4" 301 0 basechar 0
LayerCount: 2
Fore
SplineSet
384 797 m 1xd8
 422 725 l 1
 213 640 l 1
 187 685 l 1
 384 797 l 1xd8
100 0 m 1
 100 527 l 1
 172 527 l 1xb8
 179 453 l 1
 221 507 291 538 353 538 c 0
 456 538 501 480 501 382 c 2
 501 0 l 1
 417 0 l 1
 417 320 l 2
 417 428 406 471 327 471 c 0
 265 471 212 425 184 383 c 1
 184 0 l 1
 100 0 l 1
EndSplineSet
Validated: 1
Substitution2: "'locl' Localized Forms in Latin lookup 7 subtable" nacute.loclPLK
Substitution2: "'aalt' Access All Alternates in Latin lookup 0 subtable" nacute.loclPLK
EndChar

StartChar: napostrophe
Encoding: 329 329 203
Width: 600
GlyphClass: 2
Flags: MW
HStem: 0 21G<109 109 109 193 426 426 426 510> 471 67<330.5 375> 507 20G<109 181 181 181> 732 20G<48 78.5>
VStem: 8 110<690 713.5 690 713.5> 109 84<0 383 0 527> 426 84<0 320 320 374>
AnchorPoint: "Anchor-5" 309 527 basechar 0
AnchorPoint: "Anchor-4" 310 0 basechar 0
LayerCount: 2
Fore
SplineSet
63 752 m 0xda
 94 752 118 729 118 698 c 0
 118 682 113 666 92 621 c 2
 51 534 l 1
 1 534 l 1
 31 653 l 1
 17 665 8 680 8 698 c 0
 8 729 33 752 63 752 c 0xda
109 0 m 1xd6
 109 527 l 1
 181 527 l 1xb6
 187 453 l 1
 230 507 300 538 361 538 c 0
 465 538 510 480 510 382 c 2
 510 0 l 1
 426 0 l 1
 426 320 l 2
 426 428 415 471 335 471 c 0
 273 471 221 425 193 383 c 1
 193 0 l 1
 109 0 l 1xd6
EndSplineSet
Validated: 1
Ligature2: "'locl' Localized Forms in Latin lookup 11 subtable" quoteright n
Ligature2: "'locl' Localized Forms in Latin lookup 11 subtable" quotesingle n
EndChar

StartChar: ncaron
Encoding: 328 328 204
Width: 600
GlyphClass: 2
Flags: MW
HStem: 0 21G<100 100 100 184 417 417 417 501> 471 67<322 366.5> 507 20G<100 172 172 172> 629 70<301 301 301 329 272 301> 679 20G<301 301> 728 20G<137 137 463 463>
VStem: 100 84<0 383 0 527> 417 84<0 320 320 374>
AnchorPoint: "Anchor-5" 300 527 basechar 0
AnchorPoint: "Anchor-4" 301 0 basechar 0
LayerCount: 2
Fore
SplineSet
425 789 m 1xcf
 463 748 l 1
 329 629 l 1
 272 629 l 1xd7
 137 748 l 1
 177 789 l 1
 301 699 l 1
 425 789 l 1xcf
100 0 m 1
 100 527 l 1
 172 527 l 1xaf
 179 453 l 1
 221 507 291 538 353 538 c 0
 456 538 501 480 501 382 c 2
 501 0 l 1
 417 0 l 1
 417 320 l 2
 417 428 406 471 327 471 c 0
 265 471 212 425 184 383 c 1
 184 0 l 1
 100 0 l 1
EndSplineSet
Validated: 1
EndChar

StartChar: ncommaaccent
Encoding: 326 326 205
Width: 600
GlyphClass: 2
Flags: MW
HStem: 0 21G<100 100 100 184 417 417 417 501> 471 67<322 366.5> 507 20G<100 172 172 172>
VStem: 100 84<0 383 0 527> 250 109<-132.5 -109 -132.5 -108.5> 417 84<0 320 320 374>
AnchorPoint: "Anchor-5" 300 527 basechar 0
AnchorPoint: "Anchor-4" 301 0 basechar 0
LayerCount: 2
Fore
SplineSet
100 0 m 1xd4
 100 527 l 1
 172 527 l 1xbc
 179 453 l 1
 221 507 291 538 353 538 c 0
 456 538 501 480 501 382 c 2
 501 0 l 1
 417 0 l 1
 417 320 l 2
 417 428 406 471 327 471 c 0
 265 471 212 425 184 383 c 1
 184 0 l 1
 100 0 l 1xd4
304 -71 m 0
 335 -71 359 -94 359 -124 c 0
 359 -141 354 -156 344 -179 c 2
 293 -286 l 1
 243 -286 l 1
 272 -169 l 1
 258 -158 250 -142 250 -124 c 0
 250 -93 274 -71 304 -71 c 0
EndSplineSet
Validated: 1
EndChar

StartChar: eng
Encoding: 331 331 206
Width: 600
GlyphClass: 2
Flags: MW
HStem: -211 21G<346 346> 0 21G<100 184 100 100> 471 67<322 366> 507 20G<100 172 172 172>
VStem: 100 84<0 384 0 527> 417 84<23 29 29 320 320 374>
LayerCount: 2
Fore
SplineSet
501 29 m 2xec
 501 -121 449 -164 346 -211 c 1
 315 -150 l 1
 384 -117 417 -92 417 23 c 2
 417 320 l 2
 417 428 407 471 325 471 c 0
 266 471 212 425 184 384 c 1xec
 184 0 l 1
 100 0 l 1
 100 527 l 1
 172 527 l 1xdc
 179 453 l 1
 221 507 291 538 353 538 c 0
 456 538 501 480 501 382 c 2
 501 29 l 2xec
EndSplineSet
Validated: 1
EndChar

StartChar: ntilde
Encoding: 241 241 207
Width: 600
GlyphClass: 2
Flags: MW
HStem: 0 21G<100 100 100 184 417 417 417 501> 471 67<322 366.5> 507 20G<100 172 172 172> 659 64<339.5 368 339.5 379.5> 707 65<230.5 260> 721 20G<465 465>
VStem: 100 84<0 383 0 527> 417 84<0 320 320 374>
AnchorPoint: "Anchor-5" 300 527 basechar 0
AnchorPoint: "Anchor-4" 301 0 basechar 0
LayerCount: 2
Fore
SplineSet
358 659 m 0xd3
 306 659 278 707 242 707 c 0
 219 707 205 691 189 661 c 1
 136 687 l 1
 159 735 194 772 242 772 c 0xcb
 298 772 321 723 358 723 c 0
 378 723 393 737 411 768 c 1xd3
 465 741 l 1xc7
 439 685 401 659 358 659 c 0xd3
100 0 m 1xc7
 100 527 l 1
 172 527 l 1xa7
 179 453 l 1
 221 507 291 538 353 538 c 0
 456 538 501 480 501 382 c 2
 501 0 l 1
 417 0 l 1
 417 320 l 2
 417 428 406 471 327 471 c 0
 265 471 212 425 184 383 c 1
 184 0 l 1
 100 0 l 1xc7
EndSplineSet
Validated: 1
EndChar

StartChar: o
Encoding: 111 111 208
Width: 600
GlyphClass: 2
Flags: MW
HStem: -11 69<254.5 345.5 254.5 373.5> 469 69<255.5 346>
VStem: 73 91<193 333 193 344> 436 91<193.5 333.5>
AnchorPoint: "Anchor-5" 300 527 basechar 0
AnchorPoint: "Anchor-4" 300 0 basechar 0
LayerCount: 2
Fore
SplineSet
301 538 m 0
 449 538 527 430 527 264 c 0
 527 102 447 -11 300 -11 c 0
 152 -11 73 97 73 263 c 0
 73 425 153 538 301 538 c 0
301 469 m 0
 210 469 164 403 164 263 c 0
 164 123 209 58 300 58 c 0
 391 58 436 123 436 264 c 0
 436 403 391 469 301 469 c 0
EndSplineSet
Validated: 1
Substitution2: "Single Substitution lookup 29 subtable" ordmasculine
Substitution2: "'aalt' Access All Alternates in Latin lookup 0 subtable" ordmasculine
EndChar

StartChar: oacute
Encoding: 243 243 209
Width: 600
GlyphClass: 2
Flags: MW
HStem: -11 69<254.5 345.5 254.5 373.5> 469 69<255.5 346>
VStem: 73 91<193 333 193 344> 436 91<193.5 333.5>
AnchorPoint: "Anchor-5" 300 527 basechar 0
AnchorPoint: "Anchor-4" 300 0 basechar 0
LayerCount: 2
Fore
SplineSet
384 797 m 1
 422 725 l 1
 213 640 l 1
 187 685 l 1
 384 797 l 1
301 538 m 0
 449 538 527 430 527 264 c 0
 527 102 447 -11 300 -11 c 0
 152 -11 73 97 73 263 c 0
 73 425 153 538 301 538 c 0
301 469 m 0
 210 469 164 403 164 263 c 0
 164 123 209 58 300 58 c 0
 391 58 436 123 436 264 c 0
 436 403 391 469 301 469 c 0
EndSplineSet
Validated: 1
Substitution2: "'locl' Localized Forms in Latin lookup 7 subtable" oacute.loclPLK
Substitution2: "'aalt' Access All Alternates in Latin lookup 0 subtable" oacute.loclPLK
EndChar

StartChar: obreve
Encoding: 335 335 210
Width: 600
GlyphClass: 2
Flags: MW
HStem: -11 69<254.5 345.5 254.5 373.5> 469 69<255.5 346> 630 64<274.5 322 274.5 344>
VStem: 73 91<193 333 193 344> 436 91<193.5 333.5>
AnchorPoint: "Anchor-5" 300 527 basechar 0
AnchorPoint: "Anchor-4" 300 0 basechar 0
LayerCount: 2
Fore
SplineSet
298 630 m 0
 207 630 158 705 150 766 c 1
 208 779 l 1
 223 728 251 694 298 694 c 0
 346 694 376 728 391 779 c 1
 448 766 l 1
 440 705 390 630 298 630 c 0
301 538 m 0
 449 538 527 430 527 264 c 0
 527 102 447 -11 300 -11 c 0
 152 -11 73 97 73 263 c 0
 73 425 153 538 301 538 c 0
301 469 m 0
 210 469 164 403 164 263 c 0
 164 123 209 58 300 58 c 0
 391 58 436 123 436 264 c 0
 436 403 391 469 301 469 c 0
EndSplineSet
Validated: 1
EndChar

StartChar: ocircumflex
Encoding: 244 244 211
Width: 600
GlyphClass: 2
Flags: MW
HStem: -11 69<254.5 345.5 254.5 373.5> 469 69<255.5 346>
VStem: 73 91<193 333 193 344> 436 91<193.5 333.5>
AnchorPoint: "Anchor-5" 300 527 basechar 0
AnchorPoint: "Anchor-4" 300 0 basechar 0
LayerCount: 2
Fore
SplineSet
177 629 m 1
 137 670 l 1
 272 789 l 1
 329 789 l 1
 463 670 l 1
 425 629 l 1
 301 720 l 1
 177 629 l 1
301 538 m 0
 449 538 527 430 527 264 c 0
 527 102 447 -11 300 -11 c 0
 152 -11 73 97 73 263 c 0
 73 425 153 538 301 538 c 0
301 469 m 0
 210 469 164 403 164 263 c 0
 164 123 209 58 300 58 c 0
 391 58 436 123 436 264 c 0
 436 403 391 469 301 469 c 0
EndSplineSet
Validated: 1
EndChar

StartChar: odieresis
Encoding: 246 246 212
Width: 600
GlyphClass: 2
Flags: MW
HStem: -11 69<254.5 345.5 254.5 373.5> 469 69<255.5 346> 648 108<180.5 211.5 387.5 418.5>
VStem: 73 91<193 333 193 344> 141 109<686 717> 349 109<686 717> 436 91<193.5 333.5>
AnchorPoint: "Anchor-5" 300 700 basechar 0
AnchorPoint: "Anchor-4" 300 0 basechar 0
LayerCount: 2
Fore
SplineSet
196 648 m 0xec
 165 648 141 671 141 701 c 0
 141 733 165 756 196 756 c 0
 227 756 250 733 250 701 c 0
 250 671 227 648 196 648 c 0xec
403 648 m 0
 372 648 349 671 349 701 c 0
 349 733 372 756 403 756 c 0
 434 756 458 733 458 701 c 0
 458 671 434 648 403 648 c 0
301 538 m 0xd2
 449 538 527 430 527 264 c 0
 527 102 447 -11 300 -11 c 0
 152 -11 73 97 73 263 c 0
 73 425 153 538 301 538 c 0xd2
301 469 m 0
 210 469 164 403 164 263 c 0
 164 123 209 58 300 58 c 0
 391 58 436 123 436 264 c 0
 436 403 391 469 301 469 c 0
EndSplineSet
Validated: 1
EndChar

StartChar: ograve
Encoding: 242 242 213
Width: 600
GlyphClass: 2
Flags: MW
HStem: -11 69<254.5 345.5 254.5 373.5> 469 69<255.5 346>
VStem: 73 91<193 333 193 344> 436 91<193.5 333.5>
AnchorPoint: "Anchor-5" 300 527 basechar 0
AnchorPoint: "Anchor-4" 300 0 basechar 0
LayerCount: 2
Fore
SplineSet
387 622 m 1
 184 715 l 1
 230 787 l 1
 414 668 l 1
 387 622 l 1
301 538 m 0
 449 538 527 430 527 264 c 0
 527 102 447 -11 300 -11 c 0
 152 -11 73 97 73 263 c 0
 73 425 153 538 301 538 c 0
301 469 m 0
 210 469 164 403 164 263 c 0
 164 123 209 58 300 58 c 0
 391 58 436 123 436 264 c 0
 436 403 391 469 301 469 c 0
EndSplineSet
Validated: 1
EndChar

StartChar: ohungarumlaut
Encoding: 337 337 214
Width: 600
GlyphClass: 2
Flags: MW
HStem: -11 69<254.5 345.5 254.5 373.5> 469 69<255.5 346>
VStem: 73 91<193 333 193 344> 436 91<193.5 333.5>
AnchorPoint: "Anchor-5" 300 527 basechar 0
AnchorPoint: "Anchor-4" 300 0 basechar 0
LayerCount: 2
Fore
SplineSet
176 662 m 1
 254 836 l 1
 329 800 l 1
 232 636 l 1
 176 662 l 1
341 662 m 1
 428 836 l 1
 502 797 l 1
 394 634 l 1
 341 662 l 1
301 538 m 0
 449 538 527 430 527 264 c 0
 527 102 447 -11 300 -11 c 0
 152 -11 73 97 73 263 c 0
 73 425 153 538 301 538 c 0
301 469 m 0
 210 469 164 403 164 263 c 0
 164 123 209 58 300 58 c 0
 391 58 436 123 436 264 c 0
 436 403 391 469 301 469 c 0
EndSplineSet
Validated: 1
EndChar

StartChar: omacron
Encoding: 333 333 215
Width: 600
GlyphClass: 2
Flags: MW
HStem: -11 69<254.5 345.5 254.5 373.5> 469 69<255.5 346> 676 64<165 434 165 434>
VStem: 73 91<193 333 193 344> 165 269<676 740 676 740> 436 91<193.5 333.5>
AnchorPoint: "Anchor-5" 300 527 basechar 0
AnchorPoint: "Anchor-4" 300 0 basechar 0
LayerCount: 2
Fore
SplineSet
434 676 m 1
 165 676 l 1
 165 740 l 1
 434 740 l 1
 434 676 l 1
301 538 m 0xf4
 449 538 527 430 527 264 c 0
 527 102 447 -11 300 -11 c 0
 152 -11 73 97 73 263 c 0
 73 425 153 538 301 538 c 0xf4
301 469 m 0
 210 469 164 403 164 263 c 0
 164 123 209 58 300 58 c 0
 391 58 436 123 436 264 c 0
 436 403 391 469 301 469 c 0
EndSplineSet
Validated: 1
EndChar

StartChar: oslash
Encoding: 248 248 216
Width: 600
GlyphClass: 2
Flags: MW
HStem: -11 69<294 345 294 373.5> -7 21G<250 250> 469 69<256 307> 513 20G<350 350>
VStem: 73 91<217 333 217 344> 436 91<194 309.5>
AnchorPoint: "Anchor-5" 300 527 basechar 0
AnchorPoint: "Anchor-4" 0 0 basechar 0
LayerCount: 2
Fore
SplineSet
417 508 m 1xac
 487 465 527 378 527 264 c 0
 527 102 447 -11 300 -11 c 0xac
 282 -11 266 -10 250 -7 c 1
 213 -130 l 1
 143 -110 l 1
 185 18 l 1
 113 61 73 148 73 263 c 0
 73 425 153 538 301 538 c 0x6c
 318 538 334 536 350 533 c 1x9c
 388 654 l 1
 458 633 l 1
 417 508 l 1xac
301 469 m 0
 211 469 164 403 164 263 c 0
 164 171 182 115 216 85 c 1
 334 466 l 1
 324 468 313 469 301 469 c 0
300 58 m 0
 390 58 436 124 436 264 c 0
 436 355 419 411 385 441 c 1
 267 61 l 1
 277 59 288 58 300 58 c 0
EndSplineSet
Validated: 1
EndChar

StartChar: oslashacute
Encoding: 511 511 217
Width: 600
GlyphClass: 2
Flags: MW
HStem: -11 69<294 345 294 373.5> -7 21G<250 250> 469 69<256 307> 513 20G<350 350>
VStem: 73 91<217 333 217 344> 436 91<194 309.5>
AnchorPoint: "Anchor-5" 300 527 basechar 0
AnchorPoint: "Anchor-4" 0 0 basechar 0
LayerCount: 2
Fore
SplineSet
422 725 m 1xac
 213 640 l 1
 187 685 l 1
 384 797 l 1
 422 725 l 1xac
417 508 m 1
 487 465 527 378 527 264 c 0
 527 102 447 -11 300 -11 c 0xac
 282 -11 266 -10 250 -7 c 1
 213 -130 l 1
 143 -110 l 1
 185 18 l 1
 113 61 73 148 73 263 c 0
 73 425 153 538 301 538 c 0x6c
 318 538 334 536 350 533 c 1x9c
 388 654 l 1
 458 633 l 1
 417 508 l 1
301 469 m 0
 211 469 164 403 164 263 c 0
 164 171 182 115 216 85 c 1
 334 466 l 1
 324 468 313 469 301 469 c 0
300 58 m 0
 390 58 436 124 436 264 c 0
 436 355 419 411 385 441 c 1
 267 61 l 1
 277 59 288 58 300 58 c 0
EndSplineSet
Validated: 1
EndChar

StartChar: otilde
Encoding: 245 245 218
Width: 600
GlyphClass: 2
Flags: MW
HStem: -11 69<254.5 345.5 254.5 373.5> 469 69<255.5 346> 659 64<339.5 368 339.5 379.5> 707 65<230.5 260> 721 20G<465 465>
VStem: 73 91<193 333 193 344> 436 91<193.5 333.5>
AnchorPoint: "Anchor-5" 300 527 basechar 0
AnchorPoint: "Anchor-4" 300 0 basechar 0
LayerCount: 2
Fore
SplineSet
358 659 m 0xe6
 306 659 278 707 242 707 c 0
 219 707 205 691 189 661 c 1
 136 687 l 1
 159 735 194 772 242 772 c 0xd6
 298 772 321 723 358 723 c 0
 378 723 393 737 411 768 c 1xe6
 465 741 l 1xce
 439 685 401 659 358 659 c 0xe6
301 538 m 0xce
 449 538 527 430 527 264 c 0
 527 102 447 -11 300 -11 c 0
 152 -11 73 97 73 263 c 0
 73 425 153 538 301 538 c 0xce
301 469 m 0
 210 469 164 403 164 263 c 0
 164 123 209 58 300 58 c 0
 391 58 436 123 436 264 c 0
 436 403 391 469 301 469 c 0
EndSplineSet
Validated: 1
EndChar

StartChar: oe
Encoding: 339 339 219
Width: 600
GlyphClass: 2
Flags: MW
HStem: -11 69<145 206> 233 66<350 533 350 613 350 533> 470 68<145 208.5 107.5 210>
VStem: -2 89<191 333 191 344> 266 84<233 233 233 299 233 334> 533 82<299 299>
LayerCount: 2
Fore
SplineSet
449 538 m 0
 565 538 615 440 615 279 c 0
 615 261 614 245 613 233 c 1
 350 233 l 1
 359 113 390 59 460 59 c 0
 497 59 523 73 556 99 c 1
 595 41 l 1
 555 9 515 -11 458 -11 c 0
 385 -11 335 25 309 90 c 1
 284 30 245 -11 167 -11 c 0
 50 -11 -2 97 -2 263 c 0
 -2 425 48 538 167 538 c 0
 250 538 287 497 309 435 c 1
 333 494 374 538 449 538 c 0
178 470 m 0
 112 470 87 403 87 263 c 0
 87 119 112 58 178 58 c 0
 243 58 266 113 266 264 c 0
 266 404 242 470 178 470 c 0
447 468 m 0
 386 468 358 424 350 299 c 1
 533 299 l 1
 531 409 512 468 447 468 c 0
EndSplineSet
Validated: 1
EndChar

StartChar: p
Encoding: 112 112 220
Width: 600
GlyphClass: 2
Flags: MW
HStem: -212 21G<100 100> -202 21G<184 184> -11 70<295 348.5 280 392.5> 470 68<304.5 357.5> 507 20G<100 172 172 172>
VStem: 100 84<-202 49 -202 125 125 386> 436 91<194 332.5>
AnchorPoint: "Anchor-5" 300 527 basechar 0
AnchorPoint: "Anchor-4" 300 0 basechar 0
LayerCount: 2
Fore
SplineSet
336 538 m 0x76
 476 538 527 429 527 264 c 0
 527 104 461 -11 324 -11 c 0
 266 -11 220 9 184 49 c 1
 184 -202 l 1x76
 100 -212 l 1
 100 527 l 1
 172 527 l 1xae
 179 453 l 1
 217 507 273 538 336 538 c 0x76
316 470 m 0
 258 470 213 428 184 386 c 1
 184 125 l 1
 212 84 255 59 305 59 c 0
 392 59 436 124 436 264 c 0
 436 401 399 470 316 470 c 0
EndSplineSet
Validated: 1
EndChar

StartChar: thorn
Encoding: 254 254 221
Width: 600
GlyphClass: 2
Flags: MW
HStem: -212 21G<100 100> -202 21G<184 184> -11 70<295 348.5 280 392.5> 470 68<306.5 357.5> 719 20G<100 100> 729 20G<184 184>
VStem: 100 84<-202 49 -202 125 125 386 461 739 739 739> 436 91<194 332.5>
AnchorPoint: "Anchor-5" 300 739 basechar 0
AnchorPoint: "Anchor-4" 300 -200 basechar 0
LayerCount: 2
Fore
SplineSet
184 749 m 1x77
 184 461 l 1
 223 511 277 538 336 538 c 0
 476 538 527 429 527 264 c 0
 527 104 461 -11 324 -11 c 0
 266 -11 220 9 184 49 c 1
 184 -202 l 1x77
 100 -212 l 1
 100 739 l 1xbb
 184 749 l 1x77
316 470 m 0
 258 470 213 428 184 386 c 1
 184 125 l 1
 212 84 255 59 305 59 c 0
 392 59 436 124 436 264 c 0
 436 401 399 470 316 470 c 0
EndSplineSet
Validated: 1
EndChar

StartChar: q
Encoding: 113 113 222
Width: 600
GlyphClass: 2
Flags: MW
HStem: -212 21G<500 500> -202 21G<416 416> -11 70<244 296> 470 68<251.5 305.5 209 320> 507 20G<428 500 500 500>
VStem: 73 91<194.5 332.5 194.5 342> 416 84<-202 66 66 66 140 402 402 402>
AnchorPoint: "Anchor-5" 300 527 basechar 0
AnchorPoint: "Anchor-4" 300 0 basechar 0
LayerCount: 2
Fore
SplineSet
274 538 m 0x76
 337 538 386 513 421 469 c 1x76
 428 527 l 1
 500 527 l 1
 500 -212 l 1xae
 416 -202 l 1
 416 66 l 1
 377 12 325 -11 267 -11 c 0
 126 -11 73 97 73 263 c 0
 73 421 144 538 274 538 c 0x76
295 470 m 0
 208 470 164 402 164 263 c 0
 164 126 203 59 285 59 c 0
 343 59 387 96 416 140 c 1
 416 402 l 1
 388 445 345 470 295 470 c 0
EndSplineSet
Validated: 1
EndChar

StartChar: r
Encoding: 114 114 223
Width: 600
GlyphClass: 2
Flags: MW
HStem: 0 65<105 188 272 379 105 188> 461 77<408.5 445 445 450> 462 65<105 188 105 251>
VStem: 188 84<65 287 65 462> 450 74
AnchorPoint: "Anchor-5" 331 527 basechar 0
AnchorPoint: "Anchor-4" 230 0 basechar 0
LayerCount: 2
Fore
SplineSet
456 538 m 0xd8
 485 538 507 533 530 527 c 1xb8
 518 348 l 1
 450 348 l 1
 450 461 l 1
 445 461 l 2xd8
 364 461 306 403 272 287 c 1
 272 65 l 1
 379 65 l 1
 379 0 l 1
 105 0 l 1
 105 65 l 1
 188 65 l 1
 188 462 l 1
 105 462 l 1
 105 527 l 1
 251 527 l 1xb8
 267 402 l 1
 307 488 361 538 456 538 c 0xd8
EndSplineSet
Validated: 1
EndChar

StartChar: racute
Encoding: 341 341 224
Width: 600
GlyphClass: 2
Flags: MW
HStem: 0 65<105 188 272 379 105 188> 461 77<408.5 445 445 450> 462 65<105 188 105 251>
VStem: 188 84<65 287 65 462> 450 74
AnchorPoint: "Anchor-5" 331 527 basechar 0
AnchorPoint: "Anchor-4" 230 0 basechar 0
LayerCount: 2
Fore
SplineSet
453 725 m 1xb8
 244 640 l 1
 218 685 l 1
 415 797 l 1
 453 725 l 1xb8
456 538 m 0xd8
 485 538 507 533 530 527 c 1xb8
 518 348 l 1
 450 348 l 1
 450 461 l 1
 445 461 l 2xd8
 364 461 306 403 272 287 c 1
 272 65 l 1
 379 65 l 1
 379 0 l 1
 105 0 l 1
 105 65 l 1
 188 65 l 1
 188 462 l 1
 105 462 l 1
 105 527 l 1
 251 527 l 1xb8
 267 402 l 1
 307 488 361 538 456 538 c 0xd8
EndSplineSet
Validated: 1
EndChar

StartChar: rcaron
Encoding: 345 345 225
Width: 600
GlyphClass: 2
Flags: MW
HStem: 0 65<105 188 272 379 105 188> 461 77<408.5 445 445 450> 462 65<105 188 105 251> 629 70<332 332 332 360 303 332> 679 20G<332 332> 728 20G<168 168 494 494>
VStem: 188 84<65 287 65 462> 450 74
AnchorPoint: "Anchor-5" 331 527 basechar 0
AnchorPoint: "Anchor-4" 230 0 basechar 0
LayerCount: 2
Fore
SplineSet
360 629 m 1xd7
 303 629 l 1
 168 748 l 1
 208 789 l 1
 332 699 l 1
 456 789 l 1
 494 748 l 1
 360 629 l 1xd7
456 538 m 0
 485 538 507 533 530 527 c 1xaf
 518 348 l 1
 450 348 l 1
 450 461 l 1
 445 461 l 2xcf
 364 461 306 403 272 287 c 1
 272 65 l 1
 379 65 l 1
 379 0 l 1
 105 0 l 1
 105 65 l 1
 188 65 l 1
 188 462 l 1
 105 462 l 1
 105 527 l 1
 251 527 l 1xaf
 267 402 l 1
 307 488 361 538 456 538 c 0
EndSplineSet
Validated: 1
EndChar

StartChar: rcommaaccent
Encoding: 343 343 226
Width: 600
GlyphClass: 2
Flags: MW
HStem: 0 65<105 188 272 379 105 188> 461 77<408.5 445 445 450> 462 65<105 188 105 251>
VStem: 179 109<-132.5 -109 -132.5 -108.5> 188 84<65 287 65 462> 450 74
AnchorPoint: "Anchor-5" 331 527 basechar 0
AnchorPoint: "Anchor-4" 230 0 basechar 0
LayerCount: 2
Fore
SplineSet
456 538 m 0xcc
 485 538 507 533 530 527 c 1xac
 518 348 l 1
 450 348 l 1
 450 461 l 1
 445 461 l 2xcc
 364 461 306 403 272 287 c 1
 272 65 l 1
 379 65 l 1
 379 0 l 1
 105 0 l 1
 105 65 l 1
 188 65 l 1
 188 462 l 1
 105 462 l 1
 105 527 l 1
 251 527 l 1xac
 267 402 l 1
 307 488 361 538 456 538 c 0xcc
233 -71 m 0xb4
 264 -71 288 -94 288 -124 c 0
 288 -141 283 -156 273 -179 c 2
 222 -286 l 1
 172 -286 l 1
 201 -169 l 1
 187 -158 179 -142 179 -124 c 0
 179 -93 203 -71 233 -71 c 0xb4
EndSplineSet
Validated: 1
EndChar

StartChar: s
Encoding: 115 115 227
Width: 600
GlyphClass: 2
Flags: MW
HStem: -11 69<249 320.5 249 336> 470 68<263 339>
VStem: 103 88<377 421 377 438> 410 91<116.5 165.5>
AnchorPoint: "Anchor-5" 307 527 basechar 0
AnchorPoint: "Anchor-4" 297 0 basechar 0
LayerCount: 2
Fore
SplineSet
280 58 m 4
 361 58 410 91 410 142 c 4
 410 189 395 214 283 242 c 4
 174 269 103 302 103 394 c 4
 103 482 184 538 303 538 c 4
 388 538 450 512 495 480 c 5
 457 422 l 5
 418 449 373 470 305 470 c 4
 221 470 191 441 191 401 c 4
 191 353 224 337 330 308 c 4
 433 280 501 244 501 146 c 4
 501 33 392 -11 280 -11 c 4
 184 -11 119 21 74 60 c 5
 121 115 l 5
 162 81 218 58 280 58 c 4
EndSplineSet
Validated: 1
EndChar

StartChar: sacute
Encoding: 347 347 228
Width: 600
GlyphClass: 2
Flags: MW
HStem: -11 69<249 320.5 249 336> 470 68<263 339>
VStem: 103 88<377 421 377 438> 410 91<116.5 165.5>
AnchorPoint: "Anchor-5" 307 527 basechar 0
AnchorPoint: "Anchor-4" 297 0 basechar 0
LayerCount: 2
Fore
SplineSet
391 797 m 1
 429 725 l 1
 220 640 l 1
 194 685 l 1
 391 797 l 1
280 58 m 0
 361 58 410 91 410 142 c 0
 410 189 395 214 283 242 c 0
 174 269 103 302 103 394 c 0
 103 482 184 538 303 538 c 0
 388 538 450 512 495 480 c 1
 457 422 l 1
 418 449 373 470 305 470 c 0
 221 470 191 441 191 401 c 0
 191 353 224 337 330 308 c 0
 433 280 501 244 501 146 c 0
 501 33 392 -11 280 -11 c 0
 184 -11 119 21 74 60 c 1
 121 115 l 1
 162 81 218 58 280 58 c 0
EndSplineSet
Validated: 1
Substitution2: "'locl' Localized Forms in Latin lookup 7 subtable" sacute.loclPLK
Substitution2: "'aalt' Access All Alternates in Latin lookup 0 subtable" sacute.loclPLK
EndChar

StartChar: scaron
Encoding: 353 353 229
Width: 600
GlyphClass: 2
Flags: MW
HStem: -11 69<249 320.5 249 336> 470 68<263 339> 629 70<308 308 308 336 279 308> 679 20G<308 308> 728 20G<144 144 470 470>
VStem: 103 88<377 421 377 438> 410 91<116.5 165.5>
AnchorPoint: "Anchor-5" 307 527 basechar 0
AnchorPoint: "Anchor-4" 297 0 basechar 0
LayerCount: 2
Fore
SplineSet
432 789 m 1xde
 470 748 l 1
 336 629 l 1
 279 629 l 1xee
 144 748 l 1
 184 789 l 1
 308 699 l 1
 432 789 l 1xde
280 58 m 0
 361 58 410 91 410 142 c 0
 410 189 395 214 283 242 c 0
 174 269 103 302 103 394 c 0
 103 482 184 538 303 538 c 0
 388 538 450 512 495 480 c 1
 457 422 l 1
 418 449 373 470 305 470 c 0
 221 470 191 441 191 401 c 0
 191 353 224 337 330 308 c 0
 433 280 501 244 501 146 c 0
 501 33 392 -11 280 -11 c 0
 184 -11 119 21 74 60 c 1
 121 115 l 1
 162 81 218 58 280 58 c 0
EndSplineSet
Validated: 1
EndChar

StartChar: scedilla
Encoding: 351 351 230
Width: 600
GlyphClass: 2
Flags: MW
HStem: -238 56<268 295 266 320> -97 40<251 317> -11 69<257 257> -10 68<317 317> 470 68<263 339>
VStem: 103 88<377 421 377 438> 254 63 337 73<-155.5 -122.5> 410 91<116.5 165.5>
AnchorPoint: "Anchor-5" 307 527 basechar 0
AnchorPoint: "Anchor-4" 297 0 basechar 0
LayerCount: 2
Fore
SplineSet
501 146 m 0xde80
 501 46 415 -1 317 -10 c 1
 317 -57 l 1xde80
 382 -63 410 -101 410 -140 c 0
 410 -206 352 -238 288 -238 c 0
 248 -238 209 -229 183 -214 c 1
 210 -166 l 1
 229 -176 255 -182 277 -182 c 0
 313 -182 337 -170 337 -141 c 0xef
 337 -104 304 -97 251 -97 c 1
 257 -11 l 1
 174 -6 115 24 74 60 c 1
 121 115 l 1
 162 81 218 58 280 58 c 0
 361 58 410 91 410 142 c 0xee80
 410 189 395 214 283 242 c 0
 174 269 103 302 103 394 c 0
 103 482 184 538 303 538 c 0
 388 538 450 512 495 480 c 1
 457 422 l 1
 418 449 373 470 305 470 c 0
 221 470 191 441 191 401 c 0
 191 353 224 337 330 308 c 0
 433 280 501 244 501 146 c 0xde80
EndSplineSet
Validated: 1
Substitution2: "'locl' Localized Forms in Latin lookup 5 subtable" scommaaccent
Substitution2: "'locl' Localized Forms in Latin lookup 4 subtable" scommaaccent
Substitution2: "'aalt' Access All Alternates in Latin lookup 0 subtable" scommaaccent
EndChar

StartChar: scircumflex
Encoding: 349 349 231
Width: 600
GlyphClass: 2
Flags: MW
HStem: -11 69<249 320.5 249 336> 470 68<263 339>
VStem: 103 88<377 421 377 438> 410 91<116.5 165.5>
AnchorPoint: "Anchor-5" 307 527 basechar 0
AnchorPoint: "Anchor-4" 297 0 basechar 0
LayerCount: 2
Fore
SplineSet
184 629 m 1
 144 670 l 1
 279 789 l 1
 336 789 l 1
 470 670 l 1
 432 629 l 1
 308 720 l 1
 184 629 l 1
280 58 m 0
 361 58 410 91 410 142 c 0
 410 189 395 214 283 242 c 0
 174 269 103 302 103 394 c 0
 103 482 184 538 303 538 c 0
 388 538 450 512 495 480 c 1
 457 422 l 1
 418 449 373 470 305 470 c 0
 221 470 191 441 191 401 c 0
 191 353 224 337 330 308 c 0
 433 280 501 244 501 146 c 0
 501 33 392 -11 280 -11 c 0
 184 -11 119 21 74 60 c 1
 121 115 l 1
 162 81 218 58 280 58 c 0
EndSplineSet
Validated: 1
EndChar

StartChar: scommaaccent
Encoding: 537 537 232
Width: 600
GlyphClass: 2
Flags: MW
HStem: -11 69<249 320.5 249 336> 470 68<263 339>
VStem: 103 88<377 421 377 438> 246 109<-132.5 -109 -132.5 -108.5> 410 91<116.5 165.5>
AnchorPoint: "Anchor-5" 307 527 basechar 0
AnchorPoint: "Anchor-4" 297 0 basechar 0
LayerCount: 2
Fore
SplineSet
280 58 m 0
 361 58 410 91 410 142 c 0
 410 189 395 214 283 242 c 0
 174 269 103 302 103 394 c 0
 103 482 184 538 303 538 c 0
 388 538 450 512 495 480 c 1
 457 422 l 1
 418 449 373 470 305 470 c 0
 221 470 191 441 191 401 c 0
 191 353 224 337 330 308 c 0
 433 280 501 244 501 146 c 0
 501 33 392 -11 280 -11 c 0
 184 -11 119 21 74 60 c 1
 121 115 l 1
 162 81 218 58 280 58 c 0
300 -71 m 0
 331 -71 355 -94 355 -124 c 0
 355 -141 350 -156 340 -179 c 2
 289 -286 l 1
 239 -286 l 1
 268 -169 l 1
 254 -158 246 -142 246 -124 c 0
 246 -93 270 -71 300 -71 c 0
EndSplineSet
Validated: 1
EndChar

StartChar: germandbls
Encoding: 223 223 233
Width: 600
GlyphClass: 2
Flags: MW
HStem: -11 68<349.5 397.5 349.5 422> 0 21G<96 180 96 96> 682 67<258.5 332>
VStem: 96 84<0 533 533 539 0 604> 274 83<385 460 385 466.5> 390 81<560 615> 472 86<127 227>
LayerCount: 2
Fore
SplineSet
297 749 m 0x7c
 400 749 471 690 471 605 c 0xbc
 471 508 357 491 357 429 c 0
 357 341 558 335 558 167 c 0
 558 51 472 -11 372 -11 c 0
 318 -11 277 1 242 23 c 1
 277 81 l 1
 301 66 335 57 364 57 c 0
 431 57 472 91 472 163 c 0xba
 472 291 274 288 274 419 c 0
 274 514 390 523 390 597 c 0
 390 633 368 682 296 682 c 0
 221 682 180 642 180 539 c 2
 180 0 l 1
 96 0 l 1
 96 533 l 2
 96 675 172 749 297 749 c 0x7c
EndSplineSet
Validated: 1
EndChar

StartChar: t
Encoding: 116 116 234
Width: 600
GlyphClass: 2
Flags: MW
HStem: -11 70<349 402> 461 66<79 200 79 200 284 456>
VStem: 200 84<147 148 148 461 527 646 646 646>
AnchorPoint: "Anchor-5" 242 652 basechar 0
AnchorPoint: "Anchor-4" 371 0 basechar 0
LayerCount: 2
Fore
SplineSet
519 27 m 1
 482 3 427 -11 377 -11 c 0
 264 -11 200 55 200 147 c 2
 200 461 l 1
 79 461 l 1
 79 527 l 1
 200 527 l 1
 200 646 l 1
 284 656 l 1
 284 527 l 1
 467 527 l 1
 456 461 l 1
 284 461 l 1
 284 148 l 2
 284 90 313 59 385 59 c 0
 424 59 458 69 486 84 c 1
 519 27 l 1
EndSplineSet
Validated: 1
EndChar

StartChar: tbar
Encoding: 359 359 235
Width: 600
GlyphClass: 2
Flags: MW
HStem: -11 70<349 402> 288 64<90 200 90 200 284 457> 461 66<79 200 79 200 284 456>
VStem: 200 84<147 148 148 288 352 461 527 646 646 646>
AnchorPoint: "Anchor-5" 242 652 basechar 0
AnchorPoint: "Anchor-4" 371 0 basechar 0
LayerCount: 2
Fore
SplineSet
486 84 m 1
 519 27 l 1
 482 3 427 -11 377 -11 c 0
 264 -11 200 55 200 147 c 2
 200 288 l 1
 90 288 l 1
 90 352 l 1
 200 352 l 1
 200 461 l 1
 79 461 l 1
 79 527 l 1
 200 527 l 1
 200 646 l 1
 284 656 l 1
 284 527 l 1
 467 527 l 1
 456 461 l 1
 284 461 l 1
 284 352 l 1
 457 352 l 1
 457 288 l 1
 284 288 l 1
 284 148 l 2
 284 90 313 59 385 59 c 0
 424 59 458 69 486 84 c 1
EndSplineSet
Validated: 1
EndChar

StartChar: tcaron
Encoding: 357 357 236
Width: 600
GlyphClass: 2
Flags: MW
HStem: -11 70<349 402> 461 66<79 200 79 200 284 456> 732 20G<440 440>
VStem: 200 84<147 148 148 461 527 646 646 646>
AnchorPoint: "Anchor-5" 242 652 basechar 0
AnchorPoint: "Anchor-4" 371 0 basechar 0
LayerCount: 2
Fore
SplineSet
364 762 m 1
 440 752 l 1
 387 574 l 1
 339 581 l 1
 364 762 l 1
519 27 m 1
 482 3 427 -11 377 -11 c 0
 264 -11 200 55 200 147 c 2
 200 461 l 1
 79 461 l 1
 79 527 l 1
 200 527 l 1
 200 646 l 1
 284 656 l 1
 284 527 l 1
 467 527 l 1
 456 461 l 1
 284 461 l 1
 284 148 l 2
 284 90 313 59 385 59 c 0
 424 59 458 69 486 84 c 1
 519 27 l 1
EndSplineSet
Validated: 1
EndChar

StartChar: uni0163
Encoding: 355 355 237
Width: 600
GlyphClass: 2
Flags: MW
HStem: -238 56<342 369 340 394> -97 40<325 391> -11 70<391 391> -7 21G<331 331> 461 66<79 200 79 200 284 456>
VStem: 200 84<147 148 148 461 527 646 646 646> 328 63 411 73<-155.5 -122.5>
AnchorPoint: "Anchor-5" 242 652 basechar 0
AnchorPoint: "Anchor-4" 371 0 basechar 0
LayerCount: 2
Fore
SplineSet
391 -57 m 1xde
 456 -63 484 -101 484 -140 c 0
 484 -206 426 -238 362 -238 c 0
 322 -238 283 -229 257 -214 c 1
 284 -166 l 1
 303 -176 329 -182 351 -182 c 0
 387 -182 411 -170 411 -141 c 0xdf
 411 -104 378 -97 325 -97 c 1
 331 -7 l 1xde
 247 8 200 68 200 147 c 2
 200 461 l 1
 79 461 l 1
 79 527 l 1
 200 527 l 1
 200 646 l 1
 284 656 l 1
 284 527 l 1
 467 527 l 1
 456 461 l 1
 284 461 l 1
 284 148 l 2
 284 90 313 59 385 59 c 0
 424 59 458 69 486 84 c 1
 519 27 l 1
 486 5 437 -9 391 -11 c 1xee
 391 -57 l 1xde
EndSplineSet
Validated: 1
Substitution2: "'locl' Localized Forms in Latin lookup 5 subtable" uni021B
Substitution2: "'locl' Localized Forms in Latin lookup 4 subtable" uni021B
Substitution2: "'aalt' Access All Alternates in Latin lookup 0 subtable" uni021B
EndChar

StartChar: uni021B
Encoding: 539 539 238
Width: 600
GlyphClass: 2
Flags: MW
HStem: -11 70<349 402> 461 66<79 200 79 200 284 456>
VStem: 200 84<147 148 148 461 527 646 646 646> 320 109<-132.5 -109 -132.5 -108.5>
AnchorPoint: "Anchor-5" 242 652 basechar 0
AnchorPoint: "Anchor-4" 371 0 basechar 0
LayerCount: 2
Fore
SplineSet
519 27 m 1
 482 3 427 -11 377 -11 c 0
 264 -11 200 55 200 147 c 2
 200 461 l 1
 79 461 l 1
 79 527 l 1
 200 527 l 1
 200 646 l 1
 284 656 l 1
 284 527 l 1
 467 527 l 1
 456 461 l 1
 284 461 l 1
 284 148 l 2
 284 90 313 59 385 59 c 0
 424 59 458 69 486 84 c 1
 519 27 l 1
374 -71 m 0
 405 -71 429 -94 429 -124 c 0
 429 -141 424 -156 414 -179 c 2
 363 -286 l 1
 313 -286 l 1
 342 -169 l 1
 328 -158 320 -142 320 -124 c 0
 320 -93 344 -71 374 -71 c 0
EndSplineSet
Validated: 1
EndChar

StartChar: u
Encoding: 117 117 239
Width: 600
GlyphClass: 2
Flags: MW
HStem: -11 66<242.5 283> 0 21G<428 500 428 428> 507 20G<100 184 184 184 416 500 500 500>
VStem: 100 84<144 153 153 527> 416 84<139 527 0 527>
AnchorPoint: "Anchor-5" 300 527 basechar 0
AnchorPoint: "Anchor-4" 0 0 basechar 0
LayerCount: 2
Fore
SplineSet
184 527 m 1xb8
 184 153 l 2
 184 85 212 55 273 55 c 0
 331 55 387 94 416 139 c 1xb8
 416 527 l 1
 500 527 l 1
 500 0 l 1
 428 0 l 1x78
 421 71 l 1
 379 18 314 -11 252 -11 c 0
 150 -11 100 46 100 144 c 2
 100 527 l 1
 184 527 l 1xb8
EndSplineSet
Validated: 1
EndChar

StartChar: uacute
Encoding: 250 250 240
Width: 600
GlyphClass: 2
Flags: MW
HStem: -11 66<242.5 283> 0 21G<428 500 428 428> 507 20G<100 184 184 184 416 500 500 500>
VStem: 100 84<144 153 153 527> 416 84<139 527 0 527>
AnchorPoint: "Anchor-5" 300 527 basechar 0
AnchorPoint: "Anchor-4" 0 0 basechar 0
LayerCount: 2
Fore
SplineSet
384 797 m 1xb8
 422 725 l 1
 213 640 l 1
 187 685 l 1
 384 797 l 1xb8
184 527 m 1
 184 153 l 2
 184 85 212 55 273 55 c 0
 331 55 387 94 416 139 c 1xb8
 416 527 l 1
 500 527 l 1
 500 0 l 1
 428 0 l 1x78
 421 71 l 1
 379 18 314 -11 252 -11 c 0
 150 -11 100 46 100 144 c 2
 100 527 l 1
 184 527 l 1
EndSplineSet
Validated: 1
EndChar

StartChar: ubreve
Encoding: 365 365 241
Width: 600
GlyphClass: 2
Flags: MW
HStem: -11 66<242.5 283> 0 21G<428 500 428 428> 507 20G<100 184 184 184 416 500 500 500> 630 64<274.5 322 274.5 344>
VStem: 100 84<144 153 153 527> 416 84<139 527 0 527>
AnchorPoint: "Anchor-5" 300 527 basechar 0
AnchorPoint: "Anchor-4" 0 0 basechar 0
LayerCount: 2
Fore
SplineSet
298 630 m 0xbc
 207 630 158 705 150 766 c 1
 208 779 l 1
 223 728 251 694 298 694 c 0
 346 694 376 728 391 779 c 1
 448 766 l 1
 440 705 390 630 298 630 c 0xbc
184 527 m 1
 184 153 l 2
 184 85 212 55 273 55 c 0
 331 55 387 94 416 139 c 1xbc
 416 527 l 1
 500 527 l 1
 500 0 l 1
 428 0 l 1x7c
 421 71 l 1
 379 18 314 -11 252 -11 c 0
 150 -11 100 46 100 144 c 2
 100 527 l 1
 184 527 l 1
EndSplineSet
Validated: 1
EndChar

StartChar: ucircumflex
Encoding: 251 251 242
Width: 600
GlyphClass: 2
Flags: MW
HStem: -11 66<242.5 283> 0 21G<428 500 428 428> 507 20G<100 184 184 184 416 500 500 500>
VStem: 100 84<144 153 153 527> 416 84<139 527 0 527>
AnchorPoint: "Anchor-5" 300 527 basechar 0
AnchorPoint: "Anchor-4" 0 0 basechar 0
LayerCount: 2
Fore
SplineSet
177 629 m 1xb8
 137 670 l 1
 272 789 l 1
 329 789 l 1
 463 670 l 1
 425 629 l 1
 301 720 l 1
 177 629 l 1xb8
184 527 m 1
 184 153 l 2
 184 85 212 55 273 55 c 0
 331 55 387 94 416 139 c 1xb8
 416 527 l 1
 500 527 l 1
 500 0 l 1
 428 0 l 1x78
 421 71 l 1
 379 18 314 -11 252 -11 c 0
 150 -11 100 46 100 144 c 2
 100 527 l 1
 184 527 l 1
EndSplineSet
Validated: 1
EndChar

StartChar: udieresis
Encoding: 252 252 243
Width: 600
GlyphClass: 2
Flags: MW
HStem: -11 66<242.5 283> 0 21G<428 500 428 428> 507 20G<100 184 184 184 416 500 500 500> 648 108<180.5 211.5 387.5 418.5>
VStem: 100 84<144 153 153 527> 141 109<686 717> 349 109<686 717> 416 84<139 527 0 527>
AnchorPoint: "Anchor-5" 300 700 basechar 0
AnchorPoint: "Anchor-4" 0 0 basechar 0
LayerCount: 2
Fore
SplineSet
196 648 m 0xb6
 165 648 141 671 141 701 c 0
 141 733 165 756 196 756 c 0
 227 756 250 733 250 701 c 0
 250 671 227 648 196 648 c 0xb6
403 648 m 0
 372 648 349 671 349 701 c 0
 349 733 372 756 403 756 c 0
 434 756 458 733 458 701 c 0
 458 671 434 648 403 648 c 0
184 527 m 1xb9
 184 153 l 2
 184 85 212 55 273 55 c 0
 331 55 387 94 416 139 c 1xb9
 416 527 l 1
 500 527 l 1
 500 0 l 1
 428 0 l 1x79
 421 71 l 1
 379 18 314 -11 252 -11 c 0
 150 -11 100 46 100 144 c 2
 100 527 l 1
 184 527 l 1xb9
EndSplineSet
Validated: 1
EndChar

StartChar: ugrave
Encoding: 249 249 244
Width: 600
GlyphClass: 2
Flags: MW
HStem: -11 66<242.5 283> 0 21G<428 500 428 428> 507 20G<100 184 184 184 416 500 500 500>
VStem: 100 84<144 153 153 527> 416 84<139 527 0 527>
AnchorPoint: "Anchor-5" 300 527 basechar 0
AnchorPoint: "Anchor-4" 0 0 basechar 0
LayerCount: 2
Fore
SplineSet
387 622 m 1xb8
 184 715 l 1
 230 787 l 1
 414 668 l 1
 387 622 l 1xb8
184 527 m 1
 184 153 l 2
 184 85 212 55 273 55 c 0
 331 55 387 94 416 139 c 1xb8
 416 527 l 1
 500 527 l 1
 500 0 l 1
 428 0 l 1x78
 421 71 l 1
 379 18 314 -11 252 -11 c 0
 150 -11 100 46 100 144 c 2
 100 527 l 1
 184 527 l 1
EndSplineSet
Validated: 1
EndChar

StartChar: uhungarumlaut
Encoding: 369 369 245
Width: 600
GlyphClass: 2
Flags: MW
HStem: -11 66<242.5 283> 0 21G<428 500 428 428> 507 20G<100 184 184 184 416 500 500 500>
VStem: 100 84<144 153 153 527> 416 84<139 527 0 527>
AnchorPoint: "Anchor-5" 300 527 basechar 0
AnchorPoint: "Anchor-4" 0 0 basechar 0
LayerCount: 2
Fore
SplineSet
176 662 m 1xb8
 254 836 l 1
 329 800 l 1
 232 636 l 1
 176 662 l 1xb8
341 662 m 1
 428 836 l 1
 502 797 l 1
 394 634 l 1
 341 662 l 1
184 527 m 1
 184 153 l 2
 184 85 212 55 273 55 c 0
 331 55 387 94 416 139 c 1xb8
 416 527 l 1
 500 527 l 1
 500 0 l 1
 428 0 l 1x78
 421 71 l 1
 379 18 314 -11 252 -11 c 0
 150 -11 100 46 100 144 c 2
 100 527 l 1
 184 527 l 1
EndSplineSet
Validated: 1
EndChar

StartChar: umacron
Encoding: 363 363 246
Width: 600
GlyphClass: 2
Flags: MW
HStem: -11 66<242.5 283> 0 21G<428 500 428 428> 507 20G<100 184 184 184 416 500 500 500> 676 64<165 434 165 434>
VStem: 100 84<144 153 153 527> 165 269<676 740 676 740> 416 84<139 527 0 527>
AnchorPoint: "Anchor-5" 300 527 basechar 0
AnchorPoint: "Anchor-4" 0 0 basechar 0
LayerCount: 2
Fore
SplineSet
434 676 m 1xb4
 165 676 l 1
 165 740 l 1
 434 740 l 1
 434 676 l 1xb4
184 527 m 1xba
 184 153 l 2
 184 85 212 55 273 55 c 0
 331 55 387 94 416 139 c 1xba
 416 527 l 1
 500 527 l 1
 500 0 l 1
 428 0 l 1x7a
 421 71 l 1
 379 18 314 -11 252 -11 c 0
 150 -11 100 46 100 144 c 2
 100 527 l 1
 184 527 l 1xba
EndSplineSet
Validated: 1
EndChar

StartChar: uogonek
Encoding: 371 371 247
Width: 600
GlyphClass: 2
Flags: MW
HStem: -229 67<411 434.5> -11 21G -11 66<242.5 283> 0 21G<500 500> 507 20G<100 184 184 184 416 500 500 500>
VStem: 100 84<144 153 153 527> 299 77<-129 -102> 416 84<139 527 0 527>
AnchorPoint: "Anchor-5" 300 527 basechar 0
AnchorPoint: "Anchor-4" 0 0 basechar 0
LayerCount: 2
Fore
SplineSet
376 -114 m 0xaf
 376 -144 390 -162 432 -162 c 0
 453 -162 469 -160 493 -155 c 1
 485 -223 l 1
 464 -226 448 -229 421 -229 c 0
 345 -229 299 -187 299 -131 c 0
 299 -73 339 -26 427 10 c 1xcf
 421 71 l 1
 379 18 314 -11 252 -11 c 0
 150 -11 100 46 100 144 c 2
 100 527 l 1
 184 527 l 1
 184 153 l 2
 184 85 212 55 273 55 c 0
 331 55 387 94 416 139 c 1xaf
 416 527 l 1
 500 527 l 1
 500 0 l 1x9f
 397 -45 376 -79 376 -114 c 0xaf
EndSplineSet
Validated: 1
EndChar

StartChar: uring
Encoding: 367 367 248
Width: 600
GlyphClass: 2
Flags: MW
HStem: -11 66<242.5 283> 0 21G<428 500 428 428> 507 20G<100 184 184 184 416 500 500 500> 619 45<283.5 317 283.5 332.5> 777 47<283.5 317>
VStem: 100 84<144 153 153 527> 189 57<703 738.5 703 749.5> 354 57<703 738.5> 416 84<139 527 0 527>
AnchorPoint: "Anchor-5" 300 527 basechar 0
AnchorPoint: "Anchor-4" 0 0 basechar 0
LayerCount: 2
Fore
SplineSet
300 824 m 0xbb
 365 824 411 778 411 721 c 0
 411 664 365 619 300 619 c 0
 235 619 189 664 189 721 c 0
 189 778 235 824 300 824 c 0xbb
300 777 m 0
 267 777 246 756 246 721 c 0
 246 685 267 664 300 664 c 0
 334 664 354 685 354 721 c 0
 354 756 334 777 300 777 c 0
184 527 m 1xbc80
 184 153 l 2
 184 85 212 55 273 55 c 0
 331 55 387 94 416 139 c 1xbc80
 416 527 l 1
 500 527 l 1
 500 0 l 1
 428 0 l 1x7c80
 421 71 l 1
 379 18 314 -11 252 -11 c 0
 150 -11 100 46 100 144 c 2
 100 527 l 1
 184 527 l 1xbc80
EndSplineSet
Validated: 1
EndChar

StartChar: utilde
Encoding: 361 361 249
Width: 600
GlyphClass: 2
Flags: MW
HStem: -11 66<242.5 283> 0 21G<428 500 428 428> 507 20G<100 184 184 184 416 500 500 500> 659 64<339.5 368 339.5 379.5> 707 65<230.5 260> 721 20G<465 465>
VStem: 100 84<144 153 153 527> 416 84<139 527 0 527>
AnchorPoint: "Anchor-5" 300 527 basechar 0
AnchorPoint: "Anchor-4" 0 0 basechar 0
LayerCount: 2
Fore
SplineSet
358 659 m 0xb3
 306 659 278 707 242 707 c 0
 219 707 205 691 189 661 c 1
 136 687 l 1
 159 735 194 772 242 772 c 0xab
 298 772 321 723 358 723 c 0
 378 723 393 737 411 768 c 1xb3
 465 741 l 1xa7
 439 685 401 659 358 659 c 0xb3
184 527 m 1xa7
 184 153 l 2
 184 85 212 55 273 55 c 0
 331 55 387 94 416 139 c 1xa7
 416 527 l 1
 500 527 l 1
 500 0 l 1
 428 0 l 1x67
 421 71 l 1
 379 18 314 -11 252 -11 c 0
 150 -11 100 46 100 144 c 2
 100 527 l 1
 184 527 l 1xa7
EndSplineSet
Validated: 1
EndChar

StartChar: v
Encoding: 118 118 250
Width: 600
GlyphClass: 2
Flags: MW
HStem: 0 21G<251 348 251 251> 0 76<302 302 302 348 251 302> 507 20G<60 150 150 150 452 540 540 540>
VStem: 60 480<527 527>
AnchorPoint: "Anchor-5" 300 527 basechar 0
AnchorPoint: "Anchor-4" 300 0 basechar 0
LayerCount: 2
Fore
SplineSet
540 527 m 1xb0
 348 0 l 1
 251 0 l 1
 60 527 l 1
 150 527 l 1
 302 76 l 1x70
 452 527 l 1
 540 527 l 1xb0
EndSplineSet
Validated: 1
EndChar

StartChar: w
Encoding: 119 119 251
Width: 600
GlyphClass: 2
Flags: MW
HStem: 0 52<171 171 171 229> 386 74<303 303> 507 20G<18 103 103 103 501 582 582 582>
VStem: 18 564<527 527>
AnchorPoint: "Anchor-5" 300 527 basechar 0
AnchorPoint: "Anchor-4" 300 0 basechar 0
LayerCount: 2
Fore
SplineSet
491 0 m 5
 372 0 l 5
 303 386 l 5
 229 0 l 5
 113 0 l 5
 18 527 l 5
 103 527 l 5
 171 52 l 5
 255 460 l 5
 354 460 l 5
 433 52 l 5
 501 527 l 5
 582 527 l 5
 491 0 l 5
EndSplineSet
Validated: 1
EndChar

StartChar: wacute
Encoding: 7811 7811 252
Width: 600
GlyphClass: 2
Flags: MW
HStem: 0 52<171 171 171 229> 386 74<303 303> 507 20G<18 103 103 103 501 582 582 582>
VStem: 18 564<527 527>
AnchorPoint: "Anchor-5" 300 527 basechar 0
AnchorPoint: "Anchor-4" 300 0 basechar 0
LayerCount: 2
Fore
SplineSet
384 797 m 1
 422 725 l 1
 213 640 l 1
 187 685 l 1
 384 797 l 1
491 0 m 1
 372 0 l 1
 303 386 l 1
 229 0 l 1
 113 0 l 1
 18 527 l 1
 103 527 l 1
 171 52 l 1
 255 460 l 1
 354 460 l 1
 433 52 l 1
 501 527 l 1
 582 527 l 1
 491 0 l 1
EndSplineSet
Validated: 1
EndChar

StartChar: wcircumflex
Encoding: 373 373 253
Width: 600
GlyphClass: 2
Flags: MW
HStem: 0 52<171 171 171 229> 386 74<303 303> 507 20G<18 103 103 103 501 582 582 582>
VStem: 18 564<527 527>
AnchorPoint: "Anchor-5" 300 527 basechar 0
AnchorPoint: "Anchor-4" 300 0 basechar 0
LayerCount: 2
Fore
SplineSet
177 629 m 1
 137 670 l 1
 272 789 l 1
 329 789 l 1
 463 670 l 1
 425 629 l 1
 301 720 l 1
 177 629 l 1
491 0 m 1
 372 0 l 1
 303 386 l 1
 229 0 l 1
 113 0 l 1
 18 527 l 1
 103 527 l 1
 171 52 l 1
 255 460 l 1
 354 460 l 1
 433 52 l 1
 501 527 l 1
 582 527 l 1
 491 0 l 1
EndSplineSet
Validated: 1
EndChar

StartChar: wdieresis
Encoding: 7813 7813 254
Width: 600
GlyphClass: 2
Flags: MW
HStem: 0 52<171 171 171 229> 386 74<303 303> 507 20G<18 103 103 103 501 582 582 582> 648 108<180.5 211.5 387.5 418.5>
VStem: 141 109<686 717> 349 109<686 717>
AnchorPoint: "Anchor-5" 300 700 basechar 0
AnchorPoint: "Anchor-4" 300 0 basechar 0
LayerCount: 2
Fore
SplineSet
196 648 m 0
 165 648 141 671 141 701 c 0
 141 733 165 756 196 756 c 0
 227 756 250 733 250 701 c 0
 250 671 227 648 196 648 c 0
403 648 m 0
 372 648 349 671 349 701 c 0
 349 733 372 756 403 756 c 0
 434 756 458 733 458 701 c 0
 458 671 434 648 403 648 c 0
491 0 m 1
 372 0 l 1
 303 386 l 1
 229 0 l 1
 113 0 l 1
 18 527 l 1
 103 527 l 1
 171 52 l 1
 255 460 l 1
 354 460 l 1
 433 52 l 1
 501 527 l 1
 582 527 l 1
 491 0 l 1
EndSplineSet
Validated: 1
EndChar

StartChar: wgrave
Encoding: 7809 7809 255
Width: 600
GlyphClass: 2
Flags: MW
HStem: 0 52<171 171 171 229> 386 74<303 303> 507 20G<18 103 103 103 501 582 582 582>
VStem: 18 564<527 527>
AnchorPoint: "Anchor-5" 300 527 basechar 0
AnchorPoint: "Anchor-4" 300 0 basechar 0
LayerCount: 2
Fore
SplineSet
387 622 m 1
 184 715 l 1
 230 787 l 1
 414 668 l 1
 387 622 l 1
491 0 m 1
 372 0 l 1
 303 386 l 1
 229 0 l 1
 113 0 l 1
 18 527 l 1
 103 527 l 1
 171 52 l 1
 255 460 l 1
 354 460 l 1
 433 52 l 1
 501 527 l 1
 582 527 l 1
 491 0 l 1
EndSplineSet
Validated: 1
EndChar

StartChar: x
Encoding: 120 120 256
Width: 600
GlyphClass: 2
Flags: MW
HStem: 0 21G<56 152 56 56 442 442 442 544> 507 20G<79 179 179 179 424 521 521 521>
VStem: 56 488<0 0>
AnchorPoint: "Anchor-5" 300 527 basechar 0
AnchorPoint: "Anchor-4" 300 0 basechar 0
LayerCount: 2
Fore
SplineSet
152 0 m 1
 56 0 l 1
 250 278 l 1
 79 527 l 1
 179 527 l 1
 301 331 l 1
 424 527 l 1
 521 527 l 1
 350 282 l 1
 544 0 l 1
 442 0 l 1
 297 226 l 1
 152 0 l 1
EndSplineSet
Validated: 1
EndChar

StartChar: y
Encoding: 121 121 257
Width: 600
GlyphClass: 2
Flags: MW
HStem: -212 21G<118 118> 0 21G<245 273 245 245> 507 20G<62 151 151 151 451 538 538 538>
VStem: 62 476<527 527>
AnchorPoint: "Anchor-5" 300 527 basechar 0
AnchorPoint: "Anchor-4" 0 0 basechar 0
LayerCount: 2
Fore
SplineSet
538 527 m 1
 354 -3 l 2
 317 -111 258 -197 118 -212 c 1
 106 -145 l 1
 214 -126 246 -81 273 0 c 1
 245 0 l 1
 62 527 l 1
 151 527 l 1
 302 64 l 1
 451 527 l 1
 538 527 l 1
EndSplineSet
Validated: 1
EndChar

StartChar: yacute
Encoding: 253 253 258
Width: 600
GlyphClass: 2
Flags: MW
HStem: -212 21G<118 118> 0 21G<245 273 245 245> 507 20G<62 151 151 151 451 538 538 538>
VStem: 62 476<527 527>
AnchorPoint: "Anchor-5" 300 527 basechar 0
AnchorPoint: "Anchor-4" 0 0 basechar 0
LayerCount: 2
Fore
SplineSet
384 797 m 1
 422 725 l 1
 213 640 l 1
 187 685 l 1
 384 797 l 1
538 527 m 1
 354 -3 l 2
 317 -111 258 -197 118 -212 c 1
 106 -145 l 1
 214 -126 246 -81 273 0 c 1
 245 0 l 1
 62 527 l 1
 151 527 l 1
 302 64 l 1
 451 527 l 1
 538 527 l 1
EndSplineSet
Validated: 1
EndChar

StartChar: ycircumflex
Encoding: 375 375 259
Width: 600
GlyphClass: 2
Flags: MW
HStem: -212 21G<118 118> 0 21G<245 273 245 245> 507 20G<62 151 151 151 451 538 538 538>
VStem: 62 476<527 527>
AnchorPoint: "Anchor-5" 300 527 basechar 0
AnchorPoint: "Anchor-4" 0 0 basechar 0
LayerCount: 2
Fore
SplineSet
177 629 m 1
 137 670 l 1
 272 789 l 1
 329 789 l 1
 463 670 l 1
 425 629 l 1
 301 720 l 1
 177 629 l 1
538 527 m 1
 354 -3 l 2
 317 -111 258 -197 118 -212 c 1
 106 -145 l 1
 214 -126 246 -81 273 0 c 1
 245 0 l 1
 62 527 l 1
 151 527 l 1
 302 64 l 1
 451 527 l 1
 538 527 l 1
EndSplineSet
Validated: 1
EndChar

StartChar: ydieresis
Encoding: 255 255 260
Width: 600
GlyphClass: 2
Flags: MW
HStem: -212 21G<118 118> 0 21G<245 273 245 245> 507 20G<62 151 151 151 451 538 538 538> 648 108<180.5 211.5 387.5 418.5>
VStem: 141 109<686 717> 349 109<686 717>
AnchorPoint: "Anchor-5" 300 700 basechar 0
AnchorPoint: "Anchor-4" 0 0 basechar 0
LayerCount: 2
Fore
SplineSet
196 648 m 0
 165 648 141 671 141 701 c 0
 141 733 165 756 196 756 c 0
 227 756 250 733 250 701 c 0
 250 671 227 648 196 648 c 0
403 648 m 0
 372 648 349 671 349 701 c 0
 349 733 372 756 403 756 c 0
 434 756 458 733 458 701 c 0
 458 671 434 648 403 648 c 0
538 527 m 1
 354 -3 l 2
 317 -111 258 -197 118 -212 c 1
 106 -145 l 1
 214 -126 246 -81 273 0 c 1
 245 0 l 1
 62 527 l 1
 151 527 l 1
 302 64 l 1
 451 527 l 1
 538 527 l 1
EndSplineSet
Validated: 1
EndChar

StartChar: ygrave
Encoding: 7923 7923 261
Width: 600
GlyphClass: 2
Flags: MW
HStem: -212 21G<118 118> 0 21G<245 273 245 245> 507 20G<62 151 151 151 451 538 538 538>
VStem: 62 476<527 527>
AnchorPoint: "Anchor-5" 300 527 basechar 0
AnchorPoint: "Anchor-4" 0 0 basechar 0
LayerCount: 2
Fore
SplineSet
387 622 m 1
 184 715 l 1
 230 787 l 1
 414 668 l 1
 387 622 l 1
538 527 m 1
 354 -3 l 2
 317 -111 258 -197 118 -212 c 1
 106 -145 l 1
 214 -126 246 -81 273 0 c 1
 245 0 l 1
 62 527 l 1
 151 527 l 1
 302 64 l 1
 451 527 l 1
 538 527 l 1
EndSplineSet
Validated: 1
EndChar

StartChar: z
Encoding: 122 122 262
Width: 600
GlyphClass: 2
Flags: MW
HStem: 0 72<205 488> 453 74<125 394 125 495>
VStem: 102 396<0 72 64 72>
AnchorPoint: "Anchor-5" 310 527 basechar 0
AnchorPoint: "Anchor-4" 300 0 basechar 0
LayerCount: 2
Fore
SplineSet
205 72 m 5
 498 72 l 5
 488 0 l 5
 102 0 l 5
 102 64 l 5
 394 453 l 5
 125 453 l 5
 125 527 l 5
 495 527 l 5
 495 461 l 5
 205 72 l 5
EndSplineSet
Validated: 1
EndChar

StartChar: zacute
Encoding: 378 378 263
Width: 600
GlyphClass: 2
Flags: MW
HStem: 0 72<205 488> 453 74<125 394 125 495>
VStem: 102 396<0 72 64 72>
AnchorPoint: "Anchor-5" 310 527 basechar 0
AnchorPoint: "Anchor-4" 300 0 basechar 0
LayerCount: 2
Fore
SplineSet
394 797 m 1
 432 725 l 1
 223 640 l 1
 197 685 l 1
 394 797 l 1
205 72 m 1
 498 72 l 1
 488 0 l 1
 102 0 l 1
 102 64 l 1
 394 453 l 1
 125 453 l 1
 125 527 l 1
 495 527 l 1
 495 461 l 1
 205 72 l 1
EndSplineSet
Validated: 1
Substitution2: "'locl' Localized Forms in Latin lookup 7 subtable" zacute.loclPLK
Substitution2: "'aalt' Access All Alternates in Latin lookup 0 subtable" zacute.loclPLK
EndChar

StartChar: zcaron
Encoding: 382 382 264
Width: 600
GlyphClass: 2
Flags: MW
HStem: 0 72<205 488> 453 74<125 394 125 495> 629 70<311 311 311 339 282 311> 679 20G<311 311> 728 20G<147 147 473 473>
VStem: 102 396<0 72 64 72>
AnchorPoint: "Anchor-5" 310 527 basechar 0
AnchorPoint: "Anchor-4" 300 0 basechar 0
LayerCount: 2
Fore
SplineSet
435 789 m 1xdc
 473 748 l 1
 339 629 l 1
 282 629 l 1xec
 147 748 l 1
 187 789 l 1
 311 699 l 1
 435 789 l 1xdc
205 72 m 1
 498 72 l 1
 488 0 l 1
 102 0 l 1
 102 64 l 1
 394 453 l 1
 125 453 l 1
 125 527 l 1
 495 527 l 1
 495 461 l 1
 205 72 l 1
EndSplineSet
Validated: 1
EndChar

StartChar: zdotaccent
Encoding: 380 380 265
Width: 600
GlyphClass: 2
Flags: MW
HStem: 0 72<205 488> 453 74<125 394 125 495> 655 118<291 327.5>
VStem: 249 121<697 731>
AnchorPoint: "Anchor-5" 310 527 basechar 0
AnchorPoint: "Anchor-4" 300 0 basechar 0
LayerCount: 2
Fore
SplineSet
309 773 m 0
 346 773 370 748 370 714 c 0
 370 680 346 655 309 655 c 0
 273 655 249 680 249 714 c 0
 249 748 273 773 309 773 c 0
205 72 m 1
 498 72 l 1
 488 0 l 1
 102 0 l 1
 102 64 l 1
 394 453 l 1
 125 453 l 1
 125 527 l 1
 495 527 l 1
 495 461 l 1
 205 72 l 1
EndSplineSet
Validated: 1
EndChar

StartChar: cacute.loclPLK
Encoding: 1114119 -1 266
Width: 600
GlyphClass: 2
Flags: MW
HStem: -11 72<293.5 365.5 293.5 369.5> 467 71<292.5 361.5>
VStem: 91 91<190.5 330.5 190.5 340>
AnchorPoint: "Anchor-5" 344 518 basechar 0
AnchorPoint: "Anchor-4" 339 0 basechar 0
LayerCount: 2
Fore
SplineSet
398 762 m 1
 464 719 l 1
 335 568 l 1
 294 593 l 1
 398 762 l 1
339 61 m 0
 392 61 436 80 476 107 c 1
 516 52 l 1
 471 13 400 -11 339 -11 c 0
 181 -11 91 96 91 261 c 0
 91 419 182 538 339 538 c 0
 407 538 466 517 515 476 c 1
 474 421 l 1
 429 451 385 467 338 467 c 0
 247 467 182 400 182 261 c 0
 182 120 248 61 339 61 c 0
EndSplineSet
Validated: 1
EndChar

StartChar: nacute.loclPLK
Encoding: 1114120 -1 267
Width: 600
GlyphClass: 2
Flags: MW
HStem: 0 21G<100 100 100 184 417 417 417 501> 471 67<322 366.5> 507 20G<100 172 172 172>
VStem: 100 84<0 383 0 527> 417 84<0 320 320 374>
AnchorPoint: "Anchor-5" 300 527 basechar 0
AnchorPoint: "Anchor-4" 301 0 basechar 0
LayerCount: 2
Fore
SplineSet
354 771 m 1xd8
 420 728 l 1
 291 577 l 1
 250 602 l 1
 354 771 l 1xd8
100 0 m 1
 100 527 l 1
 172 527 l 1xb8
 179 453 l 1
 221 507 291 538 353 538 c 0
 456 538 501 480 501 382 c 2
 501 0 l 1
 417 0 l 1
 417 320 l 2
 417 428 406 471 327 471 c 0
 265 471 212 425 184 383 c 1
 184 0 l 1
 100 0 l 1
EndSplineSet
Validated: 1
EndChar

StartChar: oacute.loclPLK
Encoding: 1114121 -1 268
Width: 600
GlyphClass: 2
Flags: MW
HStem: -11 69<254.5 345.5 254.5 373.5> 469 69<255.5 346>
VStem: 73 91<193 333 193 344> 436 91<193.5 333.5>
AnchorPoint: "Anchor-5" 300 527 basechar 0
AnchorPoint: "Anchor-4" 300 0 basechar 0
LayerCount: 2
Fore
SplineSet
354 771 m 1
 420 728 l 1
 291 577 l 1
 250 602 l 1
 354 771 l 1
301 538 m 0
 449 538 527 430 527 264 c 0
 527 102 447 -11 300 -11 c 0
 152 -11 73 97 73 263 c 0
 73 425 153 538 301 538 c 0
301 469 m 0
 210 469 164 403 164 263 c 0
 164 123 209 58 300 58 c 0
 391 58 436 123 436 264 c 0
 436 403 391 469 301 469 c 0
EndSplineSet
Validated: 1
EndChar

StartChar: sacute.loclPLK
Encoding: 1114122 -1 269
Width: 600
GlyphClass: 2
Flags: MW
HStem: -11 69<249 320.5 249 336> 470 68<263 339>
VStem: 103 88<377 421 377 438> 410 91<116.5 165.5>
AnchorPoint: "Anchor-5" 307 527 basechar 0
AnchorPoint: "Anchor-4" 297 0 basechar 0
LayerCount: 2
Fore
SplineSet
361 771 m 1
 427 728 l 1
 298 577 l 1
 257 602 l 1
 361 771 l 1
280 58 m 0
 361 58 410 91 410 142 c 0
 410 189 395 214 283 242 c 0
 174 269 103 302 103 394 c 0
 103 482 184 538 303 538 c 0
 388 538 450 512 495 480 c 1
 457 422 l 1
 418 449 373 470 305 470 c 0
 221 470 191 441 191 401 c 0
 191 353 224 337 330 308 c 0
 433 280 501 244 501 146 c 0
 501 33 392 -11 280 -11 c 0
 184 -11 119 21 74 60 c 1
 121 115 l 1
 162 81 218 58 280 58 c 0
EndSplineSet
Validated: 1
EndChar

StartChar: zacute.loclPLK
Encoding: 1114123 -1 270
Width: 600
GlyphClass: 2
Flags: MW
HStem: 0 72<205 488> 453 74<125 394 125 495>
VStem: 102 396<0 72 64 72>
AnchorPoint: "Anchor-5" 310 527 basechar 0
AnchorPoint: "Anchor-4" 300 0 basechar 0
LayerCount: 2
Fore
SplineSet
364 771 m 1
 430 728 l 1
 301 577 l 1
 260 602 l 1
 364 771 l 1
205 72 m 1
 498 72 l 1
 488 0 l 1
 102 0 l 1
 102 64 l 1
 394 453 l 1
 125 453 l 1
 125 527 l 1
 495 527 l 1
 495 461 l 1
 205 72 l 1
EndSplineSet
Validated: 1
EndChar

StartChar: fi
Encoding: 64257 64257 271
Width: 600
GlyphClass: 3
Flags: MW
HStem: 0 67<314 407 492 586 314 407> 460 67<20 110 20 110 195 407> 680 69<270.5 328>
VStem: 110 85<0 460 0 460 527 591 591 593> 407 85<67 460 460 460>
LayerCount: 2
Fore
SplineSet
586 0 m 1
 314 0 l 1
 314 67 l 1
 407 67 l 1
 407 460 l 1
 195 460 l 1
 195 0 l 1
 110 0 l 1
 110 460 l 1
 20 460 l 1
 20 527 l 1
 110 527 l 1
 110 591 l 2
 110 688 196 749 305 749 c 0
 362 749 407 738 448 721 c 1
 421 658 l 1
 387 673 348 680 308 680 c 0
 233 680 195 651 195 593 c 2
 195 527 l 1
 492 527 l 1
 492 67 l 1
 586 67 l 1
 586 0 l 1
EndSplineSet
Validated: 1
Ligature2: "'dlig' Discretionary Ligatures in Latin lookup 24 subtable" f i
EndChar

StartChar: fl
Encoding: 64258 64258 272
Width: 600
GlyphClass: 3
Flags: MW
HStem: -11 70<508 532.5> 0 21G<105 190 105 105> 460 67<14 105 14 105 190 306> 680 69<266 318>
VStem: 105 85<0 460 0 460 527 591 591 593> 388 85<117 120 120 669 669 669>
LayerCount: 2
Fore
SplineSet
601 10 m 1xbc
 577 -2 553 -11 512 -11 c 0xbc
 442 -11 388 27 388 117 c 2
 388 669 l 1
 361 677 332 680 304 680 c 0
 228 680 190 651 190 593 c 2
 190 527 l 1
 316 527 l 1
 306 460 l 1
 190 460 l 1
 190 0 l 1
 105 0 l 1x7c
 105 460 l 1
 14 460 l 1
 14 527 l 1
 105 527 l 1
 105 591 l 2
 105 688 190 749 300 749 c 0
 338 749 367 742 398 731 c 1
 473 747 l 1
 473 120 l 2
 473 73 492 59 524 59 c 0
 544 59 559 63 578 70 c 1
 601 10 l 1xbc
EndSplineSet
Validated: 1
Ligature2: "'dlig' Discretionary Ligatures in Latin lookup 24 subtable" f l
EndChar

StartChar: ordfeminine
Encoding: 170 170 273
Width: 600
GlyphClass: 2
Flags: MW
HStem: 0 75<106 498 106 498> 307 60<245.5 279.5> 520 57<319 320 320 378> 685 64<267.5 310>
VStem: 102 85<418.5 468 418.5 484> 378 78<423 520 520 520 577 606 606 609>
LayerCount: 2
Fore
SplineSet
290 749 m 0
 402 749 456 696 456 609 c 2
 456 412 l 2
 456 382 467 368 490 361 c 1
 471 307 l 1
 430 312 402 329 388 366 c 1
 355 328 305 307 254 307 c 0
 163 307 102 360 102 440 c 0
 102 528 183 577 319 577 c 2
 378 577 l 1
 378 606 l 2
 378 662 341 685 279 685 c 0
 250 685 205 678 157 660 c 1
 134 719 l 1
 193 741 245 749 290 749 c 0
378 520 m 1
 320 520 l 2
 226 520 187 492 187 444 c 0
 187 393 218 367 273 367 c 0
 313 367 352 388 378 423 c 1
 378 520 l 1
498 75 m 1
 498 0 l 1
 106 0 l 1
 106 75 l 1
 498 75 l 1
EndSplineSet
Validated: 1
EndChar

StartChar: ordmasculine
Encoding: 186 186 274
Width: 600
GlyphClass: 2
Flags: MW
HStem: 0 75<104 497 104 497> 307 65<263.5 336.5 263.5 361.5> 685 64<263.5 336.5>
VStem: 96 84<475 582 475 594> 419 84<475 582>
LayerCount: 2
Fore
SplineSet
300 749 m 0
 425 749 503 663 503 529 c 0
 503 398 423 307 300 307 c 0
 176 307 96 395 96 529 c 0
 96 659 177 749 300 749 c 0
300 685 m 0
 227 685 180 635 180 529 c 0
 180 421 227 372 300 372 c 0
 373 372 419 421 419 529 c 0
 419 635 373 685 300 685 c 0
497 75 m 1
 497 0 l 1
 104 0 l 1
 104 75 l 1
 497 75 l 1
EndSplineSet
Validated: 1
EndChar

